<?xml version="1.0" encoding="UTF-8" standalone="no"?>
<!-- Created with Inkscape (http://www.inkscape.org/) -->

<svg width="36mm" height="35mm" viewBox="0 0 36 35" version="1.1" id="svg1" xmlns="http://www.w3.org/2000/svg" xmlns:svg="http://www.w3.org/2000/svg">
  <defs id="defs1" />
  <g id="layer1">
    <g id="g1" transform="translate(35.754041,-123.91557)" style="fill:#ac9573;fill-opacity:1">
      <path id="path24" d="m -15.535211,130.37986 -1.226388,-0.17804 c -0.05294,-0.008 -0.09876,-0.0411 -0.122497,-0.089 l -0.547436,-1.11054 c -0.05959,-0.12083 -0.232173,-0.12107 -0.291758,0 l -0.548149,1.11054 c -0.02374,0.048 -0.06956,0.0814 -0.122496,0.089 l -1.225913,0.17804 c -0.133417,0.0195 -0.186593,0.18351 -0.08998,0.27752 l 0.887386,0.8646 c 0.03845,0.0375 0.05579,0.0912 0.04677,0.1441 l -0.210095,1.22045 c -0.02302,0.13294 0.116562,0.23431 0.23597,0.17164 l 1.096771,-0.57616 c 0.04724,-0.0249 0.103979,-0.0249 0.151222,0 l 1.09677,0.57616 c 0.119172,0.0627 0.258762,-0.0387 0.235971,-0.1714 l -0.209379,-1.22093 c -0.009,-0.0527 0.0086,-0.10636 0.04677,-0.14386 l 0.886675,-0.8646 c 0.09662,-0.0942 0.04321,-0.25805 -0.09021,-0.27752" style="fill:#ac9573;fill-opacity:1;fill-rule:nonzero;stroke:none;stroke-width:0.00237396" />
      <path id="path25" d="m -8.922781,132.89816 c 0.09662,-0.0942 0.04321,-0.25805 -0.09021,-0.27751 l -0.768217,-0.11134 c -0.05294,-0.008 -0.09875,-0.0408 -0.122497,-0.0888 l -0.343984,-0.69628 c -0.05959,-0.12084 -0.232173,-0.12084 -0.29176,2.3e-4 l -0.3428,0.69581 c -0.02374,0.0482 -0.06956,0.0814 -0.122732,0.089 l -0.768927,0.11134 c -0.133417,0.0195 -0.186831,0.18351 -0.09021,0.27752 l 0.556218,0.54245 c 0.03846,0.0373 0.05579,0.0912 0.04677,0.14386 l -0.131046,0.76489 c -0.02302,0.13294 0.116562,0.23431 0.235971,0.17164 l 0.686788,-0.36132 c 0.04748,-0.0249 0.103979,-0.0249 0.151457,0 l 0.6875,0.36132 c 0.11941,0.0629 0.258761,-0.0385 0.235972,-0.1714 l -0.130567,-0.76513 c -0.009,-0.0527 0.0083,-0.10659 0.04653,-0.14386 l 0.555745,-0.54245" style="fill:#ac9573;fill-opacity:1;fill-rule:nonzero;stroke:none;stroke-width:0.00237396" />
      <path id="path26" d="m -23.381865,132.62065 -0.768687,-0.11134 c -0.05317,-0.008 -0.09899,-0.0408 -0.122734,-0.089 l -0.343133,-0.69557 c -0.05966,-0.12107 -0.232149,-0.12107 -0.291782,0 l -0.342873,0.69557 c -0.02366,0.0482 -0.06953,0.0814 -0.122568,0.089 l -0.768069,0.11134 c -0.133419,0.0195 -0.186784,0.18327 -0.09028,0.27751 l 0.555934,0.54245 c 0.03829,0.0373 0.05575,0.0912 0.04672,0.14386 l -0.131233,0.76489 c -0.02276,0.13295 0.116727,0.23431 0.23609,0.1714 l 0.686407,-0.36108 c 0.04741,-0.0249 0.104027,-0.0249 0.151459,0 l 0.687524,0.36132 c 0.119171,0.0629 0.258761,-0.0385 0.235971,-0.17116 l -0.130807,-0.76537 c -0.0088,-0.0527 0.0086,-0.10659 0.04677,-0.14386 l 0.555743,-0.54245 c 0.09639,-0.0942 0.04297,-0.25805 -0.09045,-0.27751" style="fill:#ac9573;fill-opacity:1;fill-rule:nonzero;stroke:none;stroke-width:0.00237396" />
      <path id="path27" d="m -14.036767,156.9649 c 0.162379,-0.27538 0.33639,-0.54364 0.505416,-0.81498 -0.01092,-0.014 -0.02161,-0.0278 -0.03252,-0.0418 -1.3731,0.39099 -2.773024,0.58399 -4.198825,0.58375 -1.427225,0 -2.8281,-0.20059 -4.253189,-0.59871 0.195379,0.3155 0.356806,0.57331 0.515388,0.83279 0.2298,0.37674 0.09923,0.73023 -0.322858,0.87694 -0.229563,0.08 -0.459837,0.15787 -0.689637,0.23668 1.555183,0.48595 3.139325,0.70056 4.752671,0.70198 1.61904,0.001 3.207457,-0.21555 4.759791,-0.68394 -0.241907,-0.10041 -0.48334,-0.17733 -0.722871,-0.25923 -0.370575,-0.12701 -0.512064,-0.4964 -0.313363,-0.8335" style="fill:#ac9573;fill-opacity:1;fill-rule:nonzero;stroke:none;stroke-width:0.00237396" />
      <path id="path28" d="m -27.046191,126.72088 c 1.944987,-1.19078 4.021372,-1.96968 6.248384,-2.33835 0.0088,-0.10802 0.02492,-0.19562 -0.02113,-0.29295 -2.289685,0.37437 -4.414024,1.16941 -6.39557,2.38749 0.04326,0.065 0.07003,0.10588 0.09771,0.14624 0.01819,0.0266 0.0377,0.0522 0.07061,0.0976" style="fill:#ac9573;fill-opacity:1;fill-rule:nonzero;stroke:none;stroke-width:0.00237396" />
      <path id="path29" d="m -11.457933,125.25472 c 1.034333,0.39977 2.051101,0.8392 2.976946,1.46355 0.08261,-0.0779 0.135553,-0.146 0.160004,-0.24974 -1.972285,-1.20811 -4.086061,-2.01763 -6.37171,-2.37064 -0.03655,0.0964 -0.02255,0.16879 -0.0055,0.27894 1.108641,0.1987 2.193303,0.47337 3.24022,0.87789" style="fill:#ac9573;fill-opacity:1;fill-rule:nonzero;stroke:none;stroke-width:0.00237396" />
      <path id="path30" d="m -7.789451,128.34395 c -0.39028,-0.46054 -0.744,-0.87955 -1.10057,-1.29618 -0.02469,-0.029 -0.06694,-0.0506 -0.104692,-0.0596 -0.525832,-0.1282 -1.052376,-0.25378 -1.578683,-0.3796 -0.0081,0.0114 -0.01591,0.023 -0.02397,0.0347 0.36559,0.43135 0.730942,0.86246 1.09487,1.29168 0.55717,0.13294 1.107453,0.26445 1.713052,0.40903" style="fill:#ac9573;fill-opacity:1;fill-rule:nonzero;stroke:none;stroke-width:0.00237396" />
      <path id="path31" d="m -24.91993,126.64562 c -0.0097,-0.0112 -0.01932,-0.0225 -0.02896,-0.0339 -0.551093,0.13152 -1.102207,0.2628 -1.638628,0.39076 -0.374063,0.44131 -0.734622,0.86673 -1.133826,1.33796 0.608018,-0.14339 1.158445,-0.27301 1.711317,-0.40334 0.364521,-0.43182 0.72731,-0.86151 1.090098,-1.29143" style="fill:#ac9573;fill-opacity:1;fill-rule:nonzero;stroke:none;stroke-width:0.00237396" />
      <path id="path32" d="m -25.94268,128.34087 c 0.02996,0.0541 0.04783,0.0905 0.06941,0.12439 0.02623,0.0413 0.04812,0.0876 0.107612,0.10778 1.538896,-0.93534 3.20328,-1.5642 4.980426,-1.91056 0,-0.0907 9.45e-4,-0.15621 -7.11e-4,-0.22173 -2.33e-4,-0.0152 -0.0093,-0.0304 -0.02326,-0.0722 -1.834836,0.35159 -3.543612,0.99161 -5.133479,1.97229" style="fill:#ac9573;fill-opacity:1;fill-rule:nonzero;stroke:none;stroke-width:0.00237396" />
      <path id="path33" d="m -14.719044,126.6639 c 1.773586,0.3428 3.441295,0.9795 4.987216,1.91674 0.07953,-0.0831 0.136741,-0.14956 0.148611,-0.24096 -1.307815,-0.84988 -3.436545,-1.70427 -5.124432,-1.9559 -0.0356,0.0852 -0.02635,0.17329 -0.01139,0.28012" style="fill:#ac9573;fill-opacity:1;fill-rule:nonzero;stroke:none;stroke-width:0.00237396" />
      <path id="path34" d="m -28.820941,152.04036 c -0.01545,0.008 -0.03093,0.0154 -0.04639,0.023 0.06725,0.40571 0.143506,0.80999 0.19851,1.21713 0.03487,0.25828 0.119932,0.46862 0.344935,0.62316 0.133465,0.0919 0.235925,0.2279 0.356405,0.33948 0.16055,0.14885 0.325089,0.29318 0.52106,0.46933 -0.104265,-0.59016 -0.199793,-1.13095 -0.297932,-1.68622 -0.342539,-0.33164 -0.74324,-0.62103 -1.076592,-0.98591" style="fill:#ac9573;fill-opacity:1;fill-rule:nonzero;stroke:none;stroke-width:0.00237396" />
      <path id="path35" d="m -1.864757,136.13672 c 0.151932,-0.50779 0.261846,-1.00419 0.37366,-1.50011 0.01115,-0.0501 0.01733,-0.10018 -0.0045,-0.14552 -0.207247,-0.43278 -0.416867,-0.86436 -0.625539,-1.29642 -0.01377,0.003 -0.0273,0.005 -0.04083,0.008 -0.117035,0.53699 -0.234071,1.07421 -0.35087,1.61049 0.226001,0.4615 0.437045,0.89261 0.648092,1.32349" style="fill:#ac9573;fill-opacity:1;fill-rule:nonzero;stroke:none;stroke-width:0.00237396" />
      <path id="path36" d="m -21.77588,157.23767 c -0.303392,-0.49023 -0.573073,-0.92395 -0.839671,-1.35957 -0.03252,-0.0529 -0.07359,-0.0888 -0.128667,-0.10873 -0.446542,-0.16261 -0.893322,-0.3238 -1.383545,-0.50114 0.313127,0.50637 0.601563,0.97238 0.892136,1.44218 0.469092,0.1695 0.937001,0.33829 1.459747,0.52726" style="fill:#ac9573;fill-opacity:1;fill-rule:nonzero;stroke:none;stroke-width:0.00237396" />
      <path id="path37" d="m -23.285244,156.8595 c -0.520134,0.17163 -1.035997,0.34185 -1.551739,0.5123 -8.01e-4,0.015 -0.0017,0.0297 -0.0024,0.0446 0.470209,0.17068 0.940491,0.34137 1.398428,0.50755 0.536278,-0.17828 1.051429,-0.34945 1.609784,-0.53485 -0.513014,-0.18683 -0.983295,-0.358 -1.454052,-0.52963" style="fill:#ac9573;fill-opacity:1;fill-rule:nonzero;stroke:none;stroke-width:0.00237396" />
      <path id="path38" d="m -25.223772,156.07111 c -0.563839,0.0997 -1.08737,0.19205 -1.670367,0.29531 0.495279,0.2685 0.934366,0.50661 1.358522,0.73665 0.552707,-0.0971 1.084925,-0.19063 1.670888,-0.29366 -0.489746,-0.26612 -0.928716,-0.50447 -1.359043,-0.7383" style="fill:#ac9573;fill-opacity:1;fill-rule:nonzero;stroke:none;stroke-width:0.00237396" />
      <path id="path39" d="m -3.710513,130.76777 c -0.330691,-0.39835 -0.645242,-0.77771 -0.983057,-1.18485 0,0.58186 0,1.12336 0,1.65276 0.338764,0.39218 0.633136,0.7891 0.983057,1.163 0,-0.57426 0,-1.10864 0,-1.63091" style="fill:#ac9573;fill-opacity:1;fill-rule:nonzero;stroke:none;stroke-width:0.00237396" />
      <path id="path40" d="m -5.104977,130.86083 c 0.0062,-0.0126 0.0121,-0.0249 0.01828,-0.0375 -0.370338,-0.33401 -0.740676,-0.66827 -1.109353,-1.0011 -0.553607,-0.0242 -1.094396,-0.0931 -1.67934,-0.0959 0.40666,0.36583 0.773674,0.69604 1.137841,1.02365 0.54957,0.0373 1.091072,0.0741 1.632572,0.11087" style="fill:#ac9573;fill-opacity:1;fill-rule:nonzero;stroke:none;stroke-width:0.00237396" />
      <path id="path41" d="m -27.415771,153.3401 c 0.180873,0.53177 0.281173,1.07469 0.486474,1.58723 0.407157,0.27348 0.813723,0.54625 1.220263,0.81925 0.01161,-0.008 0.02322,-0.0154 0.03483,-0.0233 -0.166509,-0.52109 -0.333042,-1.04217 -0.498769,-1.56088 -0.420168,-0.278 -0.83148,-0.55029 -1.242794,-0.82234" style="fill:#ac9573;fill-opacity:1;fill-rule:nonzero;stroke:none;stroke-width:0.00237396" />
      <path id="path42" d="m -23.793983,156.65961 c -0.222441,-0.51966 -0.42043,-0.97902 -0.615094,-1.43957 -0.02682,-0.0636 -0.05968,-0.11917 -0.120977,-0.14956 -0.411432,-0.20487 -0.798196,-0.45699 -1.223088,-0.63575 l 0.0019,-0.003 c -10e-4,7.1e-4 -0.0016,7.1e-4 -0.0026,0.001 0,0 1.96e-4,2.3e-4 2.14e-4,2.3e-4 -0.04931,0.0325 -0.01377,0.0722 -7.66e-4,0.10256 0.200624,0.46791 0.403646,0.9351 0.607118,1.40444 0.438375,0.23288 0.87255,0.46363 1.353276,0.71907" style="fill:#ac9573;fill-opacity:1;fill-rule:nonzero;stroke:none;stroke-width:0.00237396" />
      <path id="path43" d="m -29.771903,152.8456 c -0.253966,-0.39194 -0.593727,-0.62411 -1.066809,-0.6469 -0.04052,-0.002 -0.0801,-0.0195 -0.120503,-0.0278 -0.279438,-0.0579 -0.558973,-0.11537 -0.897025,-0.18516 0.345863,0.4209 0.653552,0.79527 0.97831,1.1903 0.525238,0.11134 1.046845,0.22197 1.609284,0.34114 -0.165324,-0.26897 -0.360961,-0.45177 -0.503257,-0.67159" style="fill:#ac9573;fill-opacity:1;fill-rule:nonzero;stroke:none;stroke-width:0.00237396" />
      <path id="path44" d="m -28.703193,153.81323 c -0.541808,-0.0532 -1.076021,-0.1111 -1.629035,-0.0774 0.363738,0.32974 0.727453,0.65949 1.08179,0.98068 0.554011,0.0387 1.088676,0.076 1.685109,0.11751 -0.389425,-0.39455 -0.780701,-0.69391 -1.137864,-1.0208" style="fill:#ac9573;fill-opacity:1;fill-rule:nonzero;stroke:none;stroke-width:0.00237396" />
      <path id="path45" d="m -5.316022,152.33924 c -0.315975,0.38292 -0.622691,0.75444 -0.929169,1.12621 0.01068,0.015 0.02113,0.0301 0.03181,0.0451 0.521321,-0.11087 1.04288,-0.22197 1.574173,-0.33521 0.313126,-0.37793 0.627674,-0.75729 0.941989,-1.13665 -0.0053,-0.0159 -0.01068,-0.0316 -0.01591,-0.0473 -0.53699,0.11656 -1.07398,0.23289 -1.602897,0.34779" style="fill:#ac9573;fill-opacity:1;fill-rule:nonzero;stroke:none;stroke-width:0.00237396" />
      <path id="path46" d="m -6.37291,153.37025 c 0.314312,-0.37722 0.628624,-0.75445 0.962879,-1.15541 0,-0.52536 0,-1.06994 0,-1.6537 -0.334728,0.40358 -0.647854,0.78127 -0.96098,1.15897 -0.0394,0.54838 -0.03158,1.09155 -0.0019,1.65014" style="fill:#ac9573;fill-opacity:1;fill-rule:nonzero;stroke:none;stroke-width:0.00237396" />
      <path id="path47" d="m -29.201961,151.66669 c -0.269563,-0.37959 -0.590357,-0.71527 -0.894486,-1.09938 0,0.57688 0,1.11624 0,1.64231 0.311109,0.40903 0.646667,0.7656 0.997254,1.18603 -0.02873,-0.50826 -0.04249,-0.9522 -0.04129,-1.3966 3.03e-4,-0.11229 0.01294,-0.22766 -0.06149,-0.33236" style="fill:#ac9573;fill-opacity:1;fill-rule:nonzero;stroke:none;stroke-width:0.00237396" />
      <path id="path48" d="m -25.80575,155.86789 c -0.408986,-0.27443 -0.81797,-0.54885 -1.223801,-0.82115 -0.549666,0.0422 -1.089434,0.0836 -1.629201,0.12511 -0.003,0.0135 -0.0059,0.0271 -0.0089,0.0406 0.401508,0.27111 0.80304,0.54221 1.229,0.8297 0.544277,-0.0422 1.086751,-0.0847 1.629202,-0.12701 0.0012,-0.0157 0.0025,-0.0313 0.0037,-0.0472" style="fill:#ac9573;fill-opacity:1;fill-rule:nonzero;stroke:none;stroke-width:0.00237396" />
      <path id="path49" d="m -6.41398,131.05264 c 0.313838,0.37936 0.627914,0.75872 0.942701,1.13927 0.528444,0.11252 1.051427,0.22363 1.574173,0.33496 0.01187,-0.0149 0.0235,-0.0301 0.03513,-0.0451 -0.313125,-0.37865 -0.626015,-0.7573 -0.934866,-1.13072 -0.541975,-0.11443 -1.070182,-0.22576 -1.59815,-0.33687 -0.0064,0.0128 -0.01258,0.0256 -0.019,0.0385" style="fill:#ac9573;fill-opacity:1;fill-rule:nonzero;stroke:none;stroke-width:0.00237396" />
      <path id="path50" d="m -30.465644,130.86439 c 0.60263,-0.0406 1.141779,-0.0769 1.688005,-0.11348 0.365827,-0.33069 0.731369,-0.66114 1.096935,-0.9916 -0.0051,-0.0142 -0.01023,-0.0285 -0.01534,-0.0427 -0.555293,0.037 -1.110609,0.0743 -1.633474,0.1092 -0.384961,0.35182 -0.740084,0.67658 -1.136131,1.03861" style="fill:#ac9573;fill-opacity:1;fill-rule:nonzero;stroke:none;stroke-width:0.00237396" />
      <path id="path51" d="m -6.39119,129.21852 c -0.188254,-0.58423 -0.359417,-1.11481 -0.524407,-1.62711 -0.425888,-0.28345 -0.830174,-0.55266 -1.283363,-0.85439 0.188967,0.58542 0.357518,1.10817 0.523458,1.62213 0.421616,0.28202 0.829224,0.55479 1.284312,0.85937" style="fill:#ac9573;fill-opacity:1;fill-rule:nonzero;stroke:none;stroke-width:0.00237396" />
      <path id="path52" d="m -4.0272,150.7145 c -0.265646,0.41307 -0.565478,0.79931 -0.843943,1.27315 0.575924,-0.18231 1.091548,-0.34588 1.600763,-0.50731 0.282738,-0.41711 0.559068,-0.82424 0.83516,-1.23161 -0.0078,-0.0114 -0.01567,-0.0228 -0.02374,-0.0339 -0.521559,0.16617 -1.043356,0.33235 -1.568238,0.49971" style="fill:#ac9573;fill-opacity:1;fill-rule:nonzero;stroke:none;stroke-width:0.00237396" />
      <path id="path53" d="m -2.655287,134.21239 c 0.064576,-0.53913 0.128907,-1.0785 0.193003,-1.61596 -0.261848,-0.42779 -0.518236,-0.84679 -0.774623,-1.2658 -0.01353,0.007 -0.02706,0.0147 -0.04059,0.0221 -0.06529,0.53889 -0.130568,1.07801 -0.195377,1.61168 0.262085,0.42921 0.517523,0.8475 0.772962,1.26603 0.01496,-0.006 0.02991,-0.0121 0.04463,-0.018" style="fill:#ac9573;fill-opacity:1;fill-rule:nonzero;stroke:none;stroke-width:0.00237396" />
      <path id="path54" d="m -29.154222,128.09018 c -0.01479,-0.003 -0.02958,-0.006 -0.04437,-0.009 -0.365068,0.33093 -0.730159,0.66163 -1.095702,0.99303 -0.09123,0.54103 -0.181655,1.07754 -0.282168,1.67364 0.41231,-0.372 0.777424,-0.7015 1.14978,-1.03742 0.09052,-0.53841 0.18149,-1.0792 0.272459,-1.62023" style="fill:#ac9573;fill-opacity:1;fill-rule:nonzero;stroke:none;stroke-width:0.00237396" />
      <path id="path55" d="m -5.001947,130.68706 c 0.0171,-0.007 0.03442,-0.0143 0.05175,-0.0214 -0.09116,-0.53556 -0.18232,-1.07113 -0.272529,-1.60242 -0.373662,-0.33425 -0.73759,-0.6602 -1.101756,-0.98614 -0.01115,0.01 -0.02255,0.019 -0.03371,0.0285 0.09069,0.53509 0.181371,1.07042 0.272056,1.60551 0.363928,0.32761 0.724058,0.65189 1.084189,0.97594" style="fill:#ac9573;fill-opacity:1;fill-rule:nonzero;stroke:none;stroke-width:0.00237396" />
      <path id="path56" d="m -1.180583,142.94927 c -0.02564,0.50305 -0.0508,0.99208 -0.07573,1.48112 0.01377,0.005 0.02754,0.0107 0.04131,0.0159 0.355858,-0.40595 0.711713,-0.81213 1.073269,-1.22449 0.02659,-0.4926 0.05293,-0.98614 0.07952,-1.47969 -0.01377,-0.009 -0.02754,-0.0185 -0.04131,-0.0278 -0.360606,0.41331 -0.720973,0.82661 -1.077068,1.23493" style="fill:#ac9573;fill-opacity:1;fill-rule:nonzero;stroke:none;stroke-width:0.00237396" />
      <path id="path57" d="m -5.16575,132.50907 c 0.258524,0.42423 0.517285,0.84869 0.772249,1.26651 0.519421,0.19395 1.024602,0.38268 1.530017,0.57141 0.0095,-0.0119 0.01923,-0.0237 0.02896,-0.0354 -0.258521,-0.4247 -0.516809,-0.8494 -0.772246,-1.26935 -0.518949,-0.19158 -1.025551,-0.37865 -1.532392,-0.56572 -0.0088,0.0109 -0.01781,0.0219 -0.02659,0.0325" style="fill:#ac9573;fill-opacity:1;fill-rule:nonzero;stroke:none;stroke-width:0.00237396" />
      <path id="path58" d="m -1.343675,138.17429 c 0.01591,2.3e-4 0.03181,2.3e-4 0.04772,4.8e-4 0.193714,-0.50494 0.387669,-1.01012 0.581145,-1.51364 -0.149085,-0.47645 -0.296271,-0.94721 -0.443455,-1.4182 -0.01591,0.002 -0.03181,0.004 -0.04748,0.006 -0.196564,0.51444 -0.393127,1.02911 -0.580908,1.521 0.153832,0.48808 0.298406,0.94626 0.44298,1.40443" style="fill:#ac9573;fill-opacity:1;fill-rule:nonzero;stroke:none;stroke-width:0.00237396" />
      <path id="path59" d="m -8.064357,129.47159 c 0.50043,-0.0394 1.000626,-0.0793 1.500818,-0.11894 0.0064,-0.0159 0.01258,-0.0318 0.01876,-0.048 -0.401438,-0.27087 -0.802876,-0.5415 -1.219744,-0.82281 -0.532004,0.0413 -1.075403,0.0833 -1.618803,0.12534 0.376747,0.30909 0.763702,0.56999 1.152082,0.82828 0.04867,0.0323 0.108252,0.0406 0.166891,0.0361" style="fill:#ac9573;fill-opacity:1;fill-rule:nonzero;stroke:none;stroke-width:0.00237396" />
      <path id="path60" d="m -30.530216,151.84759 c 0.01455,-0.005 0.02915,-0.0104 0.04373,-0.0157 0.03981,-0.54791 0.0796,-1.09606 0.118129,-1.6264 -0.28732,-0.42138 -0.561251,-0.82329 -0.870508,-1.27695 -0.0439,0.60559 -0.08365,1.15421 -0.122947,1.69643 0.28205,0.41449 0.556812,0.81854 0.831599,1.22259" style="fill:#ac9573;fill-opacity:1;fill-rule:nonzero;stroke:none;stroke-width:0.00237396" />
      <path id="path61" d="m -2.607333,148.41579 c 0.271107,-0.11608 0.500905,-0.25852 0.733317,-0.39621 0.685125,-0.40547 0.687735,-0.40405 0.955756,-1.15564 0.08071,-0.22696 0.187543,-0.44607 0.251639,-0.7186 -0.495682,0.3041 -0.957892,0.58779 -1.433635,0.87955 -0.172349,0.47289 -0.339712,0.93178 -0.507077,1.3909" style="fill:#ac9573;fill-opacity:1;fill-rule:nonzero;stroke:none;stroke-width:0.00237396" />
      <path id="path62" d="m -3.756568,150.2454 c 0.242143,-0.49758 0.457463,-0.94032 0.676105,-1.38995 -0.12131,-0.54957 -0.23811,-1.07706 -0.367016,-1.66011 -0.243093,0.50114 -0.461259,0.95029 -0.676578,1.39399 0.12036,0.54221 0.237871,1.07161 0.367489,1.65607" style="fill:#ac9573;fill-opacity:1;fill-rule:nonzero;stroke:none;stroke-width:0.00237396" />
      <path id="path63" d="m -11.5923,156.77712 c 0.0026,0.0147 0.0053,0.0294 0.0079,0.0442 0.501618,0.0881 1.002999,0.17639 1.504854,0.26375 0.04867,0.009 0.10018,0.0128 0.145523,-0.0114 0.421854,-0.22553 0.843231,-0.45224 1.312089,-0.70388 -0.596101,-0.10612 -1.131667,-0.20131 -1.666047,-0.29651 -0.437995,0.23645 -0.871243,0.47005 -1.304253,0.70388" style="fill:#ac9573;fill-opacity:1;fill-rule:nonzero;stroke:none;stroke-width:0.00237396" />
      <path id="path64" d="m -27.834276,128.35654 c 0.165348,-0.5161 0.333709,-1.0417 0.502046,-1.56729 -0.01247,-0.007 -0.02498,-0.0133 -0.03746,-0.0199 -0.41511,0.28013 -0.830222,0.56002 -1.233343,0.83184 -0.168743,0.52773 -0.330455,1.03338 -0.492171,1.53904 0.0137,0.01 0.02739,0.019 0.04107,0.0285 0.401697,-0.2673 0.803394,-0.53485 1.219858,-0.81213" style="fill:#ac9573;fill-opacity:1;fill-rule:nonzero;stroke:none;stroke-width:0.00237396" />
      <path id="path65" d="m -6.801885,153.79448 c -0.392178,0.3174 -0.745423,0.66874 -1.131192,1.03718 0.573787,-0.0392 1.108641,-0.076 1.670081,-0.11442 0.364641,-0.33117 0.728333,-0.66139 1.092022,-0.99185 -0.0059,-0.0152 -0.01187,-0.0301 -0.01781,-0.0453 -0.537938,0.0382 -1.075878,0.0764 -1.613106,0.11443" style="fill:#ac9573;fill-opacity:1;fill-rule:nonzero;stroke:none;stroke-width:0.00237396" />
      <path id="path66" d="m -1.202661,142.35697 c -0.02326,-0.45034 -0.04606,-0.90068 -0.07003,-1.35102 -0.0057,-0.10256 -0.05246,-0.18541 -0.120835,-0.2628 -0.283925,-0.32096 -0.56239,-0.6469 -0.847266,-0.96691 -0.03609,-0.0406 -0.05579,-0.12772 -0.147662,-0.0935 0.02398,0.49521 0.04796,0.98852 0.07122,1.46829 0.364168,0.41663 0.715513,0.81878 1.067097,1.22093 0.01567,-0.005 0.03157,-0.01 0.04748,-0.015" style="fill:#ac9573;fill-opacity:1;fill-rule:nonzero;stroke:none;stroke-width:0.00237396" />
      <path id="path67" d="m -32.039818,132.96012 c -0.06545,-0.53699 -0.130971,-1.07422 -0.196493,-1.61144 -0.01574,-0.003 -0.03148,-0.006 -0.04721,-0.009 -0.256127,0.41995 -0.512253,0.83991 -0.770468,1.26342 0.06789,0.5434 0.135316,1.08348 0.209905,1.68053 0.289054,-0.4755 0.544539,-0.89593 0.804274,-1.32325" style="fill:#ac9573;fill-opacity:1;fill-rule:nonzero;stroke:none;stroke-width:0.00237396" />
      <path id="path68" d="m -29.024604,129.34126 c 0.361008,0.0313 0.666466,0.0358 0.963473,0.0885 0.49979,0.0883 0.936457,0 1.319353,-0.34755 0.167577,-0.15193 0.388427,-0.23906 0.55534,-0.40903 -0.03779,-0.0294 -0.06173,-0.0641 -0.08866,-0.0665 -0.491886,-0.0456 -0.98415,-0.0876 -1.471073,-0.12962 -0.430803,0.29128 -0.830506,0.56144 -1.278427,0.86412" style="fill:#ac9573;fill-opacity:1;fill-rule:nonzero;stroke:none;stroke-width:0.00237396" />
      <path id="path69" d="m -2.938264,148.91789 c -0.195613,0.43134 -0.429686,0.84655 -0.607496,1.28906 -0.02896,0.0159 -0.04297,0.0363 -0.01662,0.0717 0.01733,-0.008 0.03561,-0.0166 0.05389,-0.0249 v 0 c 0.471231,-0.22411 0.9427,-0.44797 1.42224,-0.67587 0.213894,-0.44464 0.428738,-0.89095 0.643581,-1.33725 -0.01163,-0.0104 -0.0235,-0.0209 -0.03538,-0.0316 -0.483576,0.23478 -0.96739,0.46957 -1.460225,0.70886" style="fill:#ac9573;fill-opacity:1;fill-rule:nonzero;stroke:none;stroke-width:0.00237396" />
      <path id="path70" d="m -8.01023,154.66619 c 0.365352,-0.33045 0.730942,-0.66091 1.092258,-0.9878 0.09306,-0.55313 0.183983,-1.09273 0.28369,-1.68409 -0.413545,0.3758 -0.783408,0.71195 -1.152321,1.04692 -0.08974,0.54269 -0.178047,1.07754 -0.266359,1.61239 0.01424,0.004 0.02849,0.009 0.04273,0.0126" style="fill:#ac9573;fill-opacity:1;fill-rule:nonzero;stroke:none;stroke-width:0.00237396" />
      <path id="path71" d="m -3.389079,135.8998 c 0.285351,0.44654 0.324758,0.98187 0.530107,1.44598 0.450576,0.3079 0.893083,0.6101 1.383543,0.94531 -0.163804,-0.52702 -0.311939,-1.00324 -0.459836,-1.47946 -0.426126,-0.29294 -0.848215,-0.58233 -1.268882,-0.87361 -0.06291,-0.0437 -0.122496,-0.0793 -0.184932,-0.0382" style="fill:#ac9573;fill-opacity:1;fill-rule:nonzero;stroke:none;stroke-width:0.00237396" />
      <path id="path72" d="m -33.639963,136.12485 c 0.217479,-0.45129 0.434958,-0.90234 0.640875,-1.32942 -0.122995,-0.55052 -0.238607,-1.06804 -0.354219,-1.58557 -0.01457,-0.001 -0.02915,-0.002 -0.04375,-0.004 -0.214819,0.44227 -0.429663,0.8843 -0.647877,1.33345 0.122876,0.54483 0.240434,1.06639 0.358017,1.58771 0.01564,-7.2e-4 0.03131,-0.002 0.04696,-0.002" style="fill:#ac9573;fill-opacity:1;fill-rule:nonzero;stroke:none;stroke-width:0.00237396" />
      <path id="path73" d="m -2.754993,148.3638 c 0.169975,-0.46505 0.339714,-0.92988 0.511351,-1.39968 -0.169739,-0.51302 -0.340189,-1.0284 -0.510638,-1.54403 -0.01543,0.001 -0.03063,0.003 -0.04582,0.005 -0.169025,0.46364 -0.338289,0.92727 -0.50589,1.38711 0.171401,0.52583 0.339239,1.04122 0.507315,1.5566 0.01448,-0.001 0.0292,-0.003 0.04368,-0.005" style="fill:#ac9573;fill-opacity:1;fill-rule:nonzero;stroke:none;stroke-width:0.00237396" />
      <path id="path74" d="m -12.841952,155.79572 c -0.297695,0.4748 -0.585182,0.93297 -0.872906,1.39115 0.01353,0.0104 0.02682,0.0209 0.04012,0.0311 0.461262,-0.16784 0.92276,-0.33568 1.395889,-0.5078 0.292709,-0.47265 0.575686,-0.92988 0.858899,-1.3871 -0.01002,-0.0102 -0.01994,-0.0207 -0.02991,-0.0311 -0.467908,0.16926 -0.936053,0.33876 -1.39209,0.50375" style="fill:#ac9573;fill-opacity:1;fill-rule:nonzero;stroke:none;stroke-width:0.00237396" />
      <path id="path75" d="m -5.145336,150.20956 c 0.04107,0.54886 0.08166,1.08988 0.122023,1.63115 0.01543,0.001 0.03063,0.002 0.04582,0.004 0.275142,-0.40714 0.550047,-0.81427 0.825902,-1.22259 -0.04107,-0.54768 -0.08142,-1.08823 -0.121784,-1.62878 -0.01472,-10e-4 -0.0292,-0.003 -0.04392,-0.004 -0.271581,0.40025 -0.543163,0.80074 -0.828039,1.22045" style="fill:#ac9573;fill-opacity:1;fill-rule:nonzero;stroke:none;stroke-width:0.00237396" />
      <path id="path76" d="m -8.569537,154.91712 c 0.17235,-0.54174 0.333304,-1.04763 0.494259,-1.55352 -0.01329,-0.007 -0.02683,-0.0142 -0.04036,-0.0214 -0.409746,0.27396 -0.819255,0.54791 -1.221642,0.81688 -0.170449,0.52987 -0.335913,1.04431 -0.50138,1.55875 0.01116,0.009 0.02207,0.0176 0.03324,0.0264 0.413306,-0.27657 0.826851,-0.55338 1.235884,-0.82709" style="fill:#ac9573;fill-opacity:1;fill-rule:nonzero;stroke:none;stroke-width:0.00237396" />
      <path id="path77" d="m -1.806121,146.47271 c 0.0121,0.007 0.02421,0.0135 0.03632,0.0204 0.414257,-0.34874 0.828512,-0.69747 1.246093,-1.04858 0.103504,-0.50399 0.202022,-0.9833 0.312887,-1.52218 -0.466246,0.39217 -0.885962,0.74494 -1.301404,1.09415 -0.09971,0.49403 -0.196803,0.97499 -0.293897,1.45619" style="fill:#ac9573;fill-opacity:1;fill-rule:nonzero;stroke:none;stroke-width:0.00237396" />
      <path id="path78" d="m -34.576181,145.80016 c 0.286893,0.20155 0.543447,0.44655 0.813342,0.67231 0.01629,-0.0121 0.03255,-0.0244 0.04879,-0.0365 -0.09513,-0.4672 -0.190249,-0.93463 -0.2896,-1.42272 -0.407656,-0.34328 -0.82666,-0.69628 -1.245664,-1.04905 0.02495,0.33924 0.117938,0.64975 0.150461,0.96644 0.03939,0.38315 0.211544,0.65093 0.522675,0.86958" style="fill:#ac9573;fill-opacity:1;fill-rule:nonzero;stroke:none;stroke-width:0.00237396" />
      <path id="path79" d="m -1.663447,144.97972 c -0.250215,-0.49734 -0.493071,-0.98021 -0.760853,-1.51245 -0.111814,0.53699 -0.211758,1.01701 -0.315975,1.51625 0.243568,0.48168 0.492833,0.97451 0.766078,1.51506 0.112525,-0.55052 0.212469,-1.03908 0.31075,-1.51886" style="fill:#ac9573;fill-opacity:1;fill-rule:nonzero;stroke:none;stroke-width:0.00237396" />
      <path id="path80" d="m -31.799621,132.41269 c 0.336011,-0.40287 0.644673,-0.77273 0.97482,-1.16847 0,-0.52725 0,-1.07659 0,-1.65465 -0.211425,0.2533 -0.390682,0.5104 -0.612529,0.72335 -0.299903,0.28772 -0.395502,0.61984 -0.367228,1.02223 0.02388,0.34042 0.005,0.6837 0.005,1.07754" style="fill:#ac9573;fill-opacity:1;fill-rule:nonzero;stroke:none;stroke-width:0.00237396" />
      <path id="path81" d="m -9.762925,155.9092 c 0.604647,0.0475 1.149708,0.0905 1.688835,0.13271 0.419715,-0.28369 0.827326,-0.55931 1.283363,-0.86745 -0.599187,-0.0439 -1.139738,-0.0833 -1.700469,-0.1244 -0.40191,0.27135 -0.813556,0.54958 -1.271729,0.85914" style="fill:#ac9573;fill-opacity:1;fill-rule:nonzero;stroke:none;stroke-width:0.00237396" />
      <path id="path82" d="m -1.41323,144.41852 c 0.02184,-0.43657 0.04131,-0.87338 0.06718,-1.30972 0.0071,-0.12107 -0.01876,-0.22101 -0.09283,-0.32048 -0.19704,-0.26422 -0.38292,-0.53675 -0.575448,-0.80454 -0.08736,-0.12131 -0.161431,-0.25401 -0.302919,-0.39146 -0.02825,0.53485 -0.05436,1.02602 -0.08,1.51031 0.31906,0.45295 0.630287,0.89451 0.941513,1.33631 0.01424,-0.007 0.02825,-0.0135 0.04249,-0.0204" style="fill:#ac9573;fill-opacity:1;fill-rule:nonzero;stroke:none;stroke-width:0.00237396" />
      <path id="path83" d="m -34.487561,140.23631 c 0.09845,-0.48358 0.196896,-0.96715 0.294964,-1.44883 -0.247556,-0.49117 -0.490982,-0.97403 -0.76178,-1.51126 -0.112194,0.54221 -0.21152,1.02246 -0.314099,1.51838 0.251118,0.49355 0.495968,0.97475 0.740818,1.45596 0.01337,-0.005 0.02673,-0.01 0.0401,-0.0143" style="fill:#ac9573;fill-opacity:1;fill-rule:nonzero;stroke:none;stroke-width:0.00237396" />
      <path id="path84" d="m -13.683046,157.38723 c 0.466244,0.15549 0.883349,0.28297 1.291434,0.43538 0.221964,0.0829 0.422327,0.0964 0.638833,-0.01 0.146947,-0.0722 0.311699,-0.10659 0.463871,-0.1695 0.207247,-0.0857 0.4285,-0.13935 0.645479,-0.25971 -0.546961,-0.18066 -1.069707,-0.35348 -1.58438,-0.52346 -0.478354,0.1733 -0.942225,0.34138 -1.455237,0.52726" style="fill:#ac9573;fill-opacity:1;fill-rule:nonzero;stroke:none;stroke-width:0.00237396" />
      <path id="path85" d="m -30.660831,151.93424 c -0.275997,-0.4069 -0.551994,-0.81379 -0.82932,-1.22259 -0.518426,-0.16428 -1.033195,-0.32737 -1.547965,-0.49046 -0.01203,0.0104 -0.02408,0.0209 -0.03609,0.0313 0.280033,0.41354 0.560113,0.82709 0.831742,1.22829 0.533286,0.16855 1.046607,0.33093 1.559905,0.49307 0.0072,-0.0133 0.01448,-0.0266 0.02172,-0.0396" style="fill:#ac9573;fill-opacity:1;fill-rule:nonzero;stroke:none;stroke-width:0.00237396" />
      <path id="path86" d="m -34.332945,140.27524 c 0.01291,0.006 0.02583,0.0123 0.03872,0.0185 0.413639,-0.34873 0.827254,-0.6977 1.24322,-1.04857 0.09901,-0.48952 0.196777,-0.97285 0.294537,-1.45619 -0.01365,-0.006 -0.02732,-0.0128 -0.04095,-0.0192 -0.407561,0.34303 -0.815099,0.68631 -1.239635,1.04383 -0.09971,0.4926 -0.197798,0.97712 -0.29589,1.46165" style="fill:#ac9573;fill-opacity:1;fill-rule:nonzero;stroke:none;stroke-width:0.00237396" />
      <path id="path87" d="m -34.468047,142.33109 c 0.02481,-0.48523 0.04959,-0.97071 0.07461,-1.46046 -0.315571,-0.4425 -0.630572,-0.8843 -0.945596,-1.32609 -0.01424,0.006 -0.02849,0.0116 -0.04273,0.0176 -0.0241,0.49283 -0.04819,0.98543 -0.07241,1.48017 0.315689,0.44036 0.628103,0.87599 0.940516,1.31185 0.01519,-0.008 0.03041,-0.0152 0.0456,-0.023" style="fill:#ac9573;fill-opacity:1;fill-rule:nonzero;stroke:none;stroke-width:0.00237396" />
      <path id="path88" d="m -34.167718,138.17358 c 0.144385,-0.46079 0.288793,-0.92181 0.440299,-1.40539 -0.197656,-0.51301 -0.392891,-1.01985 -0.588149,-1.52669 -0.01524,0.004 -0.03048,0.008 -0.0457,0.0116 -0.145951,0.47099 -0.291902,0.94175 -0.43555,1.40515 0.198202,0.51657 0.39054,1.01795 0.582878,1.51933 0.01541,-0.001 0.03081,-0.003 0.04622,-0.004" style="fill:#ac9573;fill-opacity:1;fill-rule:nonzero;stroke:none;stroke-width:0.00237396" />
      <path id="path89" d="m -30.243822,132.23203 c 0.0863,-0.0188 0.182984,-0.0135 0.248554,-0.0933 0.296864,-0.36132 0.594749,-0.72193 0.892277,-1.08277 -0.01163,-0.0138 -0.02326,-0.0275 -0.0349,-0.0413 -0.522319,0.11228 -1.044638,0.22457 -1.579705,0.33971 -0.309968,0.37532 -0.623805,0.75539 -0.937643,1.1357 0.49084,-0.0603 0.951507,-0.15739 1.411414,-0.25805" style="fill:#ac9573;fill-opacity:1;fill-rule:nonzero;stroke:none;stroke-width:0.00237396" />
      <path id="path90" d="m -34.009018,138.21132 c 0.01382,0.0104 0.02766,0.0209 0.04147,0.0313 0.444358,-0.30363 0.88874,-0.60726 1.330961,-0.90946 0.149346,-0.4831 0.2957,-0.95671 0.458934,-1.48491 -0.499719,0.34327 -0.946736,0.65022 -1.401895,0.96264 -0.147067,0.47954 -0.28827,0.94008 -0.429474,1.4004" style="fill:#ac9573;fill-opacity:1;fill-rule:nonzero;stroke:none;stroke-width:0.00237396" />
      <path id="path91" d="m -34.260207,144.41068 c -0.02481,-0.48927 -0.04962,-0.97878 -0.07423,-1.46449 -0.36267,-0.41616 -0.718764,-0.82472 -1.074858,-1.23328 -0.01394,0.007 -0.0279,0.0142 -0.04183,0.0214 0.02592,0.49308 0.05182,0.98615 0.07827,1.48967 0.353364,0.40072 0.709482,0.80477 1.065576,1.20882 0.01569,-0.007 0.03139,-0.0147 0.04708,-0.0221" style="fill:#ac9573;fill-opacity:1;fill-rule:nonzero;stroke:none;stroke-width:0.00237396" />
      <path id="path92" d="m -1.470918,138.82903 c -0.406897,-0.35396 -0.812607,-0.70934 -1.237309,-1.04217 -0.01472,0.009 -0.02967,0.0176 -0.04439,0.0261 0.09519,0.47218 0.190155,0.94412 0.287725,1.42818 0.409271,0.34588 0.821628,0.6939 1.233985,1.04216 0.01519,-0.009 0.03039,-0.0188 0.04582,-0.028 -0.0933,-0.46529 -0.186594,-0.93059 -0.285825,-1.42627" style="fill:#ac9573;fill-opacity:1;fill-rule:nonzero;stroke:none;stroke-width:0.00237396" />
      <path id="path93" d="m -11.631234,156.61688 c 0.392179,-0.20915 0.782695,-0.42114 1.175586,-0.62839 0.08001,-0.0423 0.118936,-0.10754 0.151933,-0.18517 0.180659,-0.42375 0.36298,-0.84655 0.544824,-1.26983 0.01876,-0.0434 0.05721,-0.0876 -0.02373,-0.13816 -0.394553,0.27585 -0.847505,0.46743 -1.274343,0.72144 -0.212231,0.49307 -0.424939,0.98757 -0.639308,1.48539 0.0368,0.009 0.05531,0.0199 0.06505,0.0147" style="fill:#ac9573;fill-opacity:1;fill-rule:nonzero;stroke:none;stroke-width:0.00237396" />
      <path id="path94" d="m -31.936669,150.24066 c -0.211022,-0.43681 -0.422019,-0.87386 -0.638215,-1.32135 -0.483268,-0.2336 -0.972517,-0.47028 -1.461767,-0.70673 -0.0095,0.0157 -0.01904,0.0313 -0.02858,0.047 0.215152,0.44369 0.430304,0.88739 0.637811,1.31518 0.500574,0.24285 0.978476,0.47479 1.456378,0.70672 0.01144,-0.0138 0.02291,-0.0273 0.03438,-0.0408" style="fill:#ac9573;fill-opacity:1;fill-rule:nonzero;stroke:none;stroke-width:0.00237396" />
      <path id="path95" d="m -32.709939,148.34814 c 0.168456,-0.51112 0.336912,-1.02223 0.505202,-1.53287 -0.171139,-0.46363 -0.340925,-0.92347 -0.510734,-1.38355 -0.01671,-7.1e-4 -0.03342,-0.001 -0.05012,-0.002 -0.167389,0.51159 -0.334752,1.02318 -0.504111,1.54094 0.170759,0.4615 0.340853,0.9211 0.510924,1.38094 0.01629,-0.001 0.03257,-0.002 0.04884,-0.003" style="fill:#ac9573;fill-opacity:1;fill-rule:nonzero;stroke:none;stroke-width:0.00237396" />
      <path id="path96" d="m -31.394219,148.5796 c -0.207959,-0.4285 -0.427147,-0.88003 -0.646359,-1.3318 -0.01388,0.006 -0.0278,0.0112 -0.04169,0.0166 -0.116158,0.5282 -0.232292,1.05665 -0.349661,1.59031 0.223533,0.46174 0.436358,0.9014 0.675321,1.39494 0.126556,-0.58328 0.24091,-1.1103 0.362385,-1.67008" style="fill:#ac9573;fill-opacity:1;fill-rule:nonzero;stroke:none;stroke-width:0.00237396" />
      <path id="path97" d="m -32.664027,134.2931 c 0.0104,0.0147 0.02079,0.0294 0.03119,0.0442 0.503755,-0.18731 1.007486,-0.37461 1.514588,-0.56334 0.235924,-0.43396 0.538367,-0.8278 0.776475,-1.31067 -0.463374,0.17211 -0.867493,0.3409 -1.284218,0.46838 -0.198487,0.0608 -0.321791,0.16191 -0.420476,0.3345 -0.198297,0.34659 -0.410885,0.68512 -0.617562,1.02697" style="fill:#ac9573;fill-opacity:1;fill-rule:nonzero;stroke:none;stroke-width:0.00237396" />
      <path id="path98" d="m -33.501323,146.43662 c 0.132515,-0.26517 0.241503,-0.54577 0.402672,-0.79195 0.286679,-0.43823 0.358871,-0.8843 0.177833,-1.37903 -0.06177,-0.16879 -0.07765,-0.3542 -0.118176,-0.53106 -0.01558,-0.0679 0.01498,-0.1536 -0.08385,-0.20653 -0.243425,0.48761 -0.486187,0.97403 -0.726882,1.45618 0.102744,0.49426 0.203234,0.97784 0.303748,1.46142 0.01488,-0.003 0.02977,-0.006 0.04465,-0.009" style="fill:#ac9573;fill-opacity:1;fill-rule:nonzero;stroke:none;stroke-width:0.00237396" />
      <path id="path99" d="m -32.937887,148.44428 c 0.01033,-0.0112 0.02063,-0.0223 0.03096,-0.0332 -0.169501,-0.46221 -0.339001,-0.92418 -0.509618,-1.38948 -0.464157,-0.28321 -0.925441,-0.56476 -1.386725,-0.84608 -0.01344,0.01 -0.02687,0.0195 -0.04031,0.0294 0.173893,0.45842 0.347002,0.91706 0.522509,1.375 0.02699,0.0703 0.07836,0.13532 0.151363,0.14885 0.119292,0.0221 0.207769,0.0959 0.305149,0.1536 0.310585,0.18445 0.618013,0.37413 0.926676,0.56191" style="fill:#ac9573;fill-opacity:1;fill-rule:nonzero;stroke:none;stroke-width:0.00237396" />
      <path id="path100" d="m -1.297619,138.90666 c 0.08522,0.40879 0.169264,0.81783 0.257813,1.24727 0.06718,-0.0636 0.136739,-0.10469 0.1695,-0.16522 0.211756,-0.39076 0.415443,-0.78578 0.627437,-1.19054 -0.103742,-0.50257 -0.203448,-0.98425 -0.315262,-1.52575 -0.26161,0.51776 -0.495207,0.97926 -0.728093,1.44076 -0.03158,0.0624 -0.02516,0.12724 -0.01139,0.19348" style="fill:#ac9573;fill-opacity:1;fill-rule:nonzero;stroke:none;stroke-width:0.00237396" />
      <path id="path101" d="m -34.243542,142.35127 c 0.350539,-0.40191 0.701101,-0.80382 1.046442,-1.1998 0.01505,-0.50684 0.07212,-0.99872 0.05862,-1.5331 -0.391087,0.44987 -0.752119,0.86507 -1.096699,1.26128 -0.01633,0.50827 -0.06991,0.9814 -0.05676,1.45667 0.01614,0.005 0.03226,0.01 0.0484,0.015" style="fill:#ac9573;fill-opacity:1;fill-rule:nonzero;stroke:none;stroke-width:0.00237396" />
      <path id="path102" d="m -33.189123,143.21207 c 0.05997,-0.0845 0.0673,-0.17923 0.0617,-0.28084 -0.02395,-0.43491 -0.04299,-0.87006 -0.06383,-1.3052 -0.01565,-0.004 -0.03129,-0.009 -0.04694,-0.0138 -0.316663,0.44702 -0.63335,0.89403 -0.948636,1.33915 0.06267,0.49307 0.03511,0.98021 0.111339,1.50818 0.316497,-0.44536 0.601728,-0.84632 0.886366,-1.24752" style="fill:#ac9573;fill-opacity:1;fill-rule:nonzero;stroke:none;stroke-width:0.00237396" />
      <path id="path103" d="m -1.118147,140.88891 c 0.02492,0.47788 0.05056,0.97261 0.07928,1.52504 0.351821,-0.49379 0.666372,-0.93535 0.984957,-1.3826 -0.02659,-0.43538 -0.05294,-0.87101 -0.07928,-1.30663 -0.22434,0.0166 -0.333067,0.14576 -0.984956,1.16419" style="fill:#ac9573;fill-opacity:1;fill-rule:nonzero;stroke:none;stroke-width:0.00237396" />
      <path id="path104" d="m -20.796383,125.15834 c -1.375948,0.24072 -2.675691,0.63598 -3.929025,1.19647 0.03179,0.10612 0.08674,0.17449 0.164042,0.25022 1.203954,-0.53628 2.46144,-0.91398 3.764983,-1.149 0,-0.10089 0,-0.18042 0,-0.29769" style="fill:#ac9573;fill-opacity:1;fill-rule:nonzero;stroke:none;stroke-width:0.00237396" />
      <path id="path105" d="m -10.938037,126.61049 c 0.05959,-0.0902 0.107066,-0.16167 0.164041,-0.24784 -1.27268,-0.57094 -2.572424,-0.96715 -3.921782,-1.1979 -0.0546,0.10588 -0.04463,0.19158 -0.0066,0.29247 1.286687,0.23644 2.537764,0.60963 3.76439,1.15327" style="fill:#ac9573;fill-opacity:1;fill-rule:nonzero;stroke:none;stroke-width:0.00237396" />
      <path id="path106" d="m -2.038294,136.17589 c -0.09971,-0.28013 -0.269208,-0.52916 -0.369151,-0.80762 -0.133891,-0.37319 -0.376748,-0.60987 -0.749697,-0.75184 -0.333542,-0.12677 -0.646904,-0.30647 -0.969288,-0.46268 -0.0095,0.0102 -0.01923,0.0204 -0.02872,0.0309 0.217217,0.4482 0.434435,0.8964 0.651177,1.34366 0.482627,0.23194 0.95813,0.46031 1.433398,0.68868 0.01781,0.0116 0.03584,0.0204 0.05555,0.004 0.01163,-0.0249 -0.0024,-0.0368 -0.02326,-0.0449" style="fill:#ac9573;fill-opacity:1;fill-rule:nonzero;stroke:none;stroke-width:0.00237396" />
      <path id="path107" d="m -25.785618,154.40909 c -0.0042,0.0304 0.002,0.0446 0.03178,0.0242 -0.0029,-0.0188 -0.01303,-0.0271 -0.03178,-0.0242" style="fill:#ac9573;fill-opacity:1;fill-rule:nonzero;stroke:none;stroke-width:0.00237396" />
      <path id="path108" d="m -31.372141,134.16491 c -0.02514,-0.0142 -0.03739,0.001 -0.04816,0.0207 -0.491718,0.20796 -0.963187,0.45746 -1.443178,0.68868 -0.214748,0.44963 -0.426483,0.89309 -0.638193,1.3363 0.01355,0.008 0.02711,0.015 0.04067,0.0225 0.48747,-0.23739 0.974915,-0.47503 1.456355,-0.70957 0.212659,-0.44061 0.420119,-0.8703 0.62758,-1.29998 -1.8e-5,-2.4e-4 -5.4e-5,-2.4e-4 -7.2e-5,-2.4e-4 0.0119,-0.0185 0.0202,-0.0375 0.0051,-0.0584" style="fill:#ac9573;fill-opacity:1;fill-rule:nonzero;stroke:none;stroke-width:0.00237396" />
      <path id="path109" d="m -17.754153,127.47627 c -7.686101,0 -13.939209,6.25301 -13.939209,13.93942 0,7.68594 6.253108,13.93919 13.939209,13.93919 7.686173,0 13.939424,-6.25325 13.939424,-13.93919 0,-7.68641 -6.253251,-13.93942 -13.939424,-13.93942 z m 0,28.27126 c -7.902584,0 -14.331862,-6.42916 -14.331862,-14.33184 0,-7.90291 6.429278,-14.33207 14.331862,-14.33207 7.902917,0 14.332076,6.42916 14.332076,14.33207 0,7.90268 -6.429159,14.33184 -14.332076,14.33184" style="fill:#ac9573;fill-opacity:1;fill-rule:nonzero;stroke:none;stroke-width:0.00237396" />
      <path id="path110" d="m -13.82145,153.05689 0.01116,-0.25164 c -3.652339,-0.11538 -3.272981,-1.17654 -3.272981,-1.17654 l 0.686789,0.0304 0.0254,-0.57212 0.960981,0.0425 0.02991,-0.67516 -1.751035,-0.0774 c 0.475743,-0.12819 0.206772,-0.52987 0.02327,-0.52654 0.30909,-0.24001 0.615092,-0.56619 0.656162,-0.97404 0.06458,-0.64073 -0.551233,-1.22401 -1.159679,-1.26224 -0.353721,-0.0221 -0.740438,0.0767 -1.006085,0.32001 -0.175674,0.16096 -0.322858,0.36346 -0.381021,0.59753 -0.122496,0.49165 0.198225,0.94104 0.540551,1.25915 -0.182796,-0.0195 -0.474554,0.35752 -0.02326,0.52655 l -1.751033,-0.0774 -0.02968,0.67516 0.97285,0.043 -0.0254,0.57212 0.674917,0.0297 c 0,0 0.296034,1.09108 -3.363901,0.88336 l -0.01092,0.25164 -1.758867,0.0942 -0.01567,0.3549 11.706712,0.51729 0.01567,-0.35467 -1.754832,-0.24974" style="fill:#ac9573;fill-opacity:1;fill-rule:evenodd;stroke:none;stroke-width:0.00237396" />
      <path id="path111" d="m -10.359978,145.20549 c 0.601326,0.70008 1.351021,1.08822 1.959469,1.12834 -0.535093,0.13199 -1.394703,-0.0375 -1.959469,-1.12834 z m -0.692483,-0.26589 v 0.33022 c 0.984956,0 0.796939,1.29144 2.59094,1.29144 1.794239,0 1.606222,-1.29144 2.591178,-1.29144 v -0.33022 h -5.182118" style="fill:#ac9573;fill-opacity:1;fill-rule:evenodd;stroke:none;stroke-width:0.00237396" />
      <path id="path112" d="m -8.370361,144.68084 h -0.18232 v -7.04876 l -1.539987,7.04876 h -0.189918 l 1.63376,-7.47821 h 0.374611 l 1.633759,7.47821 H -6.83061 l -1.539751,-7.04853 v 7.04853 0" style="fill:#ac9573;fill-opacity:1;fill-rule:evenodd;stroke:none;stroke-width:0.00237396" />
      <path id="path113" d="m -28.945218,145.20549 c 0.601324,0.70008 1.350902,1.08822 1.959324,1.12834 -0.534948,0.13199 -1.394723,-0.0375 -1.959324,-1.12834 z m -0.692508,-0.26589 v 0.33022 c 0.984981,0 0.796938,1.29144 2.590775,1.29144 1.794287,0 1.606221,-1.29144 2.591226,-1.29144 v -0.33022 h -5.182001" style="fill:#ac9573;fill-opacity:1;fill-rule:evenodd;stroke:none;stroke-width:0.00237396" />
      <path id="path114" d="m -26.955601,144.68084 h -0.182345 v -7.04876 l -1.539987,7.04876 h -0.190036 l 1.633831,-7.47821 h 0.374564 l 1.633831,7.47821 h -0.190132 l -1.539726,-7.04853 v 7.04853 0" style="fill:#ac9573;fill-opacity:1;fill-rule:evenodd;stroke:none;stroke-width:0.00237396" />
      <path id="path115" d="m -19.255446,139.20506 c 0.364641,0.49236 0.542451,1.19933 0.669695,2.00505 0.07336,-0.39075 0.169026,-0.77344 0.300781,-1.13998 0.140538,-0.41544 0.315263,-0.80121 0.520846,-1.15873 -1.725869,-2.82952 -5.517322,-3.4128 -10.667891,-2.51782 2.46657,1.14045 6.073565,-0.76916 9.176569,2.81148" style="fill:#ac9573;fill-opacity:1;fill-rule:nonzero;stroke:none;stroke-width:0.00237396" />
      <path id="path116" d="m -16.655008,143.32721 c -0.143626,0.94697 -0.358469,1.92314 -0.806909,2.77682 0.53319,0.94721 1.387104,1.70878 2.821451,2.06535 -1.68575,-1.00466 -1.851927,-2.89481 -2.014542,-4.84217" style="fill:#ac9573;fill-opacity:1;fill-rule:nonzero;stroke:none;stroke-width:0.00237396" />
      <path id="path117" d="m -6.790015,136.39358 c -5.834959,-1.01392 -9.926241,-0.13128 -11.245214,3.76629 -0.981396,2.73172 0.07952,6.44483 -2.546311,8.00951 4.800624,-1.19339 3.103242,-6.92224 4.614979,-8.96432 3.103005,-3.58064 6.710002,-1.67103 9.176546,-2.81148" style="fill:#ac9573;fill-opacity:1;fill-rule:nonzero;stroke:none;stroke-width:0.00237396" />
      <path id="path118" d="m -19.096152,136.71145 1.485149,-2.59901 1.326095,2.43996 -1.326095,1.32609 -1.485149,-1.16704" style="fill:#ac9573;fill-opacity:1;fill-rule:nonzero;stroke:none;stroke-width:0.00237396" />
    </g>
  </g>
</svg>
