<?xml version="1.0" encoding="UTF-8" standalone="no"?>
<svg width="35mm" height="35mm" viewBox="0 0 35 35" version="1.1" id="svg1" sodipodi:docname="favicon.svg" inkscape:version="1.3.1 (9b9bdc1480, 2023-11-25, custom)" xmlns:inkscape="http://www.inkscape.org/namespaces/inkscape" xmlns:sodipodi="http://sodipodi.sourceforge.net/DTD/sodipodi-0.dtd" xmlns="http://www.w3.org/2000/svg" xmlns:svg="http://www.w3.org/2000/svg">
  <sodipodi:namedview id="namedview1" pagecolor="#ffffff" bordercolor="#000000" borderopacity="0.25" inkscape:showpageshadow="2" inkscape:pageopacity="0.0" inkscape:pagecheckerboard="0" inkscape:deskcolor="#d1d1d1" inkscape:document-units="mm" inkscape:zoom="2.207381" inkscape:cx="149.72495" inkscape:cy="116.88059" inkscape:window-width="1878" inkscape:window-height="1043" inkscape:window-x="26" inkscape:window-y="23" inkscape:window-maximized="0" inkscape:current-layer="svg1" />
  <defs id="defs1" />
  <g id="g2" transform="matrix(1.6116451,0,0,1.5664215,-187.82546,-134.19924)" style="fill:#ac9573;fill-opacity:1">
    <path id="path2" d="m 127.43869,87.666399 c 5.10205,2.28379 7.34033,8.905069 7.70533,11.688734 -3.69423,2.223737 -11.83116,2.567297 -15.47098,-0.08847 0.0724,-2.640543 3.222,-9.861115 7.76565,-11.600262 z m 4.11402,14.011831 0.13377,0.48223 0.30478,-0.086 c 0.0796,-0.0225 0.1376,-0.0574 0.17392,-0.10448 0.044,-0.058 0.0532,-0.13317 0.0276,-0.22556 -0.0194,-0.0704 -0.0581,-0.11689 -0.116,-0.13959 -0.0725,-0.0294 -0.17753,-0.0244 -0.31505,0.0144 z m -3.27313,0.54713 0.0436,0.44542 0.30567,-0.0305 c 0.12749,-0.0126 0.21494,-0.0444 0.26189,-0.0952 0.0357,-0.0392 0.0502,-0.0909 0.044,-0.15546 -0.007,-0.0726 -0.0394,-0.12593 -0.0968,-0.16021 -0.0574,-0.0341 -0.12723,-0.0471 -0.20962,-0.0388 z m 2.42751,-0.85429 1.03051,-0.29112 c 0.30886,-0.0873 0.55794,-0.0873 0.74768,1.2e-4 0.18945,0.0872 0.31893,0.25552 0.38803,0.50445 0.0597,0.21515 0.0448,0.40135 -0.0445,0.55871 -0.10807,0.19115 -0.32151,0.33134 -0.64026,0.4215 l -0.36147,0.1021 0.18815,0.67815 -0.70493,0.19921 z m -8.50338,-0.48665 0.70912,0.19647 -0.19145,0.70332 0.81673,-0.53015 0.82283,0.22789 -1.00745,0.60375 0.50178,1.59657 -0.84671,-0.23472 -0.2848,-1.01039 -0.21501,0.1288 -0.18829,0.69105 -0.7089,-0.19642 z m 3.37767,0.73534 0.73078,0.0822 -0.24754,2.24275 -0.7309,-0.0821 z m 1.91816,0.15491 1.07758,-0.10755 c 0.38077,-0.0378 0.65158,0 0.81236,0.11408 0.12083,0.0866 0.19096,0.22942 0.21046,0.42882 0.0151,0.15346 -0.007,0.27948 -0.0674,0.37803 -0.0601,0.0981 -0.14428,0.16738 -0.25249,0.20758 0.1776,0.0515 0.2899,0.11619 0.33714,0.1943 0.0471,0.078 0.0788,0.2003 0.0951,0.36643 l 0.0172,0.17433 c 0.008,0.0811 0.0191,0.13761 0.0337,0.16978 0.0146,0.032 0.0363,0.0466 0.065,0.0437 l 0.007,0.0654 -0.73487,0.0733 c -0.0215,-0.0502 -0.0472,-0.17931 -0.0769,-0.38695 -0.0297,-0.20787 -0.087,-0.32214 -0.17221,-0.34294 -0.0468,-0.0101 -0.0982,-0.0148 -0.15423,-0.0146 -0.0561,4.8e-4 -0.12839,0.005 -0.21693,0.0138 l -0.10814,0.0108 0.077,0.78489 -0.72866,0.0727 z m 0.18565,-14.78608 c 5.06096,2.410127 8.40952,9.59276 8.52538,15.25787 -4.80658,2.8983 -12.42447,3.29126 -17.61889,0 0.23172,-7.873669 5.25392,-13.929962 8.53365,-15.256377 0.30307,-0.122596 0.36365,-0.05902 0.55986,-0.0014" style="fill:#ac9573;fill-opacity:1;fill-rule:evenodd;stroke:none;stroke-width:0.240419" />
    <path id="path3" d="m 127.50418,106.60639 0.64074,-1.32894 0.85296,-0.0418 -0.76021,0.77063 1.15726,-0.89046 0.69616,-0.0605 -0.13909,0.31437 c 0.30123,-0.28547 0.63945,-0.4716 0.96199,-0.51146 l -0.0688,0.22789 c 0.47569,-0.30048 0.94381,-0.46377 1.40349,-0.46158 l -0.19639,0.28677 0.36233,-0.0341 c 0.58985,-0.76247 1.73451,-1.34945 4.08972,-2.02822 l -0.2172,0.28773 -2.85843,1.4623 c 0.55801,0.0468 2.17822,-0.92751 2.69671,-1.23359 -0.68887,1.48812 -1.90809,2.10537 -3.65769,1.85123 -0.98682,-0.0799 -1.59335,0.0595 -2.22736,0.53144 1.18274,-0.35608 2.45491,-0.42205 3.69709,-0.0579 -1.60951,1.41465 -1.56964,1.71546 -4.11097,0.62451 -1.1077,-0.42376 -1.66348,0.023 -2.32228,0.29156" style="fill:#ac9573;fill-opacity:1;fill-rule:evenodd;stroke:none;stroke-width:0.240419" />
    <path id="path4" d="m 126.83017,105.2988 0.56986,1.00274 0.57227,-1.01522 -0.48278,0.005 c -0.003,0.0876 0.0528,0.0931 0.0528,0.18269 0,0.0626 -0.0547,0.13229 -0.12199,0.13229 -0.0673,0 -0.12184,-0.0694 -0.12184,-0.13229 0,-0.0921 0.0498,-0.0929 0.0415,-0.18139 z" style="fill:#ac9573;fill-opacity:1;fill-rule:evenodd;stroke:none;stroke-width:0.240419" />
    <path id="path5" d="m 127.29086,106.60639 -0.64089,-1.32901 -0.85281,-0.0417 0.76027,0.77071 -1.15725,-0.89032 -0.69623,-0.0605 0.13896,0.31415 c -0.30103,-0.28548 -0.63925,-0.47158 -0.96187,-0.51147 l 0.0689,0.22804 c -0.47554,-0.30055 -0.94393,-0.46389 -1.4034,-0.46165 l 0.19621,0.28677 -0.36229,-0.034 c -0.58972,-0.76254 -1.7345,-1.34952 -4.08964,-2.0283 l 0.21719,0.28773 2.85837,1.4623 c -0.55794,0.0467 -2.17822,-0.92765 -2.69678,-1.23366 0.68902,1.4882 1.90821,2.10531 3.6577,1.8513 0.98688,-0.0799 1.59348,0.0595 2.22749,0.53125 -1.18282,-0.35588 -2.45499,-0.42186 -3.69717,-0.0577 1.60944,1.41465 1.56958,1.71535 4.11098,0.62452 1.10778,-0.42381 1.66348,0.0229 2.32228,0.29155" style="fill:#ac9573;fill-opacity:1;fill-rule:evenodd;stroke:none;stroke-width:0.240419" />
    <path id="path6" d="m 127.35675,107.06797 c -0.87067,-1.0885 -2.05377,-0.94538 -3.76863,-0.004 1.19387,0.89939 2.86687,0.80303 3.76863,0.004" style="fill:#ac9573;fill-opacity:1;fill-rule:evenodd;stroke:none;stroke-width:0.240419" />
    <path id="path7" d="m 131.7464,89.629951 -0.20712,-0.156875 c -1.14315,-1.269987 -2.4442,-2.307779 -3.87359,-2.988334 -0.0455,-0.01322 -0.0841,-0.02699 -0.12001,-0.03885 l -0.01,-0.0072 c 0.82339,0.181559 1.64679,0.514132 2.47018,0.949796 l -2.14842,-1.402892 c 1.01498,0.207122 2.02952,0.414169 3.04421,0.621264 0.26503,1.609921 1.12081,2.773573 2.64886,3.492715 -1.42318,-0.988677 -2.33286,-2.162837 -2.34668,-3.351971 1.71003,0.658652 3.13006,1.624293 3.01408,2.764434 -0.13644,1.61422 0.16984,2.376133 0.97182,2.867162 l 0.0326,-0.03162 c -0.90961,-1.149831 -1.06008,-2.195945 -0.74716,-3.270592 1.0954,0.942927 1.67399,1.674445 1.53277,2.190894 -0.33243,1.322374 -0.34967,2.619769 -0.16813,3.673569 -0.72613,-0.445014 -1.39551,-1.033028 -1.68206,-1.798544 l 0.73159,-0.07157 -0.91717,-0.150673 c -0.17746,-0.319154 -0.36229,-0.633048 -0.55482,-0.93999 l 1.03467,0.146994 -1.29384,-0.549169 c -0.13023,-0.197138 -0.2636,-0.391305 -0.39991,-0.582003 l 0.42703,-0.269991 -0.59657,0.03653 c -0.18293,-0.247662 -0.3713,-0.489187 -0.56428,-0.724319 l 0.88464,0.177143 -1.15957,-0.58828 c -10e-4,6.82e-4 -0.003,0.0014 -0.003,0.0027 z m 4.99785,11.728599 c 0.0113,-1.376571 0.39174,-2.537504 1.51538,-3.788067 -0.014,1.424531 -0.52964,2.660937 -1.51538,3.788067 z m -0.44937,-2.311729 c 0.29134,-0.451768 1.283,-1.247701 1.63756,-1.375074 -0.52024,0.700796 -1.00076,1.566236 -1.44164,2.372783 -0.0566,-0.331192 -0.12199,-0.663984 -0.19592,-0.997709 z m -1.53387,-4.56683 1.4923,0.8645 c -0.48088,-1.297854 -0.57308,-2.603617 0.10283,-3.924982 1.21193,1.946307 1.1694,2.403657 -0.0177,4.668024 l -0.008,1.414261 c 0.13019,-1.157689 0.49438,-2.136654 1.20027,-2.854351 0.83832,1.619175 0.23751,2.917513 -1.3116,4.06979 -0.33919,-1.428013 -0.8311,-2.864832 -1.4585,-4.237242" style="fill:#ac9573;fill-opacity:1;fill-rule:evenodd;stroke:none;stroke-width:0.240419" />
    <path id="path8" d="m 127.43828,107.06797 c 0.87068,-1.08857 2.0539,-0.94545 3.76864,-0.004 -1.19392,0.89945 -2.86683,0.80303 -3.76864,0.004" style="fill:#ac9573;fill-opacity:1;fill-rule:evenodd;stroke:none;stroke-width:0.240419" />
    <path id="path9" d="m 118.05807,101.35855 c -0.0112,-1.376571 -0.39166,-2.537504 -1.51538,-3.788067 0.0142,1.424531 0.53,2.660937 1.51538,3.788067 z m 4.99788,-11.728599 0.20717,-0.156875 c 1.14307,-1.269987 2.44414,-2.307779 3.87358,-2.988334 0.0453,-0.01322 0.084,-0.02699 0.12009,-0.03885 l 0.009,-0.0072 c -0.82353,0.181559 -1.6467,0.514132 -2.47016,0.949796 l 2.14828,-1.402941 c -1.01488,0.207122 -2.02951,0.414169 -3.04413,0.621264 -0.26504,1.609921 -1.12079,2.773573 -2.64879,3.492715 1.42332,-0.988677 2.33278,-2.162837 2.34661,-3.351971 -1.70996,0.658652 -3.13013,1.624293 -3.01401,2.764434 0.13631,1.61422 -0.16988,2.376133 -0.97195,2.867162 l -0.0324,-0.03162 c 0.90948,-1.149831 1.05997,-2.195945 0.74701,-3.270592 -1.09525,0.942927 -1.67399,1.674445 -1.53284,2.190894 0.33264,1.322374 0.34981,2.619769 0.1682,3.673569 0.7262,-0.445014 1.39536,-1.033028 1.68209,-1.798544 l -0.73167,-0.07157 0.91729,-0.150673 c 0.17753,-0.319154 0.36237,-0.633048 0.55475,-0.93999 l -1.03452,0.146994 1.29369,-0.549169 c 0.13024,-0.197138 0.26362,-0.391305 0.39991,-0.582003 l -0.42703,-0.269991 0.59665,0.03653 c 0.18293,-0.247658 0.37123,-0.489183 0.56436,-0.724315 l -0.88472,0.177143 1.15957,-0.58828 c 0.001,6.82e-4 0.003,0.0014 0.003,0.0027 z m -3.01464,4.85004 -1.49221,0.8645 c 0.48072,-1.297854 0.573,-2.603617 -0.10292,-3.924982 -1.21183,1.946307 -1.16933,2.403657 0.0178,4.668024 l 0.007,1.414261 c -0.13016,-1.157689 -0.49438,-2.136654 -1.20027,-2.854351 -0.83838,1.619175 -0.23751,2.917513 1.31163,4.06979 0.33919,-1.428013 0.83101,-2.864832 1.45848,-4.237242 z m -1.53392,4.56683 c -0.29126,-0.451768 -1.28288,-1.247701 -1.63774,-1.375074 0.52042,0.700796 1.00102,1.566236 1.44173,2.372783 0.0567,-0.331192 0.12213,-0.663984 0.19601,-0.997709" style="fill:#ac9573;fill-opacity:1;fill-rule:evenodd;stroke:none;stroke-width:0.240419" />
    <path id="path10" d="m 125.14387,90.975912 c 0,-0.593568 0.20457,-1.094889 0.61586,-1.50182 0.40924,-0.409031 0.94927,-0.612474 1.62212,-0.612474 0.98926,0 1.67055,0.325098 2.04599,0.977425 0.19621,0.339858 0.30163,0.782419 0.31433,1.327764 h -1.08211 c -0.0295,-0.390153 -0.097,-0.677474 -0.20457,-0.862093 -0.19411,-0.335579 -0.5337,-0.503365 -1.01885,-0.503365 -0.38813,0 -0.68341,0.09016 -0.88801,0.272683 -0.20457,0.182424 -0.30586,0.425803 -0.30586,0.729957 0,0.176155 0.038,0.335552 0.11396,0.476077 0.0759,0.142639 0.1919,0.266407 0.34382,0.371303 0.30368,0.209767 0.8458,0.53068 1.62415,0.964851 1.38582,0.771888 2.07771,1.5858 2.07771,2.447826 0,0.486654 -0.14769,0.912457 -0.44509,1.27749 -0.16875,0.209691 -0.45567,0.457199 -0.85849,0.744596 0.21724,0.199217 0.38599,0.419465 0.5062,0.656491 0.12028,0.237027 0.17931,0.492999 0.17931,0.767706 0,0.553803 -0.21727,1.03202 -0.64966,1.434774 -0.43242,0.404817 -1.01457,0.606187 -1.74862,0.606187 -0.96821,0 -1.64528,-0.31048 -2.03128,-0.933451 -0.21515,-0.335572 -0.34593,-0.811724 -0.39022,-1.426303 h 1.09891 c 0.0338,0.40058 0.1055,0.69642 0.21734,0.885122 0.19613,0.339879 0.53995,0.509784 1.03139,0.509784 0.32065,0 0.57797,-0.04409 0.77199,-0.130113 0.36284,-0.159396 0.54426,-0.459319 0.54426,-0.901907 0,-0.188824 -0.0549,-0.365006 -0.16664,-0.52856 -0.0654,-0.09023 -0.15824,-0.184619 -0.27844,-0.283239 -0.0654,-0.05241 -0.28053,-0.203421 -0.64334,-0.448837 -0.21304,-0.142646 -0.41763,-0.28112 -0.61173,-0.411144 l -1.09892,-0.732077 c -0.43663,-0.289434 -0.74884,-0.543225 -0.93447,-0.755105 -0.3248,-0.364931 -0.4872,-0.773982 -0.4872,-1.229164 0,-0.394311 0.12232,-0.748835 0.36485,-1.067627 0.24264,-0.316776 0.56321,-0.595708 0.95766,-0.836898 -0.18134,-0.165721 -0.32057,-0.341971 -0.41974,-0.528635 -0.11182,-0.239146 -0.16661,-0.490811 -0.16661,-0.757224 z m 3.32422,5.598343 c 0.24261,-0.138406 0.42191,-0.276812 0.53791,-0.417338 0.20457,-0.241191 0.30798,-0.541181 0.30798,-0.89775 0,-0.318869 -0.10972,-0.591551 -0.32692,-0.815956 -0.13714,-0.140526 -0.41136,-0.335654 -0.82899,-0.591483 l -1.79711,-1.092869 c -0.24263,0.130044 -0.42193,0.258017 -0.53791,0.381784 -0.21727,0.228635 -0.32692,0.507595 -0.32692,0.834832 0,0.176175 0.0274,0.331415 0.0801,0.467736 0.10333,0.249552 0.29531,0.463551 0.57369,0.643938 z" style="fill:#ac9573;fill-opacity:1;fill-rule:evenodd;stroke:none;stroke-width:0.240419" />
  </g>
</svg>
