<?xml version="1.0" encoding="UTF-8" standalone="no"?>

<svg width="174mm" height="15mm" viewBox="0 0 174 15" version="1.1" id="svg1" xmlns="http://www.w3.org/2000/svg" xmlns:svg="http://www.w3.org/2000/svg">
  <defs id="defs1" />
  <g id="layer1">
    <path d="m 2.962436,6.927456 q 0,0.32864 0.03459,0.53621 0.03459,0.20756 0.138377,0.31999 0.103782,0.11243 0.285401,0.15568 0.181619,0.0346 0.484317,0.0346 v 0.32864 H 1.103 v -0.32864 q 0.302698,0 0.484316,-0.0346 0.190268,-0.0432 0.29405,-0.14703 0.103783,-0.11243 0.138377,-0.3027 0.03459,-0.19891 0.03459,-0.50161 v -4.03022 q 0,-0.32864 -0.04325,-0.51891 Q 1.976493,2.239956 1.872706,2.136176 1.777576,2.032386 1.613251,2.006446 1.448929,1.971856 1.189473,1.971856 V 1.643213 h 2.629152 v 0.328643 q -0.259456,0 -0.423778,0.03459 -0.164322,0.0346 -0.268104,0.14702 -0.09514,0.11243 -0.129728,0.32 -0.03459,0.19891 -0.03459,0.54486 v 2.13618 l 2.162131,-2.60321 q 0.172971,-0.21621 0.172971,-0.33729 0,-0.242157 -0.492966,-0.242157 V 1.643206 h 2.084295 v 0.319995 q -0.17297,0 -0.302699,0.02594 -0.129728,0.0173 -0.259456,0.0865 -0.121079,0.0692 -0.259455,0.19891 -0.138376,0.12973 -0.319996,0.33729 l -1.625923,1.87672 2.52537,3.03563 q 0.216213,0.25081 0.40648,0.35459 0.190268,0.0951 0.510263,0.0951 v 0.32864 H 4.908343 v -0.32864 q 0.337293,0 0.484317,-0.0519 0.147029,-0.0605 0.147029,-0.18161 0,-0.0692 -0.06918,-0.19891 -0.06919,-0.12973 -0.224861,-0.32 L 3.559186,5.145821 2.962437,5.837701 Z m 8.70906,-1.03783 H 9.36234 q -0.147025,0.35459 -0.250808,0.63135 -0.103782,0.2681 -0.17297,0.46702 -0.06054,0.19891 -0.08648,0.33729 -0.02595,0.13838 -0.02595,0.22486 0,0.24216 0.155674,0.33729 0.155674,0.0865 0.518912,0.0865 v 0.32865 H 7.399126 v -0.32865 q 0.198916,-0.026 0.337292,-0.0692 0.147025,-0.0433 0.250808,-0.12108 0.11243,-0.0778 0.190267,-0.19891 0.08648,-0.12973 0.164322,-0.31135 l 2.248617,-5.630188 h 0.371887 l 1.963215,4.877768 q 0.198916,0.48432 0.345941,0.77837 0.147025,0.2854 0.285401,0.43242 0.138377,0.14703 0.29405,0.19027 0.164322,0.0433 0.389184,0.0433 v 0.33729 h -2.819421 v -0.33729 q 0.458373,0 0.631343,-0.0865 0.172971,-0.0865 0.172971,-0.2854 0,-0.0865 -0.0087,-0.15567 -0.0087,-0.0778 -0.03459,-0.16432 -0.0173,-0.0865 -0.06054,-0.19027 -0.03459,-0.11243 -0.09513,-0.25946 z M 9.53531,5.457206 h 1.971864 l -0.959987,-2.55132 z m 10.594438,2.93185 -4.10805,-5.41398 h -0.03459 v 3.69292 q 0,0.43243 0.02595,0.68324 0.03459,0.2508 0.12108,0.38918 0.09513,0.13837 0.259456,0.18162 0.17297,0.0433 0.449723,0.0519 v 0.32864 h -2.326458 v -0.32864 q 0.302698,-0.009 0.484317,-0.0519 0.190268,-0.0519 0.29405,-0.18162 0.103782,-0.12973 0.138376,-0.36324 0.03459,-0.24215 0.03459,-0.64864 v -3.5113 q 0,-0.36324 -0.03459,-0.59675 -0.02595,-0.24216 -0.121079,-0.38053 -0.08648,-0.13838 -0.259456,-0.19027 -0.17297,-0.0605 -0.449723,-0.07784 V 1.643202 h 1.712408 l 3.779406,5.042094 h 0.03459 v -3.40752 q 0,-0.42378 -0.03459,-0.67459 -0.02595,-0.25945 -0.121079,-0.39783 -0.08648,-0.13838 -0.259456,-0.18162 -0.164322,-0.04325 -0.441075,-0.05189 V 1.643202 h 2.326453 v 0.328644 q -0.302698,0.0087 -0.492966,0.06054 -0.181619,0.0432 -0.285401,0.17297 -0.103782,0.12973 -0.138377,0.37189 -0.03459,0.24216 -0.03459,0.63999 v 5.17182 z m 7.653924,-6.745852 h 0.242158 l 0.07784,1.989162 h -0.319995 q -0.190268,-0.76107 -0.735124,-1.1935 -0.544858,-0.43242 -1.314576,-0.43242 -0.527561,0 -0.94269,0.20756 -0.415129,0.20757 -0.70053,0.59675 -0.285401,0.38918 -0.441075,0.95134 -0.147026,0.56215 -0.147026,1.27133 0,1.39241 0.579453,2.14484 0.579451,0.74377 1.677813,0.74377 1.669165,0 2.144835,-1.77295 h 0.354589 v 2.15348 h -0.3027 l -0.198915,-0.68323 q -0.908096,0.76972 -2.196726,0.76972 -0.735125,0 -1.331872,-0.23351 -0.588101,-0.23351 -1.011879,-0.65729 -0.415128,-0.43243 -0.648639,-1.04647 -0.224862,-0.61405 -0.224862,-1.36647 0,-0.78701 0.24216,-1.43565 0.242158,-0.64864 0.674584,-1.11566 0.441075,-0.46702 1.046472,-0.717831 0.614045,-0.259457 1.349169,-0.259457 0.518913,0 0.977284,0.147026 0.458372,0.147025 0.994581,0.475672 z m 3.225885,3.001042 q 0.46702,0 0.778366,-0.0519 0.319996,-0.0605 0.501615,-0.18162 0.190268,-0.12108 0.268104,-0.31135 0.08648,-0.19027 0.08648,-0.44972 h 0.302698 v 2.36104 h -0.302698 q 0,-0.25945 -0.07784,-0.44972 -0.06919,-0.19027 -0.259456,-0.31135 -0.181619,-0.12972 -0.501614,-0.19026 -0.311348,-0.0692 -0.795664,-0.0692 v 1.95456 q 0,0.2854 0.06918,0.47567 0.06919,0.18162 0.233511,0.3027 0.17297,0.11243 0.449723,0.16432 0.276753,0.0433 0.683234,0.0433 0.458371,0 0.778366,-0.0605 0.319996,-0.0692 0.536209,-0.22486 0.216214,-0.15567 0.345942,-0.40648 0.129727,-0.25945 0.216213,-0.63999 h 0.328643 l -0.129728,1.70376 h -5.370734 v -0.32864 q 0.302699,-0.009 0.484317,-0.0519 0.190268,-0.0433 0.29405,-0.14703 0.103783,-0.10378 0.138376,-0.29405 0.03459,-0.19027 0.03459,-0.49296 v -4.03022 q 0,-0.3027 -0.03459,-0.48431 -0.02595,-0.19027 -0.121078,-0.29405 -0.08648,-0.11243 -0.259457,-0.14703 -0.17297,-0.0433 -0.449723,-0.06054 v -0.32865 h 4.998848 l 0.07784,1.52214 h -0.302691 q -0.05189,-0.34594 -0.17297,-0.56215 -0.112431,-0.22487 -0.319996,-0.35459 -0.198915,-0.12973 -0.510263,-0.18162 -0.311346,-0.0519 -0.752421,-0.0519 h -1.098363 q -0.147024,0 -0.147024,0.14702 z m 10.006341,3.65832 H 35.42895 v -0.32864 q 0.302698,-0.009 0.484317,-0.0519 0.190267,-0.0433 0.29405,-0.14703 0.103782,-0.10378 0.138377,-0.29405 0.03459,-0.19026 0.03459,-0.49296 v -4.03021 q 0,-0.3027 -0.03459,-0.48432 -0.02595,-0.19027 -0.12108,-0.29405 -0.08648,-0.11243 -0.259456,-0.14703 -0.17297,-0.0433 -0.449723,-0.06054 v -0.32863 h 2.629152 v 0.328643 q -0.276753,0.0087 -0.449724,0.05189 -0.164322,0.0433 -0.259455,0.15568 -0.08648,0.11243 -0.12108,0.31134 -0.02595,0.19892 -0.02595,0.52756 v 3.72752 q 0,0.36324 0.06919,0.59675 0.07784,0.22486 0.250807,0.35459 0.18162,0.12108 0.475669,0.17297 0.29405,0.0433 0.743773,0.0433 0.492966,0 0.830259,-0.0519 0.337292,-0.0605 0.562154,-0.19892 0.23351,-0.14702 0.363238,-0.39783 0.138377,-0.25946 0.23351,-0.66594 h 0.328644 z m 4.531822,-2.41294 h -2.309156 q -0.147025,0.35459 -0.250808,0.63135 -0.103782,0.2681 -0.17297,0.46702 -0.06054,0.19891 -0.08648,0.33729 -0.02595,0.13838 -0.02595,0.22486 0,0.24216 0.155674,0.33729 0.155674,0.0865 0.518912,0.0865 v 0.32865 h -2.101593 v -0.32865 q 0.198916,-0.026 0.337292,-0.0692 0.147025,-0.0433 0.250808,-0.12108 0.11243,-0.0778 0.190267,-0.19891 0.08648,-0.12973 0.164322,-0.31135 l 2.248617,-5.630188 h 0.371887 l 1.963215,4.877768 q 0.198916,0.48432 0.345941,0.77837 0.147025,0.2854 0.285401,0.43242 0.138377,0.14703 0.29405,0.19027 0.164322,0.0433 0.389183,0.0433 v 0.33729 h -2.81942 v -0.33729 q 0.458373,0 0.631343,-0.0865 0.17297,-0.0865 0.17297,-0.2854 0,-0.0865 -0.0087,-0.15567 -0.0087,-0.0778 -0.03459,-0.16432 -0.0173,-0.0865 -0.06054,-0.19027 -0.03459,-0.11243 -0.09513,-0.25946 z m -2.136186,-0.43242 h 1.971863 l -0.959986,-2.55132 z m 10.28309,-2.14484 q 0,0.69189 -0.415129,1.15026 -0.415129,0.45837 -1.323224,0.61404 l 1.911324,2.30051 q 0.23351,0.2854 0.510262,0.41513 0.285402,0.12108 0.674586,0.18162 v 0.32864 h -1.669165 l -2.118889,-2.71563 q -0.112432,-0.14703 -0.216214,-0.23351 -0.09513,-0.0865 -0.207564,-0.12973 -0.103782,-0.0519 -0.250807,-0.0605 -0.138377,-0.0173 -0.337293,-0.0173 v 1.79889 q 0,0.32 0.03459,0.52756 0.04325,0.19892 0.164322,0.31135 0.129728,0.11243 0.363238,0.15567 0.242159,0.0346 0.631343,0.0346 v 0.32864 h -3.05293 v -0.32864 q 0.302698,-0.009 0.484318,-0.0519 0.190268,-0.0433 0.294049,-0.14702 0.103782,-0.10379 0.138377,-0.29405 0.03459,-0.19027 0.03459,-0.49297 v -4.03021 q 0,-0.3027 -0.03459,-0.48432 -0.02595,-0.19027 -0.12108,-0.29405 -0.08648,-0.11243 -0.259455,-0.14703 -0.172971,-0.0433 -0.449724,-0.06054 v -0.32868 h 2.715637 q 1.193497,0 1.842137,0.44108 0.657287,0.44107 0.657287,1.22809 z m -3.442113,1.40106 h 0.614046 q 0.864852,0 1.279981,-0.31134 0.423778,-0.32 0.423778,-1.04647 0,-0.70053 -0.337292,-1.00323 -0.328644,-0.3027 -1.037824,-0.3027 h -0.795664 q -0.147025,0 -0.147025,0.14702 z m 6.815022,1.95457 q 0,0.43243 0.03459,0.68324 0.03459,0.2508 0.129728,0.38918 0.103781,0.13838 0.285401,0.18162 0.190267,0.0433 0.492965,0.0519 v 0.32864 h -2.802119 v -0.32864 q 0.302698,-0.009 0.484316,-0.0519 0.190268,-0.0519 0.29405,-0.18162 0.103783,-0.12973 0.138377,-0.36324 0.03459,-0.24215 0.03459,-0.64864 v -3.5113 q 0,-0.36324 -0.03459,-0.59675 -0.02595,-0.24216 -0.121079,-0.38053 -0.08648,-0.13838 -0.259456,-0.19027 -0.17297,-0.0605 -0.449723,-0.07784 V 1.643202 h 2.629151 v 0.328644 q -0.276753,0.0087 -0.449723,0.06918 -0.164322,0.0605 -0.259456,0.20756 -0.08648,0.13838 -0.121079,0.38919 -0.02595,0.25081 -0.02595,0.63999 z m 5.560995,-0.77837 h -2.309156 q -0.147025,0.35459 -0.250808,0.63135 -0.103781,0.2681 -0.17297,0.46702 -0.06054,0.19891 -0.08648,0.33729 -0.02595,0.13838 -0.02595,0.22486 0,0.24216 0.155674,0.3373 0.155674,0.0865 0.518912,0.0865 v 0.32864 h -2.101592 v -0.32864 q 0.198916,-0.0259 0.337292,-0.0692 0.147025,-0.0432 0.250808,-0.12108 0.11243,-0.0778 0.190267,-0.19892 0.08648,-0.12973 0.164322,-0.31135 L 61.547464,1.64321 h 0.371886 l 1.963209,4.877766 q 0.19893,0.48432 0.34595,0.77837 0.14702,0.2854 0.2854,0.43242 0.13837,0.14703 0.29405,0.19027 0.16432,0.0433 0.38918,0.0433 v 0.33729 h -2.819416 v -0.33729 q 0.458375,0 0.631346,-0.0865 0.17297,-0.0865 0.17297,-0.2854 0,-0.0865 -0.008,-0.15567 -0.008,-0.0779 -0.0346,-0.16433 -0.0173,-0.0865 -0.0605,-0.19026 -0.0346,-0.11243 -0.0951,-0.25946 z m -2.136186,-0.43242 h 1.971865 L 61.50422,2.905886 Z m 12.410617,-2.14484 q 0,0.69189 -0.41514,1.15026 -0.41513,0.45837 -1.32322,0.61404 l 1.91133,2.30051 q 0.2335,0.2854 0.51026,0.41513 0.2854,0.12108 0.67458,0.18162 v 0.32864 h -1.66916 l -2.11889,-2.71563 q -0.11243,-0.14703 -0.21621,-0.23351 -0.0951,-0.0865 -0.20757,-0.12973 -0.10378,-0.0519 -0.2508,-0.0605 -0.13839,-0.0173 -0.33729,-0.0173 v 1.79889 q 0,0.32 0.0346,0.52756 0.0433,0.19892 0.16431,0.31135 0.12973,0.11243 0.36325,0.15567 0.24215,0.0346 0.63134,0.0346 v 0.32864 h -3.05293 v -0.32864 q 0.3027,-0.009 0.48432,-0.0519 0.19027,-0.0433 0.29404,-0.14702 0.10379,-0.10379 0.13838,-0.29405 0.0346,-0.19027 0.0346,-0.49297 v -4.03021 q 0,-0.3027 -0.0346,-0.48432 -0.0259,-0.19027 -0.12108,-0.29405 -0.0864,-0.11243 -0.25945,-0.14703 -0.17298,-0.0433 -0.44973,-0.06054 v -0.32868 h 2.71564 q 1.19349,0 1.84214,0.44108 0.65728,0.44107 0.65728,1.22809 z m -3.44211,1.40106 h 0.61403 q 0.86487,0 1.28,-0.31134 0.42378,-0.32 0.42378,-1.04647 0,-0.70053 -0.33729,-1.00323 -0.32865,-0.3027 -1.03783,-0.3027 h -0.79566 q -0.14703,0 -0.14703,0.14702 z m 8.78688,1.1762 h -2.30915 q -0.14702,0.35459 -0.25081,0.63135 -0.10378,0.2681 -0.17297,0.46702 -0.0605,0.19891 -0.0864,0.33729 -0.0259,0.13838 -0.0259,0.22486 0,0.24216 0.15567,0.3373 0.15568,0.0865 0.51892,0.0865 v 0.32864 h -2.1016 v -0.32864 q 0.19892,-0.0259 0.33729,-0.0692 0.14703,-0.0432 0.25081,-0.12108 0.11243,-0.0778 0.19027,-0.19892 0.0864,-0.12973 0.16432,-0.31135 l 2.24862,-5.630186 h 0.37189 l 1.96322,4.877766 q 0.198911,0.48432 0.345931,0.77837 0.14702,0.2854 0.2854,0.43242 0.13838,0.14703 0.29404,0.19027 0.16434,0.0433 0.38919,0.0433 v 0.33729 h -2.819431 v -0.33729 q 0.45839,0 0.63135,-0.0865 0.17297,-0.0865 0.17297,-0.2854 0,-0.0865 -0.008,-0.15567 -0.008,-0.0779 -0.0346,-0.16433 -0.0174,-0.0865 -0.0605,-0.19026 -0.0346,-0.11243 -0.0951,-0.25946 z m -2.1362,-0.43242 h 1.97187 l -0.95998,-2.55132 z m 4.921021,2.84536 v -0.32864 q 0.32865,-0.009 0.52756,-0.0433 0.20757,-0.0433 0.32,-0.14702 0.11243,-0.11243 0.14703,-0.29405 0.0433,-0.19027 0.0433,-0.50162 v -4.03021 q 0,-0.3027 -0.0346,-0.48432 -0.0259,-0.19027 -0.12108,-0.29405 -0.0864,-0.11243 -0.25946,-0.14702 -0.17297,-0.0433 -0.44972,-0.06055 V 1.643142 h 3.03564 q 0.77836,0 1.43565,0.259456 0.66594,0.259458 1.14161,0.717828 0.48431,0.45838 0.75242,1.08972 0.26811,0.63134 0.26811,1.37512 0,0.70917 -0.25082,1.30592 -0.25081,0.5881 -0.70917,1.01188 -0.44973,0.42378 -1.08107,0.66594 -0.63134,0.23351 -1.38376,0.23351 z m 2.09294,-6.23558 q -0.14702,0 -0.14702,0.14702 v 4.67886 q 0,0.98593 1.28863,0.98593 1.18484,0 1.8162,-0.70053 0.63133,-0.70918 0.63133,-2.07565 0,-0.71783 -0.17297,-1.27998 -0.17297,-0.56216 -0.50161,-0.95134 -0.32,-0.38918 -0.77837,-0.59675 -0.45837,-0.20756 -1.03782,-0.20756 z m 11.18254,-0.42378 h 0.24215 l 0.0779,1.98916 h -0.31999 q -0.19026,-0.76107 -0.73513,-1.1935 -0.54486,-0.43242 -1.31457,-0.43242 -0.52756,0 -0.94268,0.20756 -0.41513,0.20757 -0.70054,0.59675 -0.2854,0.38918 -0.44107,0.95134 -0.14704,0.56215 -0.14704,1.27133 0,1.39241 0.57947,2.14484 0.57945,0.74377 1.6778,0.74377 1.66917,0 2.14483,-1.77295 h 0.3546 v 2.15348 h -0.3027 l -0.19892,-0.68323 q -0.9081,0.76972 -2.19672,0.76972 -0.73512,0 -1.33187,-0.23351 -0.5881,-0.23351 -1.01187,-0.65729 -0.41513,-0.43242 -0.64865,-1.04647 -0.22486,-0.61405 -0.22486,-1.36647 0,-0.78701 0.24216,-1.43565 0.24216,-0.64864 0.67458,-1.11566 0.44108,-0.46702 1.04647,-0.71783 0.61404,-0.259458 1.34917,-0.259458 0.51891,0 0.97728,0.147027 0.45838,0.147025 0.99458,0.475671 z m 5.06801,-0.08648 q 0.76107,0 1.41836,0.268104 0.65729,0.268106 1.1416,0.735126 0.48433,0.46702 0.76108,1.09836 0.27675,0.63135 0.27675,1.36647 0,0.70053 -0.28541,1.31458 -0.27675,0.61404 -0.76105,1.07241 -0.48431,0.44973 -1.14161,0.71783 -0.6573,0.25946 -1.40972,0.25946 -0.75242,0 -1.40971,-0.25946 -0.65729,-0.2681 -1.1416,-0.71783 -0.48432,-0.45837 -0.76972,-1.07241 -0.27675,-0.61405 -0.27675,-1.31458 0,-0.73513 0.27675,-1.36647 0.27675,-0.63134 0.76106,-1.09836 0.48433,-0.46702 1.14162,-0.735126 0.65728,-0.268104 1.41835,-0.268104 z m 0,6.35667 q 0.5708,0 1.02052,-0.19892 0.45837,-0.19892 0.77837,-0.5708 0.32863,-0.37189 0.50161,-0.89945 0.17297,-0.53621 0.17297,-1.1935 0,-0.69188 -0.17297,-1.24538 -0.17298,-0.56216 -0.49297,-0.95134 -0.32,-0.39783 -0.77836,-0.6054 -0.45837,-0.21621 -1.02917,-0.21621 -0.5708,0 -1.02917,0.21621 -0.45838,0.20757 -0.77837,0.6054 -0.32,0.38918 -0.49296,0.95134 -0.17298,0.5535 -0.17298,1.24538 0,0.65729 0.17298,1.1935 0.17296,0.52756 0.49296,0.89945 0.31999,0.37188 0.77837,0.5708 0.45837,0.19892 1.02917,0.19892 z M 98.51984,0.951328 99.64415,0.285392 Q 99.88631,0.138367 100.05063,0.06918 100.2236,0 100.39657,0 q 0.14702,0 0.23351,0.07784 0.0951,0.07784 0.0951,0.224863 0,0.138377 -0.18161,0.242158 -0.17296,0.09514 -0.46702,0.164322 l -1.03781,0.242158 z m 11.909,6.045318 1.34917,-3.75346 q 0.12107,-0.33729 0.17296,-0.53621 0.0519,-0.19891 0.0519,-0.34594 0,-0.22486 -0.14702,-0.3027 -0.13837,-0.08648 -0.50161,-0.08648 v -0.32864 h 2.10158 v 0.328643 q -0.39783,0 -0.60539,0.164327 -0.19891,0.16432 -0.3373,0.5362 l -2.17077,5.71668 h -0.3027 l -1.66051,-4.92101 -1.84213,4.92101 h -0.3027 l -1.7989,-4.96426 q -0.15567,-0.41512 -0.2854,-0.69188 -0.12108,-0.2854 -0.2681,-0.44972 -0.13838,-0.16432 -0.32,-0.23351 -0.1816,-0.06918 -0.44107,-0.06918 V 1.643224 h 2.81942 v 0.337292 q -0.44108,0 -0.62269,0.07784 -0.17298,0.0778 -0.17298,0.3027 0,0.11243 0.0346,0.25946 0.0346,0.14702 0.10378,0.34594 l 1.31459,4.00426 1.06376,-2.99239 q 0.12108,-0.33729 0.23352,-0.62269 0.12107,-0.29405 0.19027,-0.52756 -0.12109,-0.25081 -0.22486,-0.41513 -0.0951,-0.16432 -0.19893,-0.25945 -0.0951,-0.0951 -0.20756,-0.12973 -0.10378,-0.04325 -0.22487,-0.04325 V 1.643225 h 2.64644 v 0.337291 q -0.2508,0 -0.40647,0.0173 -0.15568,0.0173 -0.24216,0.0605 -0.0779,0.0346 -0.11243,0.10378 -0.0259,0.0692 -0.0259,0.16432 0,0.12973 0.0433,0.32 0.0519,0.18162 0.13838,0.46702 z m 10.78468,-3.68427 q 0,0.45837 -0.14702,0.82161 -0.14703,0.36324 -0.46702,0.61405 -0.31135,0.2508 -0.82161,0.38918 -0.50161,0.13837 -1.22808,0.13837 h -0.77837 v 1.66917 q 0,0.32 0.0346,0.52756 0.0433,0.19892 0.16432,0.31135 0.12974,0.11243 0.36324,0.15567 0.24216,0.0346 0.63135,0.0346 v 0.32864 H 115.912 v -0.32864 q 0.3027,-0.009 0.48431,-0.0519 0.19027,-0.0433 0.29405,-0.14702 0.10379,-0.10379 0.13838,-0.29405 0.0346,-0.19027 0.0346,-0.49297 v -4.03021 q 0,-0.3027 -0.0346,-0.48432 -0.0259,-0.19027 -0.12108,-0.29405 -0.0865,-0.11243 -0.25946,-0.14702 -0.17296,-0.0433 -0.44972,-0.06054 V 1.643212 h 2.71564 q 1.1935,0 1.84213,0.441084 0.65729,0.44107 0.65729,1.22809 z m -3.44212,1.53079 h 0.61404 q 0.86485,0 1.27998,-0.32865 0.42378,-0.33729 0.42378,-1.09836 0,-0.73512 -0.33729,-1.04647 -0.32865,-0.31999 -1.03782,-0.31999 h -0.79567 q -0.14702,0 -0.14702,0.14702 z m 9.38364,-1.53079 q 0,0.69188 -0.41513,1.15025 -0.41512,0.45838 -1.32322,0.61405 l 1.91132,2.30051 q 0.23352,0.2854 0.51026,0.41513 0.2854,0.12108 0.67458,0.18162 v 0.32864 h -1.66916 l -2.11889,-2.71564 q -0.11244,-0.14702 -0.21622,-0.23351 -0.0951,-0.0865 -0.20756,-0.12973 -0.10378,-0.0519 -0.25081,-0.0605 -0.13837,-0.0173 -0.33729,-0.0173 v 1.7989 q 0,0.31999 0.0346,0.52756 0.0433,0.19891 0.16433,0.31134 0.12973,0.11244 0.36323,0.15568 0.24217,0.0346 0.63136,0.0346 v 0.32864 h -3.05295 v -0.32864 q 0.3027,-0.009 0.48431,-0.0519 0.19027,-0.0433 0.29406,-0.14703 0.10378,-0.10378 0.13838,-0.29405 0.0346,-0.19027 0.0346,-0.49296 v -4.03022 q 0,-0.3027 -0.0346,-0.48432 -0.0259,-0.19026 -0.12109,-0.29405 -0.0865,-0.11243 -0.25944,-0.14702 -0.17297,-0.0433 -0.44973,-0.06054 V 1.643242 h 2.71565 q 1.19348,0 1.84212,0.441074 0.65729,0.44107 0.65729,1.22809 z m -3.44212,1.40106 h 0.61405 q 0.86485,0 1.27998,-0.31135 0.42377,-0.31999 0.42377,-1.04647 0,-0.70053 -0.33729,-1.00322 -0.32864,-0.3027 -1.03782,-0.3027 h -0.79567 q -0.14702,0 -0.14702,0.14702 z m 8.78689,1.1762 h -2.30916 q -0.14702,0.35459 -0.25081,0.63134 -0.10377,0.26811 -0.17296,0.46702 -0.0605,0.19892 -0.0865,0.3373 -0.0259,0.13837 -0.0259,0.22486 0,0.24216 0.15568,0.33729 0.15566,0.0865 0.5189,0.0865 v 0.32864 h -2.10159 v -0.32864 q 0.19892,-0.0259 0.3373,-0.0692 0.14702,-0.0432 0.2508,-0.12108 0.11243,-0.0778 0.19027,-0.19892 0.0865,-0.12972 0.16433,-0.31134 l 2.24861,-5.630192 h 0.37189 l 1.96322,4.877772 q 0.19891,0.48431 0.34595,0.77836 0.14703,0.2854 0.2854,0.43243 0.13838,0.14702 0.29405,0.19027 0.16432,0.0433 0.38918,0.0433 v 0.33729 h -2.81941 v -0.33729 q 0.45837,0 0.63133,-0.0865 0.17298,-0.0865 0.17298,-0.2854 0,-0.0865 -0.008,-0.15568 -0.008,-0.0778 -0.0346,-0.16432 -0.0172,-0.0865 -0.0605,-0.19027 -0.0346,-0.11243 -0.0951,-0.25945 z m -2.13618,-0.43243 h 1.97186 l -0.95999,-2.55131 z m 11.19117,1.53944 1.34918,-3.75346 q 0.12107,-0.33729 0.17296,-0.53621 0.0519,-0.19891 0.0519,-0.34594 0,-0.22486 -0.14703,-0.3027 -0.13837,-0.08648 -0.50162,-0.08648 v -0.32864 h 2.10159 v 0.328643 q -0.39782,0 -0.60539,0.164327 -0.19892,0.16432 -0.3373,0.5362 l -2.17077,5.71668 h -0.3027 l -1.66052,-4.92101 -1.84213,4.92101 h -0.3027 l -1.79889,-4.96426 q -0.15568,-0.41512 -0.2854,-0.69188 -0.12109,-0.2854 -0.26811,-0.44972 -0.13838,-0.16432 -0.32,-0.23351 -0.18161,-0.06918 -0.44108,-0.06918 V 1.643224 h 2.81943 v 0.337292 q -0.44108,0 -0.62269,0.07784 -0.17298,0.0778 -0.17298,0.3027 0,0.11243 0.0346,0.25946 0.0346,0.14702 0.10378,0.34594 l 1.31458,4.00426 1.06376,-2.99239 q 0.12109,-0.33729 0.23352,-0.62269 0.12107,-0.29405 0.19027,-0.52756 -0.12109,-0.25081 -0.22487,-0.41513 -0.0951,-0.16432 -0.19892,-0.25945 -0.0951,-0.0951 -0.20756,-0.12973 -0.10378,-0.04325 -0.22486,-0.04325 V 1.643225 h 2.64645 v 0.337291 q -0.25081,0 -0.40649,0.0173 -0.15567,0.0173 -0.24215,0.0605 -0.0779,0.0346 -0.11243,0.10378 -0.0259,0.0692 -0.0259,0.16432 0,0.12973 0.0433,0.32 0.0519,0.18162 0.13838,0.46702 z m 8.95986,1.39242 -4.10806,-5.41398 h -0.0346 v 3.69292 q 0,0.43242 0.0259,0.68323 0.0346,0.25081 0.12107,0.38919 0.0951,0.13837 0.25947,0.18161 0.17296,0.0433 0.44972,0.0519 v 0.32865 h -2.32646 v -0.32865 q 0.3027,-0.009 0.48432,-0.0519 0.19027,-0.0519 0.29405,-0.18161 0.10378,-0.12973 0.13838,-0.36324 0.0346,-0.24216 0.0346,-0.64864 v -3.5113 q 0,-0.36324 -0.0346,-0.59675 -0.0259,-0.24216 -0.12108,-0.38054 -0.0864,-0.13837 -0.25946,-0.19026 -0.17297,-0.0605 -0.44972,-0.07784 V 1.643212 h 1.71241 l 3.7794,5.042094 h 0.0346 v -3.40752 q 0,-0.42377 -0.0346,-0.67458 -0.0259,-0.25946 -0.12108,-0.39783 -0.0865,-0.13838 -0.25945,-0.18162 -0.16432,-0.04326 -0.44106,-0.0519 V 1.643212 h 2.32644 v 0.328644 q -0.30269,0.0087 -0.49297,0.06055 -0.18162,0.0433 -0.28541,0.17297 -0.10377,0.12972 -0.13836,0.37188 -0.0346,0.24216 -0.0346,0.63999 v 5.17182 z m 2.78482,-5.67344 q -0.12973,-0.22486 -0.24216,-0.36324 -0.11243,-0.14702 -0.2335,-0.23351 -0.11244,-0.0865 -0.24217,-0.11243 -0.12973,-0.03459 -0.31134,-0.03459 v -0.32864 h 2.72428 v 0.328643 q -0.43243,0 -0.61404,0.06918 -0.17298,0.0605 -0.17298,0.22487 0,0.18162 0.19893,0.51891 l 1.34051,2.29185 h 0.0346 l 0.97729,-1.64321 q 0.27675,-0.46702 0.38919,-0.73513 0.12107,-0.2681 0.12107,-0.43242 0,-0.16433 -0.12972,-0.22487 -0.12107,-0.06918 -0.43243,-0.06918 V 1.643216 h 1.98052 v 0.328643 q -0.18161,0 -0.32865,0.05189 -0.13838,0.0519 -0.29404,0.20757 -0.15568,0.15567 -0.34595,0.43242 -0.18162,0.27676 -0.44972,0.72648 l -1.33188,2.24862 v 1.02917 q 0,0.42378 0.0259,0.68323 0.0346,0.25081 0.12971,0.38919 0.10378,0.13837 0.28542,0.19027 0.19027,0.0433 0.50161,0.0433 v 0.32864 h -2.80213 v -0.32865 q 0.31135,0 0.49298,-0.0433 0.19026,-0.0519 0.2854,-0.18162 0.10378,-0.13837 0.13837,-0.38053 0.0346,-0.24216 0.0346,-0.63999 v -1.05512 z m 11.01821,-1.072415 h 0.24216 l 0.0778,1.989155 h -0.31999 q -0.19027,-0.76107 -0.73513,-1.19349 -0.54485,-0.43243 -1.31457,-0.43243 -0.52756,0 -0.94269,0.20757 -0.41512,0.20756 -0.70052,0.59675 -0.28542,0.38918 -0.44108,0.95133 -0.14703,0.56216 -0.14703,1.27134 0,1.39241 0.57945,2.14483 0.57946,0.74377 1.67782,0.74377 1.66917,0 2.14483,-1.77294 h 0.35459 v 2.15348 h -0.30269 l -0.19892,-0.68323 q -0.90809,0.76972 -2.19671,0.76972 -0.73514,0 -1.33187,-0.23352 -0.58811,-0.23351 -1.01189,-0.65728 -0.41513,-0.43243 -0.64863,-1.04647 -0.22486,-0.61405 -0.22486,-1.36647 0,-0.78702 0.24215,-1.43566 0.24216,-0.64864 0.67459,-1.11566 0.44108,-0.46702 1.04647,-0.717825 0.61405,-0.259457 1.34916,-0.259457 0.51891,0 0.97728,0.147026 0.45837,0.147025 0.99459,0.475666 z m 7.63663,5.284245 q 0,0.32865 0.0346,0.53621 0.0346,0.19892 0.12973,0.31135 0.10378,0.10378 0.2854,0.14702 0.19027,0.0433 0.49297,0.0519 v 0.32865 h -2.80212 v -0.32865 q 0.3027,-0.009 0.48431,-0.0519 0.19027,-0.0433 0.29406,-0.14702 0.10377,-0.10378 0.13837,-0.29405 0.0346,-0.19027 0.0346,-0.49297 v -1.87673 h -3.50265 v 1.81619 q 0,0.32865 0.0346,0.53621 0.0346,0.19892 0.12973,0.31135 0.10377,0.10378 0.2854,0.14702 0.19027,0.0433 0.49296,0.0519 v 0.32865 h -2.80211 v -0.32865 q 0.30268,-0.009 0.48431,-0.0519 0.19027,-0.0433 0.29405,-0.14702 0.10378,-0.10378 0.13839,-0.29405 0.0346,-0.19027 0.0346,-0.49297 v -4.03021 q 0,-0.3027 -0.0346,-0.48432 -0.0259,-0.19026 -0.12111,-0.29405 -0.0865,-0.11243 -0.25944,-0.14702 -0.17297,-0.0433 -0.44973,-0.06054 V 1.643213 h 2.62916 v 0.328643 q -0.27674,0.0087 -0.44973,0.05189 -0.16432,0.0432 -0.25944,0.15567 -0.0865,0.11243 -0.1211,0.31135 -0.0259,0.19891 -0.0259,0.52756 v 1.66051 h 3.50265 v -1.72105 q 0,-0.3027 -0.0346,-0.48432 -0.0259,-0.19027 -0.12108,-0.29405 -0.0865,-0.11243 -0.25945,-0.14703 -0.17296,-0.0433 -0.44972,-0.06054 V 1.643203 h 2.62916 v 0.328643 q -0.27677,0.0087 -0.44972,0.05189 -0.16433,0.0433 -0.25946,0.15568 -0.0864,0.11243 -0.12107,0.31134 -0.0259,0.19892 -0.0259,0.52756 z" id="text2" style="font-size:8.37312px;font-family:'Libre Baskerville';-inkscape-font-specification:'Libre Baskerville';stroke:none;stroke-width:0.720708" aria-label="KANCELARIA RADCÓW PRAWNYCH" />
  </g>
</svg>
