<?xml version="1.0" encoding="UTF-8" standalone="no"?>
<svg width="174mm" height="16mm" viewBox="0 0 174 16" version="1.1" id="svg1" sodipodi:docname="name_1.svg" inkscape:version="1.3.1 (9b9bdc1480, 2023-11-25, custom)" xmlns:inkscape="http://www.inkscape.org/namespaces/inkscape" xmlns:sodipodi="http://sodipodi.sourceforge.net/DTD/sodipodi-0.dtd" xmlns="http://www.w3.org/2000/svg" xmlns:svg="http://www.w3.org/2000/svg">
  <sodipodi:namedview id="namedview1" pagecolor="#ffffff" bordercolor="#000000" borderopacity="0.25" inkscape:showpageshadow="2" inkscape:pageopacity="0.0" inkscape:pagecheckerboard="0" inkscape:deskcolor="#d1d1d1" inkscape:document-units="mm" inkscape:zoom="1.1586925" inkscape:cx="565.29233" inkscape:cy="72.495505" inkscape:window-width="2518" inkscape:window-height="1371" inkscape:window-x="0" inkscape:window-y="0" inkscape:window-maximized="1" inkscape:current-layer="svg1" />
  <defs id="defs1" />
  <path style="font-size:6.50021px;font-family:'Libre Baskerville';-inkscape-font-specification:'Libre Baskerville';stroke-width:0.541682" d="m 2.5624253,8.9045441 q 0,-0.2275073 -0.026001,-0.3640117 Q 2.5169238,8.3975277 2.4454215,8.3195252 2.3804194,8.2350225 2.2504152,8.2090217 2.120411,8.1765206 1.9124043,8.1635202 v -0.247008 h 1.9760638 v 0.247008 q -0.2080067,0.0065 -0.3380109,0.039001 -0.123504,0.032501 -0.1950063,0.1170037 -0.065002,0.084503 -0.091003,0.2340076 -0.019501,0.1495048 -0.019501,0.3965128 v 3.9846284 q 0,0.819027 -0.3445111,1.24804 -0.3445111,0.429014 -1.0075325,0.429014 -0.4485145,0 -0.7150231,-0.175505 -0.27300882,-0.169006 -0.27300882,-0.455015 0,-0.169005 0.0910029,-0.260008 0.0845027,-0.0845 0.24050778,-0.0845 0.123504,0 0.2015065,0.0585 0.071502,0.065 0.1690054,0.247008 0.1105036,0.208006 0.1885061,0.279509 0.084503,0.078 0.214507,0.078 0.2665086,0 0.4095132,-0.286009 0.1430046,-0.286009 0.1430046,-0.812526 z m 3.6726066,2.0930679 q -0.370512,0.143004 -0.6305204,0.279509 -0.2535081,0.136504 -0.4095132,0.273009 -0.156005,0.136504 -0.2275073,0.273008 -0.065002,0.136505 -0.065002,0.279509 0,0.214507 0.1430046,0.351012 0.1430046,0.136504 0.3770122,0.136504 0.1690054,0 0.31201,-0.0845 0.1495049,-0.0845 0.2600084,-0.227507 0.1105036,-0.149505 0.1755057,-0.344511 0.065002,-0.201507 0.065002,-0.422514 z m 0,-0.279509 v -0.266509 q 0,-0.7930255 -0.6760218,-0.7930255 -0.1105036,0 -0.1885061,0.019501 -0.078003,0.019501 -0.1300042,0.065002 -0.052002,0.045501 -0.097503,0.1300042 -0.039001,0.084503 -0.078003,0.2080066 -0.071502,0.188506 -0.1430046,0.253508 -0.065002,0.0585 -0.1950063,0.0585 -0.3250105,0 -0.3250105,-0.32501 0,-0.3120104 0.3315107,-0.4810159 0.3315107,-0.1755056 0.9425305,-0.1755056 0.6500209,0 0.9230298,0.2340075 0.2730088,0.2275074 0.2730088,0.780025 v 1.456047 q 0,0.741024 0.2925094,0.741024 0.091003,0 0.1755057,-0.0195 0.084503,-0.026 0.1430046,-0.123503 l 0.091003,0.156005 q -0.078003,0.149504 -0.2860092,0.253508 -0.2080067,0.0975 -0.4355141,0.0975 -0.2860092,0 -0.4290138,-0.182006 -0.1365044,-0.182006 -0.1365044,-0.513517 h -0.032501 q -0.1690054,0.318511 -0.4680151,0.507017 -0.2990096,0.182006 -0.6630214,0.182006 -0.4095132,0 -0.6435207,-0.208007 -0.2340076,-0.208007 -0.2340076,-0.559018 0,-0.156005 0.052002,-0.29901 0.058502,-0.143004 0.1820059,-0.273009 0.1235039,-0.130004 0.3250104,-0.253508 0.2015065,-0.130004 0.494016,-0.260008 z m 3.5946093,1.976063 q 0.2145068,0 0.2925098,-0.0195 0.0845,-0.0195 0.0845,-0.052 -0.0065,-0.052 -0.104003,-0.188506 -0.0975,-0.136504 -0.2535082,-0.32501 L 9.1601196,11.277121 8.9196118,11.504628 v 0.383512 q 0,0.253509 0.019501,0.409514 0.026001,0.149504 0.084503,0.240507 0.065002,0.0845 0.1820059,0.117004 0.1235039,0.0325 0.3185102,0.039 v 0.227508 H 7.6780717 v -0.227508 q 0.1950063,-0.0065 0.3120101,-0.039 0.123504,-0.0325 0.1885061,-0.117004 0.071502,-0.0845 0.097503,-0.227507 0.026001,-0.143005 0.026001,-0.377012 V 9.210054 q 0,-0.494016 -0.013,-0.7475242 Q 8.2825913,8.2090217 8.2240894,8.1180187 8.1655875,8.0270158 8.0290831,8.0140154 7.8925787,7.9945147 7.6650713,7.9945147 V 7.7735076 L 8.9196118,7.5264996 V 11.095115 L 9.5241313,10.503596 Q 9.8166408,10.211086 9.9596454,10.074582 10.10265,9.9315773 10.10265,9.860075 q 0,-0.071502 -0.1365044,-0.1105036 Q 9.8296412,9.7040699 9.576133,9.7040699 V 9.4765626 h 1.690055 v 0.2275073 q -0.123504,0 -0.214507,0.013 -0.091,0.013001 -0.175506,0.052002 -0.078,0.039001 -0.169005,0.1105036 -0.091,0.065002 -0.208007,0.1690054 l -0.9360304,0.832027 1.2870414,1.456047 q 0.091,0.110503 0.162505,0.182006 0.078,0.065 0.149505,0.104003 0.078,0.039 0.162505,0.0585 0.091,0.013 0.214507,0.013 v 0.227508 H 9.8296412 Z m 4.7516478,-2.17757 q 0,-0.266508 -0.013,-0.416013 -0.013,-0.1560053 -0.0715,-0.2340078 -0.052,-0.084503 -0.162505,-0.1105036 -0.104004,-0.032501 -0.29251,-0.052002 V 9.4765626 h 1.176538 v 1.9955644 q 0,0.370512 0.0065,0.604519 0.013,0.234008 0.0325,0.351012 0.013,0.0845 0.039,0.136504 0.0325,0.0455 0.091,0.078 0.0585,0.026 0.149504,0.039 0.0975,0.0065 0.247008,0.0065 v 0.227508 l -1.072534,0.078 -0.0715,-0.780025 h -0.026 q -0.247008,0.403013 -0.572019,0.591519 -0.31851,0.182006 -0.669522,0.182006 -0.273008,0 -0.533017,-0.104003 -0.253508,-0.104004 -0.383512,-0.27951 -0.110504,-0.143004 -0.162505,-0.396512 -0.0455,-0.253508 -0.0455,-0.656521 v -1.033534 q 0,-0.266508 -0.013,-0.416013 -0.013,-0.1560053 -0.0715,-0.2340078 -0.052,-0.084503 -0.162505,-0.1105036 -0.104003,-0.032501 -0.292509,-0.052002 V 9.4765626 h 1.176538 V 11.25112 q 0,0.708523 0.162505,1.027033 0.169005,0.31851 0.533017,0.31851 0.572019,0 0.890529,-0.747524 0.0325,-0.078 0.052,-0.143004 0.0195,-0.065 0.0325,-0.143005 0.013,-0.078 0.0195,-0.175506 0.0065,-0.0975 0.0065,-0.234007 z m 2.574072,1.046534 q 0,0.247008 0.0715,0.455015 0.0715,0.201506 0.195006,0.351011 0.130004,0.143005 0.30551,0.227507 0.182006,0.0845 0.390012,0.0845 0.227508,0 0.409514,-0.104003 0.188506,-0.104004 0.31851,-0.29251 0.136504,-0.195006 0.208007,-0.461515 0.078,-0.273008 0.078,-0.604519 0,-0.331511 -0.078,-0.60452 -0.078,-0.279509 -0.214507,-0.474515 -0.136505,-0.2015065 -0.331511,-0.3120101 -0.188506,-0.1105036 -0.416014,-0.1105036 -0.266508,0 -0.474515,0.1300042 -0.208007,0.123504 -0.31851,0.3510115 -0.143005,0.286009 -0.143005,0.786525 z m -0.013,-1.6250525 h 0.026 q 0.208006,-0.2730088 0.455014,-0.3965128 0.253509,-0.1300042 0.585019,-0.1300042 0.351012,0 0.650021,0.1365044 0.30551,0.1365044 0.526517,0.3770122 0.227508,0.2405079 0.351012,0.5720189 0.130004,0.32501 0.130004,0.702022 0,0.383513 -0.130004,0.715023 -0.130005,0.325011 -0.357512,0.565519 -0.221007,0.240507 -0.526517,0.377012 -0.30551,0.136504 -0.663021,0.136504 -0.370512,0 -0.695523,-0.136504 -0.31851,-0.136505 -0.526517,-0.370512 l -0.30551,0.435514 H 16.518341 V 8.9955471 q 0,-0.6565212 -0.0845,-0.8385271 -0.0195,-0.045501 -0.0455,-0.071502 -0.026,-0.032501 -0.078,-0.052002 -0.052,-0.026001 -0.143005,-0.045502 -0.091,-0.019501 -0.247008,-0.039001 V 7.786508 l 1.22204,-0.2600084 z M 26.52215,7.9165122 h 0.182006 l 0.0585,1.4950483 H 26.52215 Q 26.379145,8.839542 25.969632,8.5145315 25.560119,8.189521 24.9816,8.189521 q -0.396512,0 -0.708522,0.1560051 -0.312011,0.156005 -0.526517,0.4485144 -0.214507,0.2925095 -0.331511,0.7150231 -0.110504,0.4225137 -0.110504,0.9555304 0,1.046534 0.435514,1.612052 0.435514,0.559019 1.261041,0.559019 1.254541,0 1.612052,-1.332543 h 0.266509 v 1.618552 h -0.227508 l -0.149505,-0.513517 q -0.682522,0.578519 -1.651053,0.578519 -0.552518,0 -1.001032,-0.175506 -0.442014,-0.175505 -0.760525,-0.494016 -0.31201,-0.32501 -0.487515,-0.786525 -0.169006,-0.461515 -0.169006,-1.027033 0,-0.5915194 0.182006,-1.0790351 0.182006,-0.4875157 0.507016,-0.8385271 0.331511,-0.3510113 0.786526,-0.5395174 0.461515,-0.1950063 1.014032,-0.1950063 0.390013,0 0.734524,0.1105036 0.344511,0.1105036 0.747524,0.3575115 z m 2.216561,3.9716278 q 0,0.253509 0.0195,0.409514 0.026,0.149504 0.091,0.240507 0.065,0.0845 0.182005,0.117004 0.117004,0.0325 0.312011,0.039 v 0.227508 H 27.47767 v -0.227508 q 0.195007,-0.0065 0.318511,-0.039 0.123504,-0.039 0.188506,-0.117004 0.0715,-0.0845 0.091,-0.227507 0.026,-0.149505 0.026,-0.377012 v -0.832027 q 0,-0.377012 -0.013,-0.61752 -0.0065,-0.247008 -0.0325,-0.338011 Q 28.023688,9.9965794 27.906684,9.9445777 27.78968,9.8860758 27.46467,9.8860758 V 9.6585685 l 1.274041,-0.247008 z M 27.991187,8.0920179 q 0,-0.1690055 0.117004,-0.2860092 0.117003,-0.1170038 0.286009,-0.1170038 0.169005,0 0.286009,0.1170038 0.117004,0.1170037 0.117004,0.2860092 0,0.1690054 -0.117004,0.2860092 -0.117004,0.1170038 -0.286009,0.1170038 -0.169006,0 -0.286009,-0.1170038 -0.117004,-0.1170038 -0.117004,-0.2860092 z m 2.710584,3.4711121 q 0,0.247008 0.0715,0.455015 0.0715,0.201506 0.195006,0.351011 0.130005,0.143005 0.30551,0.227507 0.182006,0.0845 0.390013,0.0845 0.227507,0 0.409513,-0.104003 0.188506,-0.104004 0.31851,-0.29251 0.136505,-0.195006 0.208007,-0.461515 0.078,-0.273008 0.078,-0.604519 0,-0.331511 -0.078,-0.60452 -0.078,-0.279509 -0.214507,-0.474515 -0.136504,-0.2015065 -0.331511,-0.3120101 -0.188506,-0.1105036 -0.416013,-0.1105036 -0.266509,0 -0.474515,0.1300042 -0.208007,0.123504 -0.318511,0.3510115 -0.143004,0.286009 -0.143004,0.786525 z m -0.013,-1.6250525 h 0.026 q 0.208007,-0.2730088 0.455015,-0.3965128 0.253508,-0.1300042 0.585019,-0.1300042 0.351011,0 0.650021,0.1365044 0.30551,0.1365044 0.526517,0.3770122 0.227507,0.2405079 0.351011,0.5720189 0.130004,0.32501 0.130004,0.702022 0,0.383513 -0.130004,0.715023 -0.130004,0.325011 -0.357511,0.565519 -0.221008,0.240507 -0.526517,0.377012 -0.30551,0.136504 -0.663022,0.136504 -0.370512,0 -0.695522,-0.136504 -0.318511,-0.136505 -0.526517,-0.370512 l -0.30551,0.435514 H 30.06475 V 8.9955471 q 0,-0.6565212 -0.0845,-0.8385271 -0.0195,-0.045501 -0.0455,-0.071502 -0.026,-0.032501 -0.078,-0.052002 -0.052,-0.026001 -0.143005,-0.045502 -0.091,-0.019501 -0.247008,-0.039001 V 7.786508 L 30.68877,7.5264996 Z m 5.148162,-0.526517 q 0.370512,0 0.702023,0.1365044 0.331511,0.1300042 0.578519,0.3640117 0.253508,0.2340074 0.396512,0.5590184 0.149505,0.31851 0.149505,0.702022 0,0.396513 -0.149505,0.728024 -0.143004,0.331511 -0.396512,0.572018 -0.247008,0.240508 -0.578519,0.377012 -0.331511,0.136505 -0.702023,0.136505 -0.364011,0 -0.695522,-0.130004 -0.325011,-0.136505 -0.572019,-0.377012 -0.247008,-0.240508 -0.390012,-0.572019 -0.143005,-0.338011 -0.143005,-0.734524 0,-0.383512 0.143005,-0.708523 0.143004,-0.32501 0.390012,-0.5590176 0.247008,-0.2340075 0.572019,-0.3640117 0.331511,-0.1300042 0.695522,-0.1300042 z m 0,0.31201 q -0.240507,0 -0.442014,0.1040034 -0.195006,0.1040034 -0.338011,0.2990101 -0.136504,0.188506 -0.214507,0.461514 -0.0715,0.266509 -0.0715,0.59152 0,0.33801 0.0715,0.611019 0.078,0.273009 0.214507,0.468015 0.143005,0.188506 0.338011,0.29251 0.195006,0.104003 0.442014,0.104003 0.247008,0 0.448515,-0.104003 0.201506,-0.104004 0.344511,-0.29901 0.143005,-0.195006 0.221007,-0.468015 0.078,-0.273009 0.078,-0.604519 0,-0.325011 -0.078,-0.59152 -0.078,-0.266508 -0.221007,-0.455014 Q 36.486953,9.9380775 36.285447,9.8340741 36.08394,9.7235705 35.836932,9.7235705 Z m 3.581612,2.1645695 q 0,0.266509 0.013,0.422514 0.013,0.156005 0.065,0.240508 0.0585,0.078 0.162505,0.104003 0.104004,0.026 0.29251,0.039 v 0.227508 h -1.729056 v -0.227508 q 0.188506,-0.0065 0.29901,-0.0325 0.110503,-0.0325 0.169005,-0.110503 0.0585,-0.078 0.0715,-0.221007 0.0195,-0.149505 0.0195,-0.396513 v -0.760525 q 0,-0.442014 -0.013,-0.689022 -0.0065,-0.247008 -0.065,-0.364012 -0.052,-0.117003 -0.169006,-0.1365041 -0.117004,-0.026001 -0.32501,-0.026001 V 9.7300708 l 1.137536,-0.247008 0.091,0.8060262 h 0.026 q 0.0845,-0.195006 0.208007,-0.3575117 0.130004,-0.1625053 0.279509,-0.2730088 0.149505,-0.1170038 0.31201,-0.1820059 0.162505,-0.065002 0.331511,-0.065002 0.208006,0 0.32501,0.1040033 0.123504,0.097503 0.123504,0.2665086 0,0.1560051 -0.0975,0.2470076 -0.0975,0.0845 -0.279509,0.0845 -0.104003,0 -0.175506,-0.026 -0.0715,-0.026 -0.130004,-0.052 -0.052,-0.0325 -0.104003,-0.058502 -0.0455,-0.026001 -0.104004,-0.026001 -0.175505,0 -0.351011,0.2275071 -0.175506,0.221007 -0.273009,0.565518 -0.052,0.188507 -0.0845,0.429014 -0.026,0.234008 -0.026,0.494016 z m 3.698605,-2.4765795 q 0.370512,0 0.702022,0.1365044 0.331511,0.1300042 0.578519,0.3640117 0.253508,0.2340074 0.396513,0.5590184 0.149505,0.31851 0.149505,0.702022 0,0.396513 -0.149505,0.728024 -0.143005,0.331511 -0.396513,0.572018 -0.247008,0.240508 -0.578519,0.377012 -0.33151,0.136505 -0.702022,0.136505 -0.364012,0 -0.695523,-0.130004 Q 42.096616,12.720167 41.849608,12.47966 41.6026,12.239152 41.459595,11.907641 41.31659,11.56963 41.31659,11.173117 q 0,-0.383512 0.143005,-0.708523 0.143005,-0.32501 0.390013,-0.5590176 0.247008,-0.2340075 0.572018,-0.3640117 0.331511,-0.1300042 0.695523,-0.1300042 z m 0,0.31201 q -0.240508,0 -0.442015,0.1040034 -0.195006,0.1040034 -0.338011,0.2990101 -0.136504,0.188506 -0.214507,0.461514 -0.0715,0.266509 -0.0715,0.59152 0,0.33801 0.0715,0.611019 0.078,0.273009 0.214507,0.468015 0.143005,0.188506 0.338011,0.29251 0.195007,0.104003 0.442015,0.104003 0.247008,0 0.448514,-0.104003 0.201507,-0.104004 0.344511,-0.29901 0.143005,-0.195006 0.221007,-0.468015 0.078,-0.273009 0.078,-0.604519 0,-0.325011 -0.078,-0.59152 -0.078,-0.266508 -0.221007,-0.455014 Q 43.76717,9.9380775 43.565663,9.8340741 43.364157,9.7235705 43.117149,9.7235705 Z m 3.815614,3.2631055 h -0.240508 l -0.845027,-2.704087 q -0.0585,-0.182006 -0.110504,-0.2925098 -0.052,-0.1105036 -0.123504,-0.1755057 -0.0715,-0.065002 -0.169005,-0.084503 -0.0975,-0.026001 -0.240508,-0.026001 V 9.4765626 h 1.722556 v 0.2275073 q -0.253508,0 -0.357512,0.058502 -0.104003,0.058502 -0.104003,0.2015065 0,0.065002 0.0195,0.1560047 0.0195,0.0845 0.052,0.214507 l 0.442014,1.55355 h 0.026 l 0.955531,-2.4115774 h 0.201507 l 0.864528,2.4115774 h 0.026 l 0.390013,-1.053034 q 0.078,-0.214506 0.130004,-0.357511 0.052,-0.149505 0.078,-0.247008 0.0325,-0.104003 0.0455,-0.169006 0.013,-0.065002 0.013,-0.1235035 0,-0.1430046 -0.0845,-0.1885061 -0.0845,-0.045502 -0.351011,-0.045502 V 9.4765626 h 1.300041 v 0.2275073 q -0.0975,0 -0.169005,0.032501 -0.065,0.026001 -0.136504,0.1105035 -0.065,0.084503 -0.136505,0.2405075 -0.0715,0.156005 -0.175505,0.409514 l -1.007533,2.48958 H 48.70732 l -0.793025,-2.398578 h -0.026 z m 4.231627,-0.065 h -0.143004 v -1.118036 h 0.162505 q 0.253508,0.916529 0.92303,0.916529 0.260008,0 0.409513,-0.123504 0.156005,-0.130004 0.156005,-0.390012 0,-0.0975 -0.0325,-0.162506 -0.026,-0.0715 -0.110504,-0.143004 -0.078,-0.078 -0.227507,-0.175506 -0.143005,-0.0975 -0.383512,-0.247008 -0.221007,-0.136504 -0.383513,-0.253508 -0.162505,-0.117004 -0.273008,-0.234008 -0.110504,-0.123504 -0.169006,-0.260008 -0.052,-0.136504 -0.052,-0.31851 0,-0.221007 0.0715,-0.403013 0.078,-0.1885063 0.208006,-0.3185105 0.130005,-0.1300042 0.30551,-0.2015065 0.175506,-0.078003 0.383513,-0.078003 0.175505,0 0.364011,0.058502 0.188506,0.052002 0.331511,0.1430046 l 0.130004,-0.1365044 h 0.123504 V 10.412593 H 52.789443 Q 52.646438,10.01608 52.477433,9.8470745 52.308427,9.6780691 52.061419,9.6780691 q -0.221007,0 -0.357511,0.1170038 -0.130004,0.1170037 -0.130004,0.3250101 0,0.110504 0.0325,0.195007 0.039,0.078 0.117003,0.156005 0.078,0.078 0.195007,0.162505 0.123504,0.078 0.292509,0.182006 0.279509,0.175505 0.474515,0.31201 0.201507,0.136504 0.325011,0.273009 0.123504,0.130004 0.182006,0.273008 0.0585,0.143005 0.0585,0.325011 0,0.461515 -0.29901,0.728023 -0.29901,0.260009 -0.786525,0.260009 -0.507017,0 -0.871028,-0.29251 z m 4.654143,-0.227508 q 0.214507,0 0.29251,-0.0195 0.0845,-0.0195 0.0845,-0.052 -0.0065,-0.052 -0.104003,-0.188506 -0.0975,-0.136504 -0.253508,-0.32501 l -0.689022,-0.832027 -0.240508,0.227507 v 0.383512 q 0,0.253509 0.0195,0.409514 0.026,0.149504 0.0845,0.240507 0.065,0.0845 0.182006,0.117004 0.123504,0.0325 0.31851,0.039 v 0.227508 h -1.846059 v -0.227508 q 0.195006,-0.0065 0.31201,-0.039 0.123504,-0.0325 0.188506,-0.117004 0.0715,-0.0845 0.0975,-0.227507 0.026,-0.143005 0.026,-0.377012 V 9.210054 q 0,-0.494016 -0.013,-0.7475242 -0.0065,-0.2535081 -0.065,-0.3445111 -0.0585,-0.091003 -0.195006,-0.1040033 -0.136504,-0.019501 -0.364012,-0.019501 V 7.7735076 l 1.254541,-0.247008 v 3.5686154 l 0.604519,-0.591519 q 0.29251,-0.29251 0.435514,-0.429014 0.143005,-0.1430047 0.143005,-0.214507 0,-0.071502 -0.136504,-0.1105036 -0.136505,-0.045502 -0.390013,-0.045502 V 9.4765626 h 1.690055 v 0.2275073 q -0.123504,0 -0.214507,0.013 -0.091,0.013001 -0.175506,0.052002 -0.078,0.039001 -0.169005,0.1105036 -0.091,0.065002 -0.208007,0.1690054 l -0.93603,0.832027 1.287041,1.456047 q 0.091,0.110503 0.162505,0.182006 0.078,0.065 0.149505,0.104003 0.078,0.039 0.162506,0.0585 0.091,0.013 0.214506,0.013 v 0.227508 h -1.709555 z m 3.224099,-0.806026 q 0,0.253509 0.0195,0.409514 0.026,0.149504 0.091,0.240507 0.065,0.0845 0.182006,0.117004 0.117004,0.0325 0.31201,0.039 v 0.227508 h -1.86556 v -0.227508 q 0.195006,-0.0065 0.31851,-0.039 0.123504,-0.039 0.188506,-0.117004 0.0715,-0.0845 0.091,-0.227507 0.026,-0.149505 0.026,-0.377012 v -0.832027 q 0,-0.377012 -0.013,-0.61752 -0.0065,-0.247008 -0.0325,-0.338011 -0.0325,-0.1495046 -0.149505,-0.2015063 -0.117004,-0.058502 -0.442014,-0.058502 V 9.6585685 l 1.274041,-0.247008 z M 58.295108,8.0920179 q 0,-0.1690055 0.117003,-0.2860092 0.117004,-0.1170038 0.28601,-0.1170038 0.169005,0 0.286009,0.1170038 0.117004,0.1170037 0.117004,0.2860092 0,0.1690054 -0.117004,0.2860092 -0.117004,0.1170038 -0.286009,0.1170038 -0.169006,0 -0.28601,-0.1170038 -0.117003,-0.1170038 -0.117003,-0.2860092 z m 5.603168,1.8525598 q 0.31201,-0.2405078 0.455014,-0.4875158 0.143005,-0.2535081 0.143005,-0.5460176 0,-0.3055098 -0.136504,-0.4810155 -0.136505,-0.1820059 -0.364012,-0.1820059 -0.429014,0 -0.429014,0.6565212 0,0.2860092 0.0845,0.5525178 0.0845,0.2600084 0.247008,0.4875158 z m -0.370512,0.6110193 q -0.409513,0.234008 -0.637021,0.552518 -0.227507,0.31201 -0.227507,0.650021 0,0.357512 0.227507,0.591519 0.234008,0.227508 0.59802,0.227508 0.273008,0 0.585018,-0.136505 0.31201,-0.136504 0.591519,-0.383512 z m 1.605552,1.007533 q 0.156005,-0.195006 0.286009,-0.377012 0.136504,-0.188506 0.234007,-0.351012 0.0975,-0.169005 0.149505,-0.305509 0.052,-0.136505 0.052,-0.221008 0,-0.104003 -0.0975,-0.149504 -0.091,-0.0455 -0.29901,-0.0455 V 9.8860758 h 1.495048 v 0.2275072 q -0.143004,0 -0.247008,0.0195 -0.0975,0.013 -0.175505,0.052 -0.078,0.039 -0.149505,0.104004 -0.065,0.065 -0.130004,0.169005 l -0.92303,1.352044 q 0.273009,0.370512 0.565518,0.565518 0.29901,0.188506 0.591519,0.188506 0.0845,0 0.149505,-0.013 0.065,-0.0195 0.117004,-0.0585 0.0585,-0.0455 0.104003,-0.117004 0.052,-0.0715 0.104004,-0.182006 l 0.162505,0.0455 q -0.0715,0.364011 -0.31851,0.559018 -0.247008,0.188506 -0.643521,0.188506 -0.162505,0 -0.31201,-0.039 -0.143005,-0.0325 -0.29251,-0.117004 -0.149505,-0.0845 -0.31851,-0.221007 -0.169005,-0.136505 -0.370512,-0.338011 -0.32501,0.338011 -0.754024,0.526517 -0.422514,0.188506 -0.864528,0.188506 -0.29901,0 -0.552518,-0.0845 -0.247008,-0.091 -0.429014,-0.240508 -0.182006,-0.156005 -0.286009,-0.364011 -0.104004,-0.214507 -0.104004,-0.461515 0,-0.442015 0.351012,-0.812526 0.351011,-0.377013 1.124536,-0.754025 -0.208007,-0.3055097 -0.30551,-0.5720183 -0.091,-0.2665086 -0.091,-0.559018 0,-0.2860093 0.078,-0.5200168 0.0845,-0.2405078 0.234007,-0.4095132 0.149505,-0.1690055 0.357512,-0.2600084 0.208007,-0.097503 0.461515,-0.097503 0.221007,0 0.403013,0.071502 0.188506,0.071502 0.32501,0.2015065 0.136505,0.1300042 0.208007,0.3055099 0.078,0.1755057 0.078,0.3900126 0,0.3640117 -0.240508,0.682522 -0.234008,0.3185103 -0.780025,0.6890226 z m 6.994199,-0.455015 h -1.735556 q -0.110503,0.266509 -0.188506,0.474516 -0.078,0.201506 -0.130004,0.351011 -0.0455,0.149505 -0.065,0.253508 -0.0195,0.104003 -0.0195,0.169006 0,0.182005 0.117004,0.253508 0.117004,0.065 0.390012,0.065 v 0.247008 h -1.579551 v -0.247008 q 0.149505,-0.0195 0.253509,-0.052 0.110503,-0.0325 0.188506,-0.091 0.0845,-0.0585 0.143004,-0.149505 0.065,-0.0975 0.123504,-0.234007 l 1.690055,-4.2316368 h 0.279509 l 1.475548,3.6661188 q 0.149504,0.364011 0.260008,0.585018 0.110504,0.214507 0.214507,0.325011 0.104003,0.110503 0.221007,0.143005 0.123504,0.0325 0.292509,0.0325 v 0.253508 h -2.119068 v -0.253508 q 0.344511,0 0.474515,-0.065 0.130005,-0.065 0.130005,-0.214506 0,-0.065 -0.0065,-0.117004 -0.0065,-0.0585 -0.026,-0.123504 -0.013,-0.065 -0.0455,-0.143005 -0.026,-0.0845 -0.0715,-0.195006 z m -1.605552,-0.32501 h 1.482048 L 71.282488,8.8655429 Z m 4.855653,1.118036 q 0,0.266508 0.013,0.422513 0.013,0.149505 0.065,0.234008 0.0585,0.078 0.162505,0.104003 0.110503,0.026 0.299009,0.039 v 0.221007 h -1.703055 v -0.221007 q 0.182006,-0.013 0.28601,-0.039 0.110503,-0.026 0.169005,-0.104003 0.0585,-0.078 0.0715,-0.221007 0.0195,-0.143005 0.0195,-0.390013 v -0.864528 q 0,-0.773525 -0.039,-0.94253 -0.0195,-0.0845 -0.052,-0.136504 -0.026,-0.058502 -0.0845,-0.084503 -0.0585,-0.032501 -0.149504,-0.039001 -0.091,-0.013 -0.234008,-0.013 V 9.6585685 l 1.040034,-0.247008 0.078,0.6435205 h 0.026 q 0.247008,-0.3055096 0.578519,-0.4745151 0.33151,-0.1690054 0.721523,-0.1690054 0.29901,0 0.546018,0.097503 0.247008,0.097503 0.377012,0.2665086 0.110503,0.1495049 0.156005,0.3900128 0.0455,0.234007 0.0455,0.650021 v 1.085535 q 0,0.266508 0.013,0.422513 0.0195,0.149505 0.0715,0.234008 0.052,0.078 0.156005,0.104003 0.110504,0.026 0.286009,0.039 v 0.221007 h -1.683554 v -0.221007 q 0.182006,-0.0065 0.286009,-0.0325 0.110504,-0.0325 0.162505,-0.110504 0.0585,-0.078 0.0715,-0.221007 0.0195,-0.149505 0.0195,-0.390013 v -0.858027 q 0,-0.370512 -0.039,-0.624021 -0.039,-0.253508 -0.130004,-0.409513 -0.0845,-0.1560048 -0.227507,-0.2210069 -0.143005,-0.071502 -0.344512,-0.071502 -0.292509,0 -0.539517,0.156005 -0.240508,0.1495052 -0.377012,0.4160132 -0.0325,0.065 -0.0585,0.123504 -0.0195,0.0585 -0.0325,0.136505 -0.013,0.078 -0.0195,0.182006 -0.0065,0.0975 -0.0065,0.253508 z m 4.478645,0 q 0,0.266508 0.013,0.422513 0.013,0.149505 0.065,0.234008 0.0585,0.078 0.162505,0.104003 0.110504,0.026 0.29901,0.039 v 0.221007 h -1.703055 v -0.221007 q 0.182006,-0.013 0.286009,-0.039 0.110504,-0.026 0.169005,-0.104003 0.0585,-0.078 0.0715,-0.221007 0.0195,-0.143005 0.0195,-0.390013 v -0.864528 q 0,-0.773525 -0.039,-0.94253 -0.0195,-0.0845 -0.052,-0.136504 -0.026,-0.058502 -0.0845,-0.084503 -0.0585,-0.032501 -0.149505,-0.039001 -0.091,-0.013 -0.234008,-0.013 V 9.6585685 l 1.040034,-0.247008 0.078,0.6435205 h 0.026 q 0.247008,-0.3055096 0.578519,-0.4745151 0.331511,-0.1690054 0.721523,-0.1690054 0.29901,0 0.546018,0.097503 0.247008,0.097503 0.377012,0.2665086 0.110504,0.1495049 0.156005,0.3900128 0.0455,0.234007 0.0455,0.650021 v 1.085535 q 0,0.266508 0.013,0.422513 0.0195,0.149505 0.0715,0.234008 0.052,0.078 0.156005,0.104003 0.110504,0.026 0.28601,0.039 v 0.221007 h -1.683555 v -0.221007 q 0.182006,-0.0065 0.286009,-0.0325 0.110504,-0.0325 0.162506,-0.110504 0.0585,-0.078 0.0715,-0.221007 0.0195,-0.149505 0.0195,-0.390013 v -0.858027 q 0,-0.370512 -0.039,-0.624021 -0.039,-0.253508 -0.130004,-0.409513 -0.0845,-0.1560048 -0.227507,-0.2210069 -0.143005,-0.071502 -0.344511,-0.071502 -0.29251,0 -0.539518,0.156005 -0.240507,0.1495052 -0.377012,0.4160132 -0.0325,0.065 -0.0585,0.123504 -0.0195,0.0585 -0.0325,0.136505 -0.013,0.078 -0.0195,0.182006 -0.0065,0.0975 -0.0065,0.253508 z m 5.343166,-0.903529 q -0.370512,0.143004 -0.63052,0.279509 -0.253509,0.136504 -0.409514,0.273009 -0.156005,0.136504 -0.227507,0.273008 -0.065,0.136505 -0.065,0.279509 0,0.214507 0.143005,0.351012 0.143004,0.136504 0.377012,0.136504 0.169005,0 0.31201,-0.0845 0.149505,-0.0845 0.260008,-0.227507 0.110504,-0.149505 0.175506,-0.344511 0.065,-0.201507 0.065,-0.422514 z m 0,-0.279509 v -0.266509 q 0,-0.7930255 -0.676022,-0.7930255 -0.110503,0 -0.188506,0.019501 -0.078,0.019501 -0.130004,0.065002 -0.052,0.045501 -0.0975,0.1300042 -0.039,0.084503 -0.078,0.2080066 -0.0715,0.188506 -0.143004,0.253508 -0.065,0.0585 -0.195007,0.0585 -0.32501,0 -0.32501,-0.32501 0,-0.3120104 0.33151,-0.4810159 0.331511,-0.1755056 0.942531,-0.1755056 0.650021,0 0.92303,0.2340075 0.273009,0.2275074 0.273009,0.780025 v 1.456047 q 0,0.741024 0.292509,0.741024 0.091,0 0.175506,-0.0195 0.0845,-0.026 0.143004,-0.123503 l 0.091,0.156005 q -0.078,0.149504 -0.286009,0.253508 -0.208007,0.0975 -0.435514,0.0975 -0.286009,0 -0.429014,-0.182006 -0.136504,-0.182006 -0.136504,-0.513517 h -0.0325 q -0.169006,0.318511 -0.468016,0.507017 -0.299009,0.182006 -0.663021,0.182006 -0.409513,0 -0.643521,-0.208007 -0.234007,-0.208007 -0.234007,-0.559018 0,-0.156005 0.052,-0.29901 0.0585,-0.143004 0.182006,-0.273009 0.123504,-0.130004 0.325011,-0.253508 0.201506,-0.130004 0.494016,-0.260008 z m 3.373584,2.203571 v -0.247008 q 0.247008,-0.0065 0.396513,-0.0325 0.156005,-0.0325 0.240507,-0.110504 0.0845,-0.0845 0.110504,-0.221007 0.0325,-0.143005 0.0325,-0.377012 V 8.9045441 q 0,-0.2275073 -0.026,-0.3640117 -0.0195,-0.1430047 -0.091,-0.2210072 -0.065,-0.084503 -0.195006,-0.1105035 -0.130004,-0.032501 -0.338011,-0.045501 v -0.247008 h 2.281574 q 0.585019,0 1.079035,0.1950063 0.500516,0.1950063 0.858027,0.5395174 0.364012,0.3445112 0.565519,0.8190265 0.201506,0.4745153 0.201506,1.0335336 0,0.533017 -0.188506,0.981531 -0.188506,0.442015 -0.533017,0.760525 -0.338011,0.31851 -0.812526,0.500516 -0.474516,0.175506 -1.040034,0.175506 z m 1.573051,-4.6866515 q -0.110504,0 -0.110504,0.1105036 V 11.86214 q 0,0.741023 0.968531,0.741023 0.890529,0 1.365044,-0.526517 0.474516,-0.533017 0.474516,-1.56005 0,-0.5395173 -0.130004,-0.9620309 Q 92.58364,9.1320515 92.336632,8.839542 92.096125,8.5470326 91.751614,8.3910275 91.407102,8.2350225 90.971588,8.2350225 Z m 6.149175,2.7625895 q -0.370512,0.143004 -0.63052,0.279509 -0.253509,0.136504 -0.409514,0.273009 -0.156005,0.136504 -0.227507,0.273008 -0.065,0.136505 -0.065,0.279509 0,0.214507 0.143004,0.351012 0.143005,0.136504 0.377013,0.136504 0.169005,0 0.31201,-0.0845 0.149505,-0.0845 0.260008,-0.227507 0.110504,-0.149505 0.175506,-0.344511 0.065,-0.201507 0.065,-0.422514 z m 0,-0.279509 v -0.266509 q 0,-0.7930255 -0.676022,-0.7930255 -0.110504,0 -0.188506,0.019501 -0.078,0.019501 -0.130004,0.065002 -0.052,0.045501 -0.0975,0.1300042 -0.039,0.084503 -0.078,0.2080066 -0.0715,0.188506 -0.143004,0.253508 -0.065,0.0585 -0.195007,0.0585 -0.32501,0 -0.32501,-0.32501 0,-0.3120104 0.33151,-0.4810159 0.331511,-0.1755056 0.942531,-0.1755056 0.650021,0 0.92303,0.2340075 0.273008,0.2275074 0.273008,0.780025 v 1.456047 q 0,0.741024 0.29251,0.741024 0.091,0 0.175506,-0.0195 0.0845,-0.026 0.143004,-0.123503 l 0.091,0.156005 q -0.078,0.149504 -0.286009,0.253508 -0.208007,0.0975 -0.435514,0.0975 -0.286009,0 -0.429014,-0.182006 -0.136504,-0.182006 -0.136504,-0.513517 h -0.0325 q -0.169006,0.318511 -0.468016,0.507017 -0.299009,0.182006 -0.663021,0.182006 -0.409513,0 -0.643521,-0.208007 -0.234007,-0.208007 -0.234007,-0.559018 0,-0.156005 0.052,-0.29901 0.0585,-0.143004 0.182006,-0.273009 0.123504,-0.130004 0.325011,-0.253508 0.201506,-0.130004 0.494016,-0.260008 z m 1.891557,2.203571 h -0.143005 v -1.118036 h 0.162506 q 0.253508,0.916529 0.923029,0.916529 0.260009,0 0.409514,-0.123504 0.156005,-0.130004 0.156005,-0.390012 0,-0.0975 -0.0325,-0.162506 -0.026,-0.0715 -0.110504,-0.143004 -0.078,-0.078 -0.227507,-0.175506 -0.143005,-0.0975 -0.383513,-0.247008 -0.221007,-0.136504 -0.383512,-0.253508 -0.162505,-0.117004 -0.273009,-0.234008 -0.110503,-0.123504 -0.169005,-0.260008 -0.052,-0.136504 -0.052,-0.31851 0,-0.221007 0.0715,-0.403013 0.078,-0.1885063 0.208007,-0.3185105 0.130004,-0.1300042 0.30551,-0.2015065 0.175506,-0.078003 0.383512,-0.078003 0.175506,0 0.364012,0.058502 0.188506,0.052002 0.331511,0.1430046 l 0.130004,-0.1365044 h 0.123504 V 10.412593 H 99.811847 Q 99.668842,10.01608 99.499836,9.8470745 99.330831,9.6780691 99.083823,9.6780691 q -0.221007,0 -0.357512,0.1170038 -0.130004,0.1170037 -0.130004,0.3250101 0,0.110504 0.0325,0.195007 0.039,0.078 0.117004,0.156005 0.078,0.078 0.195006,0.162505 0.123504,0.078 0.29251,0.182006 0.279509,0.175505 0.474515,0.31201 0.201507,0.136504 0.325007,0.273009 0.12351,0.130004 0.18201,0.273008 0.0585,0.143005 0.0585,0.325011 0,0.461515 -0.299008,0.728023 -0.29901,0.260009 -0.786526,0.260009 -0.507016,0 -0.871028,-0.29251 z m 5.629176,0 h -3.1201 v -0.026 l 2.24907,-3.1461016 h -0.72152 q -0.27951,0 -0.46152,0.026001 -0.1755,0.019501 -0.29251,0.091003 -0.1105,0.065002 -0.169,0.1885058 -0.0585,0.117004 -0.091,0.318511 h -0.208 l 0.104,-0.8970294 h 2.79509 v 0.026001 l -2.21657,3.1201006 h 0.76052 q 0.33151,0 0.54602,-0.026 0.22101,-0.026 0.35751,-0.104003 0.14301,-0.078 0.22101,-0.214507 0.0845,-0.136504 0.14301,-0.364012 h 0.2145 z m 3.67261,-0.539518 q -0.23401,0.28601 -0.60452,0.448515 -0.37052,0.156005 -0.79953,0.156005 -0.34451,0 -0.63702,-0.123504 -0.28601,-0.130004 -0.49402,-0.357512 -0.208,-0.234007 -0.32501,-0.559018 -0.1105,-0.32501 -0.1105,-0.721523 0,-0.416013 0.13,-0.747524 0.13001,-0.338011 0.36402,-0.5720186 0.2405,-0.2405077 0.57201,-0.3640117 0.33802,-0.1300042 0.74103,-0.1300042 0.25351,0 0.46151,0.045501 0.20801,0.039001 0.35751,0.1170038 0.15601,0.071502 0.24051,0.1820059 0.0845,0.1040034 0.0845,0.2275073 0,0.1300041 -0.0845,0.2015061 -0.0845,0.0715 -0.23401,0.0715 -0.117,0 -0.195,-0.0455 -0.078,-0.052 -0.20151,-0.2210068 -0.13,-0.1495049 -0.25351,-0.2080068 -0.117,-0.065002 -0.30551,-0.065002 -0.46151,0 -0.70202,0.3575117 -0.23401,0.357511 -0.23401,1.053034 0,0.747524 0.26001,1.137537 0.26651,0.383512 0.77353,0.383512 0.27301,0 0.51351,-0.104003 0.24051,-0.110504 0.48752,-0.351012 z m 3.4321,0.539518 h -3.1201 v -0.026 l 2.24907,-3.1461016 h -0.72152 q -0.27951,0 -0.46151,0.026001 -0.17551,0.019501 -0.29251,0.091003 -0.11051,0.065002 -0.16901,0.1885058 -0.0585,0.117004 -0.091,0.318511 h -0.20801 l 0.104,-0.8970294 h 2.79509 v 0.026001 l -2.21657,3.1201006 h 0.76053 q 0.33151,0 0.54602,-0.026 0.221,-0.026 0.35751,-0.104003 0.143,-0.078 0.221,-0.214507 0.0845,-0.136504 0.14301,-0.364012 h 0.21451 z m 2.21007,1.020533 q -0.29901,0.669521 -0.92953,0.669521 -0.40951,0 -0.40951,-0.30551 0,-0.162505 0.1105,-0.240507 0.117,-0.0715 0.42251,-0.123504 0.13651,-0.0195 0.23401,-0.0585 0.0975,-0.0325 0.17551,-0.091 0.078,-0.052 0.1365,-0.136505 0.065,-0.0845 0.12351,-0.208006 l 0.2275,-0.455015 -1.24804,-2.710587 q -0.0845,-0.182006 -0.1495,-0.2860096 -0.0585,-0.1105036 -0.13001,-0.1690055 -0.065,-0.065002 -0.1495,-0.084503 -0.0845,-0.026001 -0.21451,-0.039001 V 9.4765626 h 1.72256 v 0.2275073 q -0.43552,0 -0.43552,0.2145069 0,0.084503 0.052,0.2665082 0.052,0.182006 0.13001,0.370512 l 0.71502,1.729056 h 0.0325 l 0.59152,-1.462547 q 0.0845,-0.214507 0.13651,-0.351011 0.0585,-0.136505 0.0845,-0.221007 0.0325,-0.091 0.039,-0.149505 0.013,-0.0585 0.013,-0.1105038 0,-0.1690055 -0.0975,-0.2275074 -0.091,-0.058502 -0.35751,-0.058502 V 9.4765626 h 1.43004 v 0.2275073 q -0.1235,0 -0.208,0.032501 -0.0845,0.032501 -0.17551,0.1495048 -0.0845,0.1105036 -0.19501,0.3250102 -0.104,0.214507 -0.26,0.578519 z m 3.73112,-2.041066 q 0,0.266508 0.013,0.422513 0.013,0.149505 0.065,0.234008 0.0585,0.078 0.16251,0.104003 0.1105,0.026 0.29901,0.039 v 0.221007 h -1.70306 v -0.221007 q 0.18201,-0.013 0.28601,-0.039 0.1105,-0.026 0.16901,-0.104003 0.0585,-0.078 0.0715,-0.221007 0.0195,-0.143005 0.0195,-0.390013 v -0.864528 q 0,-0.773525 -0.039,-0.94253 -0.0195,-0.0845 -0.052,-0.136504 -0.026,-0.058502 -0.0845,-0.084503 -0.0585,-0.032501 -0.1495,-0.039001 -0.091,-0.013 -0.23401,-0.013 V 9.6585685 l 1.04003,-0.247008 0.078,0.6435205 h 0.026 q 0.24701,-0.3055096 0.57852,-0.4745151 0.33151,-0.1690054 0.72152,-0.1690054 0.29901,0 0.54602,0.097503 0.24701,0.097503 0.37701,0.2665086 0.1105,0.1495049 0.156,0.3900128 0.0455,0.234007 0.0455,0.650021 v 1.085535 q 0,0.266508 0.013,0.422513 0.0195,0.149505 0.0715,0.234008 0.052,0.078 0.156,0.104003 0.11051,0.026 0.28601,0.039 v 0.221007 h -1.68355 v -0.221007 q 0.182,-0.0065 0.28601,-0.0325 0.1105,-0.0325 0.1625,-0.110504 0.0585,-0.078 0.0715,-0.221007 0.0195,-0.149505 0.0195,-0.390013 v -0.858027 q 0,-0.370512 -0.039,-0.624021 -0.039,-0.253508 -0.13,-0.409513 -0.0845,-0.1560048 -0.22751,-0.2210069 -0.143,-0.071502 -0.34451,-0.071502 -0.29251,0 -0.53952,0.156005 -0.2405,0.1495052 -0.37701,0.4160132 -0.0325,0.065 -0.0585,0.123504 -0.0195,0.0585 -0.0325,0.136505 -0.013,0.078 -0.0195,0.182006 -0.007,0.0975 -0.007,0.253508 z m 0.30551,-3.2111038 0.84503,-0.773525 q 0.234,-0.2145069 0.43551,-0.2145069 0.1105,0 0.17551,0.058502 0.0715,0.058502 0.0715,0.1690054 0,0.1040034 -0.091,0.1885061 -0.0845,0.078003 -0.24051,0.1495049 l -0.89053,0.4225136 z m 3.3281,4.2316368 h -0.14301 v -1.118036 h 0.16251 q 0.25351,0.916529 0.92303,0.916529 0.26001,0 0.40951,-0.123504 0.15601,-0.130004 0.15601,-0.390012 0,-0.0975 -0.0325,-0.162506 -0.026,-0.0715 -0.11051,-0.143004 -0.078,-0.078 -0.2275,-0.175506 -0.14301,-0.0975 -0.38352,-0.247008 -0.221,-0.136504 -0.38351,-0.253508 -0.1625,-0.117004 -0.27301,-0.234008 -0.1105,-0.123504 -0.169,-0.260008 -0.052,-0.136504 -0.052,-0.31851 0,-0.221007 0.0715,-0.403013 0.078,-0.1885063 0.208,-0.3185105 0.13001,-0.1300042 0.30551,-0.2015065 0.17551,-0.078003 0.38352,-0.078003 0.1755,0 0.36401,0.058502 0.1885,0.052002 0.33151,0.1430046 l 0.13,-0.1365044 h 0.12351 v 0.9360304 h -0.16901 q -0.143,-0.396513 -0.31201,-0.5655185 -0.169,-0.1690054 -0.41601,-0.1690054 -0.22101,0 -0.35751,0.1170038 -0.13001,0.1170037 -0.13001,0.3250101 0,0.110504 0.0325,0.195007 0.039,0.078 0.11701,0.156005 0.078,0.078 0.195,0.162505 0.12351,0.078 0.29251,0.182006 0.27951,0.175505 0.47452,0.31201 0.2015,0.136504 0.32501,0.273009 0.1235,0.130004 0.182,0.273008 0.0585,0.143005 0.0585,0.325011 0,0.461515 -0.29901,0.728023 -0.29901,0.260009 -0.78653,0.260009 -0.50701,0 -0.87103,-0.29251 z m 4.65414,-0.227508 q 0.21451,0 0.29251,-0.0195 0.0845,-0.0195 0.0845,-0.052 -0.007,-0.052 -0.104,-0.188506 -0.0975,-0.136504 -0.25351,-0.32501 l -0.68902,-0.832027 -0.24051,0.227507 v 0.383512 q 0,0.253509 0.0195,0.409514 0.026,0.149504 0.0845,0.240507 0.065,0.0845 0.182,0.117004 0.12351,0.0325 0.31851,0.039 v 0.227508 h -1.84606 v -0.227508 q 0.19501,-0.0065 0.31201,-0.039 0.12351,-0.0325 0.18851,-0.117004 0.0715,-0.0845 0.0975,-0.227507 0.026,-0.143005 0.026,-0.377012 V 9.210054 q 0,-0.494016 -0.013,-0.7475242 -0.007,-0.2535081 -0.065,-0.3445111 -0.0585,-0.091003 -0.19501,-0.1040033 -0.1365,-0.019501 -0.36401,-0.019501 V 7.7735076 l 1.25454,-0.247008 v 3.5686154 l 0.60452,-0.591519 q 0.29251,-0.29251 0.43552,-0.429014 0.143,-0.1430047 0.143,-0.214507 0,-0.071502 -0.1365,-0.1105036 -0.13651,-0.045502 -0.39002,-0.045502 V 9.4765626 h 1.69006 v 0.2275073 q -0.12351,0 -0.21451,0.013 -0.091,0.013001 -0.1755,0.052002 -0.078,0.039001 -0.16901,0.1105036 -0.091,0.065002 -0.20801,0.1690054 l -0.93603,0.832027 1.28705,1.456047 q 0.091,0.110503 0.1625,0.182006 0.078,0.065 0.14951,0.104003 0.078,0.039 0.1625,0.0585 0.091,0.013 0.21451,0.013 v 0.227508 h -1.70956 z m 4.01063,-1.696554 q -0.37051,0.143004 -0.63052,0.279509 -0.25351,0.136504 -0.40951,0.273009 -0.15601,0.136504 -0.22751,0.273008 -0.065,0.136505 -0.065,0.279509 0,0.214507 0.143,0.351012 0.14301,0.136504 0.37701,0.136504 0.16901,0 0.31201,-0.0845 0.14951,-0.0845 0.26001,-0.227507 0.11051,-0.149505 0.17551,-0.344511 0.065,-0.201507 0.065,-0.422514 z m 0,-0.279509 v -0.266509 q 0,-0.7930255 -0.67602,-0.7930255 -0.11051,0 -0.18851,0.019501 -0.078,0.019501 -0.13,0.065002 -0.052,0.045501 -0.0975,0.1300042 -0.039,0.084503 -0.078,0.2080066 -0.0715,0.188506 -0.143,0.253508 -0.065,0.0585 -0.19501,0.0585 -0.32501,0 -0.32501,-0.32501 0,-0.3120104 0.33151,-0.4810159 0.33151,-0.1755056 0.94253,-0.1755056 0.65002,0 0.92303,0.2340075 0.27301,0.2275074 0.27301,0.780025 v 1.456047 q 0,0.741024 0.29251,0.741024 0.091,0 0.17551,-0.0195 0.0845,-0.026 0.143,-0.123503 l 0.091,0.156005 q -0.078,0.149504 -0.28601,0.253508 -0.208,0.0975 -0.43551,0.0975 -0.28601,0 -0.42901,-0.182006 -0.13651,-0.182006 -0.13651,-0.513517 h -0.0325 q -0.169,0.318511 -0.46801,0.507017 -0.29901,0.182006 -0.66303,0.182006 -0.40951,0 -0.64352,-0.208007 -0.234,-0.208007 -0.234,-0.559018 0,-0.156005 0.052,-0.29901 0.0585,-0.143004 0.182,-0.273009 0.12351,-0.130004 0.32501,-0.253508 0.20151,-0.130004 0.49402,-0.260008 z m 1.83306,0.591519 v -0.539518 h 2.00856 v 0.539518 z m 6.98771,-3.3931098 h 0.182 l 0.0585,1.4950483 h -0.2405 Q 137.83801,8.839542 137.4285,8.5145315 137.01899,8.189521 136.44047,8.189521 q -0.39652,0 -0.70853,0.1560051 -0.31201,0.156005 -0.52651,0.4485144 -0.21451,0.2925095 -0.33151,0.7150231 -0.11051,0.4225137 -0.11051,0.9555304 0,1.046534 0.43552,1.612052 0.43551,0.559019 1.26104,0.559019 1.25454,0 1.61205,-1.332543 h 0.26651 v 1.618552 h -0.22751 l -0.1495,-0.513517 q -0.68253,0.578519 -1.65106,0.578519 -0.55252,0 -1.00103,-0.175506 -0.44201,-0.175505 -0.76052,-0.494016 -0.31201,-0.32501 -0.48752,-0.786525 -0.16901,-0.461515 -0.16901,-1.027033 0,-0.5915194 0.18201,-1.0790351 0.18201,-0.4875157 0.50702,-0.8385271 0.33151,-0.3510113 0.78652,-0.5395174 0.46152,-0.1950063 1.01403,-0.1950063 0.39002,0 0.73453,0.1105036 0.34451,0.1105036 0.74752,0.3575115 z m 2.21656,3.9716278 q 0,0.253509 0.0195,0.409514 0.026,0.149504 0.091,0.240507 0.065,0.0845 0.182,0.117004 0.11701,0.0325 0.31201,0.039 v 0.227508 h -1.86556 v -0.227508 q 0.19501,-0.0065 0.31851,-0.039 0.12351,-0.039 0.18851,-0.117004 0.0715,-0.0845 0.091,-0.227507 0.026,-0.149505 0.026,-0.377012 v -0.832027 q 0,-0.377012 -0.013,-0.61752 -0.007,-0.247008 -0.0325,-0.338011 -0.0325,-0.1495046 -0.1495,-0.2015063 -0.11701,-0.058502 -0.44202,-0.058502 V 9.6585685 l 1.27404,-0.247008 z m -0.74752,-3.7961221 q 0,-0.1690055 0.117,-0.2860092 0.11701,-0.1170038 0.28601,-0.1170038 0.16901,0 0.28601,0.1170038 0.11701,0.1170037 0.11701,0.2860092 0,0.1690054 -0.11701,0.2860092 -0.117,0.1170038 -0.28601,0.1170038 -0.169,0 -0.28601,-0.1170038 -0.117,-0.1170038 -0.117,-0.2860092 z m 2.71058,3.4711121 q 0,0.247008 0.0715,0.455015 0.0715,0.201506 0.195,0.351011 0.13001,0.143005 0.30551,0.227507 0.18201,0.0845 0.39002,0.0845 0.2275,0 0.40951,-0.104003 0.1885,-0.104004 0.31851,-0.29251 0.1365,-0.195006 0.20801,-0.461515 0.078,-0.273008 0.078,-0.604519 0,-0.331511 -0.078,-0.60452 -0.078,-0.279509 -0.21451,-0.474515 -0.13651,-0.2015065 -0.33151,-0.3120101 -0.18851,-0.1105036 -0.41602,-0.1105036 -0.2665,0 -0.47451,0.1300042 -0.20801,0.123504 -0.31851,0.3510115 -0.14301,0.286009 -0.14301,0.786525 z m -0.013,-1.6250525 h 0.026 q 0.208,-0.2730088 0.45501,-0.3965128 0.25351,-0.1300042 0.58502,-0.1300042 0.35101,0 0.65002,0.1365044 0.30551,0.1365044 0.52652,0.3770122 0.2275,0.2405079 0.35101,0.5720189 0.13,0.32501 0.13,0.702022 0,0.383513 -0.13,0.715023 -0.13001,0.325011 -0.35751,0.565519 -0.22101,0.240507 -0.52652,0.377012 -0.30551,0.136504 -0.66302,0.136504 -0.37051,0 -0.69552,-0.136504 -0.31851,-0.136505 -0.52652,-0.370512 l -0.30551,0.435514 h -0.14301 V 8.9955471 q 0,-0.6565212 -0.0845,-0.8385271 -0.0195,-0.045501 -0.0455,-0.071502 -0.026,-0.032501 -0.078,-0.052002 -0.052,-0.026001 -0.14301,-0.045502 -0.091,-0.019501 -0.24701,-0.039001 V 7.786508 l 1.22204,-0.2600084 z m 5.14816,-0.526517 q 0.37051,0 0.70202,0.1365044 0.33152,0.1300042 0.57852,0.3640117 0.25351,0.2340074 0.39652,0.5590184 0.1495,0.31851 0.1495,0.702022 0,0.396513 -0.1495,0.728024 -0.14301,0.331511 -0.39652,0.572018 -0.247,0.240508 -0.57852,0.377012 -0.33151,0.136505 -0.70202,0.136505 -0.36401,0 -0.69552,-0.130004 -0.32501,-0.136505 -0.57202,-0.377012 -0.24701,-0.240508 -0.39001,-0.572019 -0.14301,-0.338011 -0.14301,-0.734524 0,-0.383512 0.14301,-0.708523 0.143,-0.32501 0.39001,-0.5590176 0.24701,-0.2340075 0.57202,-0.3640117 0.33151,-0.1300042 0.69552,-0.1300042 z m 0,0.31201 q -0.24051,0 -0.44201,0.1040034 -0.19501,0.1040034 -0.33801,0.2990101 -0.13651,0.188506 -0.21451,0.461514 -0.0715,0.266509 -0.0715,0.59152 0,0.33801 0.0715,0.611019 0.078,0.273009 0.21451,0.468015 0.143,0.188506 0.33801,0.29251 0.195,0.104003 0.44201,0.104003 0.24701,0 0.44852,-0.104003 0.2015,-0.104004 0.34451,-0.29901 0.143,-0.195006 0.22101,-0.468015 0.078,-0.273009 0.078,-0.604519 0,-0.325011 -0.078,-0.59152 -0.078,-0.266508 -0.22101,-0.455014 -0.14301,-0.1950065 -0.34451,-0.2990099 -0.20151,-0.1105036 -0.44852,-0.1105036 z m 3.58161,2.1645695 q 0,0.266509 0.013,0.422514 0.013,0.156005 0.065,0.240508 0.0585,0.078 0.16251,0.104003 0.104,0.026 0.29251,0.039 v 0.227508 h -1.72906 v -0.227508 q 0.18851,-0.0065 0.29901,-0.0325 0.1105,-0.0325 0.16901,-0.110503 0.0585,-0.078 0.0715,-0.221007 0.0195,-0.149505 0.0195,-0.396513 v -0.760525 q 0,-0.442014 -0.013,-0.689022 -0.007,-0.247008 -0.065,-0.364012 -0.052,-0.117003 -0.16901,-0.1365041 -0.117,-0.026001 -0.32501,-0.026001 V 9.7300708 l 1.13754,-0.247008 0.091,0.8060262 h 0.026 q 0.0845,-0.195006 0.20801,-0.3575117 0.13,-0.1625053 0.27951,-0.2730088 0.1495,-0.1170038 0.31201,-0.1820059 0.1625,-0.065002 0.33151,-0.065002 0.208,0 0.32501,0.1040033 0.1235,0.097503 0.1235,0.2665086 0,0.1560051 -0.0975,0.2470076 -0.0975,0.0845 -0.27951,0.0845 -0.104,0 -0.17551,-0.026 -0.0715,-0.026 -0.13,-0.052 -0.052,-0.0325 -0.104,-0.058502 -0.0455,-0.026001 -0.10401,-0.026001 -0.1755,0 -0.35101,0.2275071 -0.1755,0.221007 -0.27301,0.565518 -0.052,0.188507 -0.0845,0.429014 -0.026,0.234008 -0.026,0.494016 z m 3.6986,-2.4765795 q 0.37052,0 0.70203,0.1365044 0.33151,0.1300042 0.57852,0.3640117 0.2535,0.2340074 0.39651,0.5590184 0.1495,0.31851 0.1495,0.702022 0,0.396513 -0.1495,0.728024 -0.14301,0.331511 -0.39651,0.572018 -0.24701,0.240508 -0.57852,0.377012 -0.33151,0.136505 -0.70203,0.136505 -0.36401,0 -0.69552,-0.130004 -0.32501,-0.136505 -0.57202,-0.377012 -0.247,-0.240508 -0.39001,-0.572019 -0.143,-0.338011 -0.143,-0.734524 0,-0.383512 0.143,-0.708523 0.14301,-0.32501 0.39001,-0.5590176 0.24701,-0.2340075 0.57202,-0.3640117 0.33151,-0.1300042 0.69552,-0.1300042 z m 0,0.31201 q -0.2405,0 -0.44201,0.1040034 -0.19501,0.1040034 -0.33801,0.2990101 -0.1365,0.188506 -0.21451,0.461514 -0.0715,0.266509 -0.0715,0.59152 0,0.33801 0.0715,0.611019 0.078,0.273009 0.21451,0.468015 0.143,0.188506 0.33801,0.29251 0.19501,0.104003 0.44201,0.104003 0.24701,0 0.44852,-0.104003 0.20151,-0.104004 0.34451,-0.29901 0.143,-0.195006 0.22101,-0.468015 0.078,-0.273009 0.078,-0.604519 0,-0.325011 -0.078,-0.59152 -0.078,-0.266508 -0.22101,-0.455014 -0.143,-0.1950065 -0.34451,-0.2990099 -0.20151,-0.1105036 -0.44852,-0.1105036 z m 3.81562,3.2631055 h -0.24051 l -0.84503,-2.704087 q -0.0585,-0.182006 -0.1105,-0.2925098 -0.052,-0.1105036 -0.1235,-0.1755057 -0.0715,-0.065002 -0.16901,-0.084503 -0.0975,-0.026001 -0.24051,-0.026001 V 9.4765626 h 1.72256 v 0.2275073 q -0.25351,0 -0.35751,0.058502 -0.10401,0.058502 -0.10401,0.2015065 0,0.065002 0.0195,0.1560047 0.0195,0.0845 0.052,0.214507 l 0.44201,1.55355 h 0.026 l 0.95553,-2.4115774 h 0.20151 l 0.86453,2.4115774 h 0.026 l 0.39001,-1.053034 q 0.078,-0.214506 0.13,-0.357511 0.052,-0.149505 0.078,-0.247008 0.0325,-0.104003 0.0455,-0.169006 0.013,-0.065002 0.013,-0.1235035 0,-0.1430046 -0.0845,-0.1885061 -0.0845,-0.045502 -0.35102,-0.045502 V 9.4765626 h 1.30005 v 0.2275073 q -0.0975,0 -0.16901,0.032501 -0.065,0.026001 -0.1365,0.1105035 -0.065,0.084503 -0.13651,0.2405075 -0.0715,0.156005 -0.1755,0.409514 l -1.00754,2.48958 h -0.2405 l -0.79303,-2.398578 h -0.026 z m 4.23163,-0.065 h -0.143 v -1.118036 h 0.1625 q 0.25351,0.916529 0.92303,0.916529 0.26001,0 0.40952,-0.123504 0.156,-0.130004 0.156,-0.390012 0,-0.0975 -0.0325,-0.162506 -0.026,-0.0715 -0.1105,-0.143004 -0.078,-0.078 -0.22751,-0.175506 -0.143,-0.0975 -0.38351,-0.247008 -0.22101,-0.136504 -0.38351,-0.253508 -0.16251,-0.117004 -0.27301,-0.234008 -0.11051,-0.123504 -0.16901,-0.260008 -0.052,-0.136504 -0.052,-0.31851 0,-0.221007 0.0715,-0.403013 0.078,-0.1885063 0.20801,-0.3185105 0.13,-0.1300042 0.30551,-0.2015065 0.1755,-0.078003 0.38351,-0.078003 0.17551,0 0.36401,0.058502 0.18851,0.052002 0.33151,0.1430046 l 0.13001,-0.1365044 h 0.1235 v 0.9360304 h -0.169 q -0.14301,-0.396513 -0.31201,-0.5655185 -0.16901,-0.1690054 -0.41602,-0.1690054 -0.221,0 -0.35751,0.1170038 -0.13,0.1170037 -0.13,0.3250101 0,0.110504 0.0325,0.195007 0.039,0.078 0.117,0.156005 0.078,0.078 0.19501,0.162505 0.1235,0.078 0.29251,0.182006 0.27951,0.175505 0.47451,0.31201 0.20151,0.136504 0.32501,0.273009 0.12351,0.130004 0.18201,0.273008 0.0585,0.143005 0.0585,0.325011 0,0.461515 -0.29901,0.728023 -0.29901,0.260009 -0.78652,0.260009 -0.50702,0 -0.87103,-0.29251 z m 4.65414,-0.227508 q 0.21451,0 0.29251,-0.0195 0.0845,-0.0195 0.0845,-0.052 -0.007,-0.052 -0.104,-0.188506 -0.0975,-0.136504 -0.25351,-0.32501 l -0.68902,-0.832027 -0.24051,0.227507 v 0.383512 q 0,0.253509 0.0195,0.409514 0.026,0.149504 0.0845,0.240507 0.065,0.0845 0.18201,0.117004 0.1235,0.0325 0.31851,0.039 v 0.227508 h -1.84606 v -0.227508 q 0.19501,-0.0065 0.31201,-0.039 0.1235,-0.0325 0.18851,-0.117004 0.0715,-0.0845 0.0975,-0.227507 0.026,-0.143005 0.026,-0.377012 V 9.210054 q 0,-0.494016 -0.013,-0.7475242 -0.007,-0.2535081 -0.065,-0.3445111 -0.0585,-0.091003 -0.19501,-0.1040033 -0.1365,-0.019501 -0.36401,-0.019501 V 7.7735076 l 1.25454,-0.247008 v 3.5686154 l 0.60452,-0.591519 q 0.29251,-0.29251 0.43551,-0.429014 0.14301,-0.1430047 0.14301,-0.214507 0,-0.071502 -0.13651,-0.1105036 -0.1365,-0.045502 -0.39001,-0.045502 V 9.4765626 h 1.69006 v 0.2275073 q -0.12351,0 -0.21451,0.013 -0.091,0.013001 -0.17551,0.052002 -0.078,0.039001 -0.169,0.1105036 -0.091,0.065002 -0.20801,0.1690054 l -0.93603,0.832027 1.28704,1.456047 q 0.091,0.110503 0.16251,0.182006 0.078,0.065 0.1495,0.104003 0.078,0.039 0.16251,0.0585 0.091,0.013 0.2145,0.013 v 0.227508 h -1.70955 z m 4.01063,-1.696554 q -0.37051,0.143004 -0.63052,0.279509 -0.2535,0.136504 -0.40951,0.273009 -0.156,0.136504 -0.22751,0.273008 -0.065,0.136505 -0.065,0.279509 0,0.214507 0.14301,0.351012 0.143,0.136504 0.37701,0.136504 0.169,0 0.31201,-0.0845 0.1495,-0.0845 0.26001,-0.227507 0.1105,-0.149505 0.1755,-0.344511 0.065,-0.201507 0.065,-0.422514 z m 0,-0.279509 v -0.266509 q 0,-0.7930255 -0.67602,-0.7930255 -0.1105,0 -0.1885,0.019501 -0.078,0.019501 -0.13001,0.065002 -0.052,0.045501 -0.0975,0.1300042 -0.039,0.084503 -0.078,0.2080066 -0.0715,0.188506 -0.14301,0.253508 -0.065,0.0585 -0.195,0.0585 -0.32501,0 -0.32501,-0.32501 0,-0.3120104 0.33151,-0.4810159 0.33151,-0.1755056 0.94253,-0.1755056 0.65002,0 0.92303,0.2340075 0.27301,0.2275074 0.27301,0.780025 v 1.456047 q 0,0.741024 0.2925,0.741024 0.091,0 0.17551,-0.0195 0.0845,-0.026 0.14301,-0.123503 l 0.091,0.156005 q -0.078,0.149504 -0.28601,0.253508 -0.20801,0.0975 -0.43552,0.0975 -0.286,0 -0.42901,-0.182006 -0.1365,-0.182006 -0.1365,-0.513517 h -0.0325 q -0.16901,0.318511 -0.46802,0.507017 -0.29901,0.182006 -0.66302,0.182006 -0.40951,0 -0.64352,-0.208007 -0.23401,-0.208007 -0.23401,-0.559018 0,-0.156005 0.052,-0.29901 0.0585,-0.143004 0.18201,-0.273009 0.1235,-0.130004 0.32501,-0.253508 0.20151,-0.130004 0.49401,-0.260008 z" id="text2" aria-label="Jakub Ciborowski &amp; Anna Daszczyńska-Ciborowska" />
</svg>
