<?xml version="1.0" encoding="UTF-8" standalone="no"?>

<svg width="174mm" height="16mm" viewBox="0 0 174 16" version="1.1" id="svg1" xmlns="http://www.w3.org/2000/svg" xmlns:svg="http://www.w3.org/2000/svg">
  <defs id="defs1" />
  <g id="layer1">
    <g id="g1" transform="translate(-11.879122,-78.562945)">
      <path style="font-size:6.6697px;font-family:'Libre Baskerville';-inkscape-font-specification:'Libre Baskerville';display:inline;stroke:none;stroke-width:0.574085" d="m 14.694008,87.208531 q 0,-0.244922 -0.02713,-0.391876 -0.02035,-0.153952 -0.09494,-0.237925 -0.06782,-0.09097 -0.203463,-0.118962 -0.13564,-0.03498 -0.352666,-0.04899 v -0.265915 h 2.061747 v 0.265915 q -0.217026,0.007 -0.352667,0.04199 -0.12886,0.03498 -0.203462,0.12596 -0.06782,0.09097 -0.09495,0.25192 -0.02035,0.160948 -0.02035,0.426864 v 4.28964 q 0,0.881719 -0.359449,1.343574 -0.359451,0.461853 -1.05122,0.461853 -0.467962,0 -0.746028,-0.188941 -0.284846,-0.181941 -0.284846,-0.489844 0,-0.181942 0.09495,-0.279911 0.08817,-0.09098 0.250937,-0.09098 0.128859,0 0.210244,0.06299 0.07461,0.06998 0.176333,0.265916 0.115296,0.223928 0.19668,0.300904 0.08817,0.08397 0.223809,0.08397 0.278064,0 0.42727,-0.307902 0.149205,-0.307902 0.149205,-0.874722 z m 3.831853,2.253285 q -0.386577,0.15395 -0.65786,0.300904 -0.2645,0.146952 -0.42727,0.293907 -0.162768,0.146954 -0.237372,0.293906 -0.06782,0.146954 -0.06782,0.300905 0,0.230927 0.149204,0.37788 0.149207,0.146953 0.393361,0.146953 0.176333,0 0.325538,-0.09098 0.155989,-0.09098 0.271283,-0.244923 0.115294,-0.160948 0.183115,-0.370882 0.06782,-0.216931 0.06782,-0.454855 z m 0,-0.300905 v -0.286909 q 0,-0.853729 -0.705334,-0.853729 -0.115294,0 -0.19668,0.02099 -0.08139,0.02099 -0.135641,0.06998 -0.05426,0.04899 -0.10173,0.139956 -0.0407,0.09097 -0.08139,0.223928 -0.07461,0.202936 -0.149204,0.272914 -0.06782,0.06298 -0.203462,0.06298 -0.339104,0 -0.339104,-0.349889 0,-0.335893 0.345886,-0.517836 0.345884,-0.18894 0.983398,-0.18894 0.678207,0 0.963054,0.25192 0.284847,0.244922 0.284847,0.839733 v 1.567504 q 0,0.797746 0.305192,0.797746 0.09495,0 0.183115,-0.021 0.08817,-0.02799 0.149207,-0.132958 l 0.09495,0.167947 q -0.08139,0.160948 -0.298411,0.272912 -0.217026,0.104968 -0.454398,0.104968 -0.298412,0 -0.447616,-0.195938 -0.142424,-0.195938 -0.142424,-0.552825 h -0.03391 q -0.176333,0.342891 -0.488308,0.545828 -0.311975,0.195936 -0.69177,0.195936 -0.42727,0 -0.671425,-0.223928 -0.244154,-0.223929 -0.244154,-0.60181 0,-0.167946 0.05426,-0.321897 0.06104,-0.153951 0.189897,-0.293907 0.12886,-0.139955 0.339104,-0.272913 0.210244,-0.139955 0.515436,-0.279911 z m 3.750475,2.127325 q 0.223808,0 0.305192,-0.021 0.08817,-0.021 0.08817,-0.05598 -0.0068,-0.05598 -0.108513,-0.202936 -0.101729,-0.146953 -0.264499,-0.349889 l -0.718899,-0.895715 -0.250937,0.244922 v 0.412869 q 0,0.272913 0.02035,0.44086 0.02713,0.16095 0.08817,0.258918 0.06782,0.09098 0.189898,0.125959 0.128859,0.03499 0.332321,0.04199 v 0.244922 H 20.031477 V 91.28823 q 0.203462,-0.007 0.32554,-0.04199 0.128858,-0.03499 0.196679,-0.125959 0.0746,-0.09098 0.101729,-0.244922 0.02713,-0.153951 0.02713,-0.405872 v -2.932061 q 0,-0.531832 -0.01356,-0.804744 -0.0068,-0.272914 -0.06782,-0.370883 -0.06104,-0.09797 -0.203462,-0.111964 -0.142424,-0.02099 -0.379796,-0.02099 V 85.99092 l 1.308932,-0.265916 v 3.841782 l 0.630732,-0.636799 q 0.305193,-0.314899 0.454398,-0.461853 0.149206,-0.153951 0.149206,-0.230927 0,-0.07697 -0.142424,-0.118962 -0.142423,-0.04898 -0.406924,-0.04898 v -0.244922 h 1.763337 v 0.244922 q -0.128859,0 -0.223808,0.014 -0.09494,0.014 -0.183116,0.05598 -0.08139,0.04199 -0.176333,0.118962 -0.09495,0.06998 -0.217026,0.181942 l -0.976618,0.895717 1.342849,1.567503 q 0.09495,0.118962 0.169551,0.195936 0.08139,0.06998 0.155988,0.111966 0.08139,0.04199 0.169552,0.06299 0.09495,0.01399 0.223808,0.01399 v 0.244923 h -1.78368 z m 4.957683,-2.344256 q 0,-0.286909 -0.01356,-0.447858 -0.01356,-0.167947 -0.0746,-0.25192 -0.05426,-0.09097 -0.169552,-0.118962 -0.108514,-0.03498 -0.305193,-0.05598 v -0.244922 h 1.227553 v 2.148319 q 0,0.398873 0.0068,0.650793 0.01356,0.25192 0.03391,0.37788 0.01356,0.09098 0.0407,0.146953 0.03391,0.04899 0.09495,0.08397 0.06104,0.02799 0.155987,0.04199 0.101729,0.007 0.257719,0.007 v 0.244922 l -1.119041,0.08397 -0.07461,-0.839734 h -0.02713 q -0.257719,0.433863 -0.596822,0.636798 -0.332321,0.195937 -0.698552,0.195937 -0.284847,0 -0.556129,-0.111964 -0.264501,-0.111965 -0.400143,-0.300904 -0.115294,-0.153952 -0.169551,-0.426865 -0.04747,-0.272914 -0.04747,-0.706776 V 88.94394 q 0,-0.286908 -0.01356,-0.447857 -0.01356,-0.167947 -0.0746,-0.25192 -0.05426,-0.09097 -0.169553,-0.118963 -0.108513,-0.03498 -0.305192,-0.05598 v -0.244893 h 1.227553 v 1.910394 q 0,0.762759 0.169551,1.105649 0.176335,0.342892 0.55613,0.342892 0.596821,0 0.929143,-0.804745 0.03391,-0.08397 0.05426,-0.153951 0.02035,-0.06998 0.03391,-0.153952 0.01356,-0.08397 0.02035,-0.188938 0.0068,-0.104968 0.0068,-0.251921 z m 2.685686,1.126642 q 0,0.265916 0.0746,0.489844 0.07461,0.216931 0.203462,0.377881 0.135642,0.153951 0.318758,0.244922 0.189898,0.09098 0.406923,0.09098 0.237373,0 0.42727,-0.111963 0.19668,-0.111965 0.332322,-0.314901 0.142423,-0.209933 0.217026,-0.496842 0.08139,-0.293907 0.08139,-0.650794 0,-0.356886 -0.08139,-0.650793 -0.08139,-0.300904 -0.223808,-0.510838 -0.142423,-0.216939 -0.345885,-0.335901 -0.196679,-0.118962 -0.434052,-0.118962 -0.278064,0 -0.495091,0.139955 -0.217026,0.132958 -0.33232,0.377881 -0.149205,0.307902 -0.149205,0.846731 z m -0.01356,-1.749445 h 0.02713 q 0.217027,-0.293906 0.474746,-0.426864 0.2645,-0.139956 0.610386,-0.139956 0.366231,0 0.678206,0.146954 0.318757,0.146953 0.549347,0.40587 0.237372,0.258918 0.366231,0.615805 0.135641,0.34989 0.135641,0.755761 0,0.412869 -0.135641,0.769755 -0.135641,0.349889 -0.373013,0.608807 -0.230591,0.258918 -0.549347,0.405872 -0.318758,0.146953 -0.69177,0.146953 -0.386578,0 -0.725682,-0.146953 -0.33232,-0.146954 -0.549346,-0.398874 l -0.318758,0.468851 h -0.149206 v -4.226659 q 0,-0.706775 -0.08817,-0.902713 -0.02035,-0.04898 -0.04747,-0.07697 -0.02714,-0.03498 -0.08139,-0.05598 -0.05426,-0.02799 -0.149206,-0.04899 -0.09495,-0.02099 -0.257719,-0.04199 V 86.004912 L 29.906142,85.725 Z m 9.786504,-2.176309 h 0.189898 l 0.06104,1.609489 h -0.250942 q -0.149205,-0.615805 -0.576474,-0.965694 -0.42727,-0.349888 -1.030875,-0.349888 -0.413706,0 -0.739244,0.167947 -0.32554,0.167946 -0.549348,0.482846 -0.223808,0.3149 -0.345885,0.769756 -0.115295,0.454855 -0.115295,1.028674 0,1.126642 0.454397,1.735449 0.454399,0.601809 1.315721,0.601809 1.308938,0 1.681953,-1.434546 h 0.278064 v 1.742448 h -0.237371 l -0.155987,-0.552824 q -0.712116,0.622802 -1.722644,0.622802 -0.576475,0 -1.044438,-0.18894 -0.46118,-0.18894 -0.793502,-0.531831 -0.325538,-0.349889 -0.508654,-0.846731 -0.176334,-0.496843 -0.176334,-1.10565 0,-0.636797 0.189898,-1.161631 0.189898,-0.524834 0.529001,-0.902713 0.345886,-0.377881 0.82063,-0.580816 0.481526,-0.209934 1.058002,-0.209934 0.406924,0 0.766373,0.118962 0.35945,0.118962 0.779938,0.384878 z m 2.312671,4.275643 q 0,0.272913 0.02035,0.440861 0.02713,0.160949 0.09495,0.258918 0.06782,0.09098 0.189899,0.125959 0.122077,0.03499 0.325538,0.04199 v 0.244922 h -1.946463 v -0.24492 q 0.203462,-0.007 0.332323,-0.04199 0.128858,-0.04199 0.196679,-0.125959 0.07461,-0.09098 0.09495,-0.244923 0.02712,-0.160949 0.02712,-0.405871 v -0.895716 q 0,-0.405871 -0.01356,-0.664789 -0.0068,-0.265915 -0.03391,-0.363885 -0.03391,-0.160948 -0.155987,-0.216931 -0.122077,-0.06297 -0.46118,-0.06297 v -0.244923 l 1.329286,-0.265916 z m -0.779938,-4.086703 q 0,-0.181942 0.122076,-0.307902 0.122078,-0.12596 0.298411,-0.12596 0.176333,0 0.298411,0.12596 0.122076,0.12596 0.122076,0.307902 0,0.181943 -0.122076,0.307903 -0.122078,0.125959 -0.298411,0.125959 -0.176333,0 -0.298411,-0.125959 -0.122076,-0.12596 -0.122076,-0.307903 z m 2.828118,3.736814 q 0,0.265916 0.07461,0.489844 0.07461,0.216931 0.203462,0.377881 0.135641,0.153951 0.318757,0.244922 0.189897,0.09098 0.406924,0.09098 0.237371,0 0.42727,-0.111963 0.196679,-0.111965 0.33232,-0.314901 0.142424,-0.209933 0.217027,-0.496842 0.08139,-0.293907 0.08139,-0.650794 0,-0.356886 -0.08139,-0.650793 -0.08139,-0.300904 -0.223808,-0.510838 -0.142427,-0.216935 -0.345889,-0.335897 -0.19668,-0.118962 -0.434052,-0.118962 -0.278066,0 -0.495091,0.139956 -0.217026,0.132957 -0.332321,0.37788 -0.149206,0.307902 -0.149206,0.846731 z m -0.01356,-1.749445 h 0.02713 q 0.217025,-0.293906 0.474744,-0.426864 0.264501,-0.139956 0.610386,-0.139956 0.366231,0 0.678206,0.146954 0.318758,0.146953 0.549347,0.40587 0.237373,0.258918 0.366231,0.615805 0.135641,0.34989 0.135641,0.755761 0,0.412869 -0.135641,0.769755 -0.13564,0.349889 -0.373012,0.608807 -0.230591,0.258918 -0.549348,0.405872 -0.318757,0.146953 -0.69177,0.146953 -0.386578,0 -0.725681,-0.146953 -0.332322,-0.146954 -0.549348,-0.398874 l -0.318754,0.468851 h -0.149206 v -4.226659 q 0,-0.706775 -0.08817,-0.902713 -0.02035,-0.04898 -0.04747,-0.07697 -0.02713,-0.03498 -0.08139,-0.05598 -0.05426,-0.02799 -0.149205,-0.04899 -0.09495,-0.02099 -0.257719,-0.04199 V 86.004912 L 44.039938,85.725 Z m 5.371392,-0.56682 q 0.386578,0 0.732462,0.146954 0.345886,0.139956 0.603605,0.391876 0.264499,0.251919 0.413705,0.601808 0.155988,0.342891 0.155988,0.75576 0,0.426865 -0.155988,0.783752 -0.149206,0.356887 -0.413705,0.615805 -0.257719,0.258917 -0.603605,0.405871 -0.345884,0.146953 -0.732462,0.146953 -0.379796,0 -0.725681,-0.139955 Q 48.346549,91.316227 48.08883,91.057309 47.831112,90.798391 47.681906,90.441505 47.5327,90.07762 47.5327,89.650755 q 0,-0.412869 0.149206,-0.762757 0.149206,-0.349889 0.406924,-0.601809 0.257719,-0.25192 0.596821,-0.391876 0.345885,-0.139956 0.725681,-0.139956 z m 0,0.335893 q -0.250936,0 -0.46118,0.111965 -0.203462,0.111964 -0.352668,0.321898 -0.142423,0.202936 -0.223808,0.496842 -0.07461,0.286909 -0.07461,0.636798 0,0.363885 0.07461,0.657791 0.08139,0.293907 0.223808,0.503841 0.149206,0.202936 0.352668,0.3149 0.203461,0.111964 0.46118,0.111964 0.257718,0 0.467963,-0.111964 0.210244,-0.111964 0.359448,-0.321898 0.149206,-0.209933 0.230591,-0.503841 0.08139,-0.293906 0.08139,-0.650793 0,-0.349889 -0.08139,-0.636798 Q 50.38795,88.734047 50.238741,88.53111 50.089537,88.321177 49.879293,88.209213 49.669048,88.09025 49.41133,88.09025 Z m 3.73691,2.330261 q 0,0.286909 0.01356,0.454856 0.01356,0.167946 0.06782,0.258918 0.06104,0.08397 0.169551,0.111964 0.108514,0.02799 0.305194,0.04199 v 0.244922 h -1.804029 v -0.24492 q 0.19668,-0.007 0.311975,-0.035 0.115295,-0.03499 0.176334,-0.118962 0.06104,-0.08397 0.07461,-0.237925 0.02035,-0.160949 0.02035,-0.426865 v -0.81874 q 0,-0.475849 -0.01356,-0.741765 -0.0068,-0.265914 -0.06782,-0.391874 -0.05427,-0.125959 -0.176342,-0.146952 -0.122076,-0.02799 -0.339104,-0.02799 v -0.244923 l 1.186862,-0.265916 0.09495,0.867725 h 0.02712 q 0.08817,-0.209933 0.217027,-0.384878 0.135641,-0.174944 0.291628,-0.293906 0.155988,-0.12596 0.325539,-0.195939 0.169552,-0.06998 0.345885,-0.06998 0.217026,0 0.339104,0.111965 0.128858,0.104966 0.128858,0.286909 0,0.167946 -0.101729,0.265915 -0.10173,0.09097 -0.291629,0.09097 -0.108513,0 -0.183115,-0.02799 -0.07461,-0.02799 -0.135642,-0.05598 -0.05426,-0.03499 -0.108513,-0.06298 -0.04747,-0.02799 -0.108514,-0.02799 -0.183115,0 -0.36623,0.244922 -0.183116,0.237924 -0.284848,0.608806 -0.05426,0.202936 -0.08817,0.461853 -0.02712,0.25192 -0.02712,0.531832 z m 3.85898,-2.666154 q 0.386578,0 0.732463,0.146954 0.345885,0.139956 0.603604,0.391876 0.264499,0.251919 0.413706,0.601808 0.155987,0.342891 0.155987,0.75576 0,0.426865 -0.155987,0.783752 -0.149207,0.356887 -0.413706,0.615805 -0.257719,0.258917 -0.603604,0.405871 -0.345885,0.146953 -0.732463,0.146953 -0.379796,0 -0.725681,-0.139955 -0.339103,-0.146954 -0.596821,-0.405872 -0.257719,-0.258918 -0.406923,-0.615804 -0.149207,-0.363885 -0.149207,-0.79075 0,-0.412869 0.149207,-0.762757 0.149204,-0.349889 0.406923,-0.601809 0.257718,-0.25192 0.596821,-0.391876 0.345885,-0.139956 0.725681,-0.139956 z m 0,0.335893 q -0.250936,0 -0.461181,0.111965 -0.203461,0.111964 -0.352667,0.321898 -0.142423,0.202936 -0.223808,0.496842 -0.07461,0.286909 -0.07461,0.636798 0,0.363885 0.07461,0.657791 0.08139,0.293907 0.223808,0.503841 0.149206,0.202936 0.352667,0.3149 0.203462,0.111964 0.461181,0.111964 0.257719,0 0.467962,-0.111964 0.210245,-0.111964 0.359449,-0.321898 0.149206,-0.209933 0.230591,-0.503841 0.08139,-0.293906 0.08139,-0.650793 0,-0.349889 -0.08139,-0.636798 Q 57.98384,88.734047 57.834631,88.53111 57.685427,88.321177 57.475182,88.209213 57.264939,88.09025 57.00722,88.09025 Z m 3.981062,3.512886 H 60.737346 L 59.855678,88.69206 q -0.06104,-0.195938 -0.115296,-0.3149 -0.05426,-0.118962 -0.128859,-0.188941 -0.07461,-0.06998 -0.176334,-0.09097 -0.101729,-0.02799 -0.250936,-0.02799 v -0.244926 h 1.79724 v 0.244922 q -0.2645,0 -0.373013,0.06298 -0.108514,0.06297 -0.108514,0.216931 0,0.06998 0.02035,0.167946 0.02035,0.09097 0.05426,0.230927 l 0.46118,1.67247 h 0.02713 l 0.996958,-2.596177 h 0.210245 l 0.902014,2.596177 h 0.02714 l 0.406924,-1.13364 q 0.08139,-0.230927 0.135641,-0.384878 0.05426,-0.160949 0.08139,-0.265915 0.03391,-0.111965 0.04747,-0.181943 0.01356,-0.06998 0.01356,-0.132958 0,-0.153951 -0.08817,-0.202936 -0.08817,-0.04898 -0.36623,-0.04898 v -0.244921 h 1.356411 v 0.244922 q -0.101729,0 -0.176334,0.03499 -0.06782,0.02799 -0.142422,0.118962 -0.06782,0.09097 -0.142423,0.258918 -0.07461,0.167947 -0.183117,0.44086 l -1.051223,2.68015 h -0.250944 l -0.827412,-2.582182 h -0.02713 z m 4.415113,-0.06998 H 65.254184 V 90.32954 h 0.169551 q 0.264501,0.986687 0.963054,0.986687 0.271282,0 0.42727,-0.132958 0.162769,-0.139956 0.162769,-0.419866 0,-0.104968 -0.03391,-0.174945 -0.02712,-0.07698 -0.115295,-0.153952 -0.08139,-0.08397 -0.237371,-0.188939 -0.149207,-0.104968 -0.400143,-0.265916 -0.23059,-0.146953 -0.400142,-0.272914 -0.169551,-0.12596 -0.284845,-0.251919 -0.115296,-0.132958 -0.176335,-0.279912 -0.05426,-0.146953 -0.05426,-0.342891 0,-0.237924 0.0746,-0.433862 0.08139,-0.202936 0.217026,-0.342892 0.135642,-0.139955 0.318758,-0.216931 0.183115,-0.08397 0.400141,-0.08397 0.183115,0 0.379796,0.06299 0.196679,0.05598 0.345885,0.153951 l 0.135641,-0.146951 h 0.12886 v 1.007681 h -0.176327 q -0.149205,-0.426865 -0.325538,-0.608807 -0.176333,-0.181942 -0.434052,-0.181942 -0.23059,0 -0.373015,0.12596 -0.135641,0.12596 -0.135641,0.349889 0,0.118962 0.03391,0.209933 0.0407,0.08397 0.122077,0.167946 0.08139,0.08397 0.203462,0.174945 0.12886,0.08397 0.305193,0.195938 0.291629,0.18894 0.495091,0.335894 0.210244,0.146952 0.339103,0.293906 0.128859,0.139956 0.189898,0.293906 0.06104,0.153952 0.06104,0.349889 0,0.496843 -0.311974,0.783752 -0.311975,0.279912 -0.820631,0.279912 -0.529,0 -0.908796,-0.314901 z m 4.855948,-0.244922 q 0.223808,0 0.305192,-0.021 0.08817,-0.021 0.08817,-0.05598 -0.0068,-0.05598 -0.108513,-0.202936 -0.10173,-0.146953 -0.264501,-0.349889 l -0.718899,-0.895715 -0.250936,0.244922 v 0.412869 q 0,0.272913 0.02035,0.44086 0.02712,0.16095 0.08817,0.258918 0.06782,0.09098 0.189898,0.125959 0.128859,0.03499 0.33232,0.04199 v 0.244922 H 68.014482 V 91.28823 q 0.203462,-0.007 0.32554,-0.04199 0.128859,-0.03499 0.19668,-0.125959 0.07461,-0.09098 0.101729,-0.244922 0.02712,-0.153951 0.02712,-0.405872 v -2.932061 q 0,-0.531832 -0.01356,-0.804744 -0.0068,-0.272914 -0.06782,-0.370883 -0.06104,-0.09797 -0.203462,-0.111964 -0.142424,-0.02099 -0.379795,-0.02099 V 85.99092 l 1.308932,-0.265916 v 3.841782 l 0.630731,-0.636799 q 0.305194,-0.314899 0.454399,-0.461853 0.149205,-0.153951 0.149205,-0.230927 0,-0.07697 -0.142423,-0.118962 -0.142423,-0.04898 -0.406923,-0.04898 v -0.244922 h 1.763336 v 0.244922 q -0.12886,0 -0.223808,0.014 -0.09495,0.014 -0.183116,0.05598 -0.08139,0.04199 -0.176334,0.118962 -0.09495,0.06998 -0.217025,0.181942 l -0.976618,0.895717 1.342849,1.567503 q 0.09495,0.118962 0.169551,0.195936 0.08139,0.06998 0.155988,0.111966 0.08139,0.04199 0.169552,0.06299 0.09495,0.01399 0.223808,0.01399 v 0.244923 h -1.783683 z m 3.363901,-0.867725 q 0,0.272913 0.02035,0.440861 0.02712,0.160949 0.09495,0.258918 0.06782,0.09098 0.189897,0.125959 0.122078,0.03499 0.32554,0.04199 v 0.244921 h -1.946462 v -0.244922 q 0.203463,-0.007 0.332321,-0.04199 0.12886,-0.04199 0.196681,-0.125959 0.07461,-0.09098 0.09494,-0.244923 0.02713,-0.160949 0.02713,-0.405871 v -0.895716 q 0,-0.405871 -0.01356,-0.664789 -0.0068,-0.265915 -0.03391,-0.363885 -0.03391,-0.160945 -0.155986,-0.216928 -0.122077,-0.06298 -0.46118,-0.06298 v -0.244921 l 1.329291,-0.265916 z m -0.779947,-4.086701 q 0,-0.181942 0.122077,-0.307902 0.122078,-0.12596 0.298412,-0.12596 0.176333,0 0.298411,0.12596 0.122076,0.12596 0.122076,0.307902 0,0.181943 -0.122076,0.307903 -0.122078,0.125959 -0.298411,0.125959 -0.176334,0 -0.298412,-0.125959 -0.122077,-0.12596 -0.122077,-0.307903 z m 5.846132,1.994367 q 0.32554,-0.258918 0.47475,-0.524833 0.1492,-0.272914 0.1492,-0.587813 0,-0.328897 -0.14243,-0.517836 -0.14241,-0.195938 -0.37979,-0.195938 -0.44762,0 -0.44762,0.706776 0,0.307902 0.0882,0.594811 0.0881,0.279911 0.25772,0.524833 z m -0.38658,0.657792 q -0.42727,0.251919 -0.66464,0.59481 -0.23738,0.335894 -0.23738,0.699778 0,0.384878 0.23738,0.636798 0.24416,0.244924 0.62395,0.244924 0.28484,0 0.61038,-0.146955 0.32554,-0.146954 0.61717,-0.412868 z m 1.67516,1.084655 q 0.16278,-0.209933 0.29841,-0.405871 0.14243,-0.202935 0.24416,-0.37788 0.10174,-0.181942 0.15599,-0.328896 0.0543,-0.146953 0.0543,-0.237924 0,-0.111964 -0.10174,-0.160949 -0.0949,-0.04898 -0.31198,-0.04898 V 88.2652 h 1.55987 v 0.244922 q -0.1492,0 -0.25771,0.02099 -0.10174,0.014 -0.18311,0.05598 -0.0814,0.04199 -0.15599,0.111964 -0.0679,0.06998 -0.13565,0.181943 l -0.96306,1.455538 q 0.28485,0.398873 0.59005,0.608807 0.31197,0.202935 0.61716,0.202935 0.0882,0 0.15599,-0.014 0.0679,-0.021 0.12208,-0.06298 0.061,-0.04899 0.10852,-0.125961 0.0543,-0.07698 0.10851,-0.195938 l 0.16955,0.04899 q -0.0747,0.391876 -0.33231,0.60181 -0.25773,0.202935 -0.67143,0.202935 -0.16956,0 -0.32554,-0.04199 -0.1492,-0.03499 -0.3052,-0.12596 -0.15599,-0.09098 -0.33232,-0.237924 -0.17633,-0.146953 -0.38657,-0.363885 -0.33911,0.363885 -0.78672,0.566821 -0.44084,0.202935 -0.90202,0.202935 -0.31198,0 -0.57648,-0.09098 -0.25771,-0.09797 -0.44761,-0.258917 -0.18991,-0.167947 -0.29841,-0.391876 -0.10852,-0.230927 -0.10852,-0.496842 0,-0.475849 0.36623,-0.874723 0.36624,-0.405871 1.17331,-0.811742 -0.21702,-0.328896 -0.31876,-0.615804 -0.0949,-0.286909 -0.0949,-0.601809 0,-0.307903 0.0814,-0.559823 0.0881,-0.258917 0.24415,-0.44086 0.15599,-0.181942 0.37301,-0.279911 0.21702,-0.104967 0.48152,-0.104967 0.2306,0 0.42049,0.07697 0.19669,0.07697 0.33911,0.216931 0.14242,0.139955 0.21702,0.328895 0.0814,0.188941 0.0814,0.419868 0,0.391875 -0.25093,0.734767 -0.24415,0.342891 -0.81385,0.741763 z m 7.29747,-0.489845 h -1.8108 q -0.11529,0.286909 -0.19668,0.510839 -0.0814,0.21693 -0.13564,0.37788 -0.0475,0.160948 -0.0679,0.272913 -0.0204,0.111965 -0.0204,0.181942 0,0.195939 0.12208,0.272914 0.12207,0.06998 0.40692,0.06998 v 0.265916 h -1.64805 v -0.265916 q 0.15599,-0.021 0.26451,-0.05598 0.11529,-0.035 0.19668,-0.09797 0.0882,-0.06299 0.1492,-0.16095 0.0679,-0.104966 0.12886,-0.25192 l 1.76334,-4.555554 h 0.29163 l 1.53953,3.946748 q 0.15598,0.391875 0.27129,0.6298 0.11529,0.230926 0.2238,0.349889 0.10851,0.118962 0.23059,0.153951 0.12886,0.03499 0.30518,0.03499 v 0.272912 h -2.21094 V 91.26025 q 0.35945,0 0.49508,-0.06998 0.13564,-0.06998 0.13564,-0.230928 0,-0.06998 -0.007,-0.125959 -0.007,-0.06299 -0.0272,-0.132958 -0.0135,-0.06998 -0.0475,-0.153951 -0.0272,-0.09098 -0.0747,-0.209933 z m -1.67516,-0.349889 h 1.54631 l -0.75281,-2.064344 z m 5.0662,1.203619 q 0,0.286909 0.0135,0.454855 0.0135,0.16095 0.0679,0.251921 0.061,0.08397 0.16955,0.111965 0.1153,0.02799 0.31197,0.04199 v 0.237924 h -1.77689 v -0.237924 q 0.1899,-0.014 0.2984,-0.04199 0.1153,-0.02799 0.17634,-0.111965 0.061,-0.08397 0.0747,-0.237924 0.0203,-0.153953 0.0203,-0.419868 v -0.930704 q 0,-0.832736 -0.0407,-1.014678 -0.0203,-0.09097 -0.0542,-0.146954 -0.0272,-0.06297 -0.0882,-0.09097 -0.061,-0.03499 -0.15599,-0.04199 -0.0949,-0.01399 -0.24415,-0.01399 v -0.22393 l 1.08513,-0.265916 0.0813,0.69278 h 0.0272 q 0.25772,-0.328895 0.60361,-0.510837 0.34587,-0.181943 0.7528,-0.181943 0.31198,0 0.56969,0.104967 0.25773,0.104966 0.39336,0.286909 0.1153,0.160949 0.16278,0.419867 0.0475,0.25192 0.0475,0.699777 v 1.168631 q 0,0.286908 0.0135,0.454854 0.0204,0.16095 0.0747,0.251921 0.0543,0.08397 0.16276,0.111965 0.1153,0.02799 0.29841,0.04199 v 0.237924 h -1.75655 V 91.29524 q 0.18989,-0.007 0.29841,-0.035 0.11529,-0.03499 0.16956,-0.118962 0.061,-0.08397 0.0747,-0.237924 0.0203,-0.16095 0.0203,-0.419868 v -0.923708 q 0,-0.398872 -0.0407,-0.671785 -0.0407,-0.272914 -0.13564,-0.440861 -0.0881,-0.167946 -0.23738,-0.237924 -0.1492,-0.07697 -0.35944,-0.07697 -0.3052,0 -0.56292,0.167946 -0.25093,0.160949 -0.39336,0.447857 -0.0339,0.06998 -0.061,0.132958 -0.0203,0.06298 -0.0339,0.146954 -0.0135,0.08397 -0.0204,0.195938 -0.007,0.104966 -0.007,0.272913 z m 4.67284,0 q 0,0.286909 0.0135,0.454855 0.0135,0.16095 0.0679,0.251921 0.061,0.08397 0.16956,0.111965 0.11529,0.02799 0.31198,0.04199 v 0.237924 h -1.77696 v -0.237924 q 0.1899,-0.014 0.29841,-0.04199 0.1153,-0.02799 0.17634,-0.111965 0.061,-0.08397 0.0747,-0.237924 0.0204,-0.153953 0.0204,-0.419868 v -0.930704 q 0,-0.832736 -0.0407,-1.014678 -0.0204,-0.09097 -0.0543,-0.146954 -0.0272,-0.06297 -0.0882,-0.09097 -0.061,-0.03499 -0.15599,-0.04199 -0.095,-0.01399 -0.24415,-0.01399 v -0.22393 l 1.08512,-0.265916 0.0814,0.69278 h 0.0272 q 0.25772,-0.328895 0.60359,-0.510837 0.3459,-0.181943 0.75281,-0.181943 0.31198,0 0.56969,0.104967 0.25772,0.104966 0.39337,0.286909 0.11529,0.160949 0.16277,0.419867 0.0475,0.25192 0.0475,0.699777 v 1.168631 q 0,0.286908 0.0135,0.454854 0.0204,0.16095 0.0747,0.251921 0.0543,0.08397 0.16278,0.111965 0.11529,0.02799 0.2984,0.04199 v 0.237924 h -1.75655 V 91.29524 q 0.18989,-0.007 0.29841,-0.035 0.11529,-0.03499 0.16955,-0.118962 0.061,-0.08397 0.0747,-0.237924 0.0203,-0.16095 0.0203,-0.419868 v -0.923708 q 0,-0.398872 -0.0407,-0.671785 -0.0407,-0.272914 -0.13564,-0.440861 -0.0882,-0.167946 -0.23738,-0.237924 -0.1492,-0.07697 -0.35945,-0.07697 -0.30518,0 -0.56291,0.167946 -0.25093,0.160949 -0.39336,0.447857 -0.0339,0.06998 -0.061,0.132958 -0.0204,0.06298 -0.0339,0.146954 -0.0135,0.08397 -0.0204,0.195938 -0.007,0.104966 -0.007,0.272913 z m 5.574849,-0.972691 q -0.38658,0.15395 -0.65786,0.300904 -0.264499,0.146952 -0.427269,0.293907 -0.16277,0.146954 -0.23737,0.293906 -0.0679,0.146954 -0.0679,0.300905 0,0.230927 0.1492,0.37788 0.14922,0.146953 0.393359,0.146953 0.17635,0 0.32555,-0.09098 0.15598,-0.09098 0.27129,-0.244923 0.11528,-0.160948 0.18311,-0.370882 0.0679,-0.216931 0.0679,-0.454855 z m 0,-0.300905 v -0.286909 q 0,-0.853729 -0.70533,-0.853729 -0.11531,0 -0.19669,0.02099 -0.0814,0.02099 -0.135649,0.06998 -0.0542,0.04899 -0.10174,0.139956 -0.0407,0.09097 -0.0814,0.223928 -0.0747,0.202936 -0.1492,0.272914 -0.0679,0.06298 -0.20346,0.06298 -0.33911,0 -0.33911,-0.349889 0,-0.335893 0.34589,-0.517836 0.34588,-0.18894 0.983389,-0.18894 0.67821,0 0.96306,0.25192 0.28485,0.244922 0.28485,0.839733 v 1.567504 q 0,0.797746 0.30519,0.797746 0.095,0 0.18312,-0.021 0.0881,-0.02799 0.1492,-0.132958 l 0.0949,0.167947 q -0.0814,0.160948 -0.29842,0.272912 -0.21703,0.104968 -0.4544,0.104968 -0.29841,0 -0.44761,-0.195938 -0.14243,-0.195938 -0.14243,-0.552825 h -0.0339 q -0.17634,0.342891 -0.48831,0.545828 -0.31197,0.195936 -0.691759,0.195936 -0.42728,0 -0.67144,-0.223928 -0.24415,-0.223929 -0.24415,-0.60181 0,-0.167946 0.0543,-0.321897 0.061,-0.153951 0.1899,-0.293907 0.12886,-0.139955 0.3391,-0.272913 0.21024,-0.139955 0.51544,-0.279911 z m 3.51986,2.372247 v -0.265916 q 0.25772,-0.007 0.41371,-0.03499 0.16277,-0.035 0.25094,-0.118962 0.0882,-0.09098 0.11529,-0.237925 0.034,-0.153951 0.034,-0.405872 v -3.260966 q 0,-0.244923 -0.0272,-0.391876 -0.0204,-0.153952 -0.0949,-0.237925 -0.0679,-0.09097 -0.20346,-0.118962 -0.13565,-0.03498 -0.35267,-0.04899 v -0.265915 h 2.3805 q 0.61039,0 1.12583,0.209933 0.52221,0.209933 0.89523,0.580816 0.37979,0.370882 0.59004,0.881721 0.21023,0.510837 0.21023,1.112646 0,0.573819 -0.19667,1.056664 -0.19668,0.475849 -0.55613,0.818741 -0.35267,0.342891 -0.84776,0.538829 -0.49508,0.18894 -1.08513,0.18894 z m 1.64127,-5.045399 q -0.1153,0 -0.1153,0.118963 v 3.785798 q 0,0.797747 1.01053,0.797747 0.92915,0 1.42423,-0.56682 0.49509,-0.573819 0.49509,-1.679467 0,-0.580816 -0.13564,-1.035671 -0.13564,-0.454856 -0.39337,-0.769757 -0.25092,-0.314899 -0.61038,-0.482847 -0.35944,-0.167946 -0.81384,-0.167946 z m 6.41581,2.974057 q -0.38658,0.15395 -0.65786,0.300904 -0.26451,0.146952 -0.42727,0.293907 -0.16278,0.146954 -0.23738,0.293906 -0.0679,0.146954 -0.0679,0.300905 0,0.230927 0.1492,0.37788 0.14921,0.146953 0.39337,0.146953 0.17633,0 0.32553,-0.09098 0.15599,-0.09098 0.27128,-0.244923 0.1153,-0.160948 0.18311,-0.370882 0.0679,-0.216931 0.0679,-0.454855 z m 0,-0.300905 v -0.286909 q 0,-0.853729 -0.70535,-0.853729 -0.11529,0 -0.19667,0.02099 -0.0814,0.02099 -0.13564,0.06998 -0.0543,0.04899 -0.10174,0.139956 -0.0407,0.09097 -0.0814,0.223928 -0.0747,0.202936 -0.1492,0.272914 -0.0679,0.06298 -0.20347,0.06298 -0.33911,0 -0.33911,-0.349889 0,-0.335893 0.3459,-0.517836 0.34588,-0.18894 0.9834,-0.18894 0.67821,0 0.96305,0.25192 0.28484,0.244922 0.28484,0.839733 v 1.567504 q 0,0.797746 0.3052,0.797746 0.0949,0 0.18311,-0.021 0.0882,-0.02799 0.14921,-0.132958 l 0.0949,0.167947 q -0.0814,0.160948 -0.29841,0.272912 -0.21702,0.104968 -0.4544,0.104968 -0.29841,0 -0.44761,-0.195938 -0.14242,-0.195938 -0.14242,-0.552825 h -0.034 q -0.17633,0.342891 -0.48831,0.545828 -0.31198,0.195936 -0.69178,0.195936 -0.42726,0 -0.67142,-0.223928 -0.24415,-0.223929 -0.24415,-0.60181 0,-0.167946 0.0543,-0.321897 0.061,-0.153951 0.18989,-0.293907 0.12886,-0.139955 0.33911,-0.272913 0.21025,-0.139955 0.51543,-0.279911 z m 1.97357,2.372247 h -0.14921 V 90.32954 h 0.16955 q 0.2645,0.986687 0.96306,0.986687 0.27128,0 0.42726,-0.132958 0.16278,-0.139956 0.16278,-0.419866 0,-0.104968 -0.034,-0.174945 -0.0272,-0.07698 -0.11531,-0.153951 -0.0814,-0.08397 -0.23737,-0.18894 -0.1492,-0.104968 -0.40014,-0.265916 -0.23059,-0.146953 -0.40014,-0.272914 -0.16955,-0.12596 -0.28484,-0.251919 -0.11529,-0.132958 -0.17634,-0.279912 -0.0543,-0.146953 -0.0543,-0.342891 0,-0.237924 0.0747,-0.433862 0.0814,-0.202936 0.21702,-0.342891 0.13564,-0.139956 0.31875,-0.216932 0.18314,-0.08397 0.40016,-0.08397 0.18311,0 0.37979,0.06299 0.19667,0.05598 0.34588,0.153951 l 0.13564,-0.146953 h 0.12886 v 1.007679 h -0.17633 q -0.1492,-0.426863 -0.32554,-0.608806 -0.17633,-0.181942 -0.43406,-0.181942 -0.23058,0 -0.373,0.12596 -0.13564,0.12596 -0.13564,0.349889 0,0.118962 0.034,0.209933 0.0407,0.08397 0.12208,0.167947 0.0814,0.08397 0.20345,0.174944 0.12887,0.08397 0.3052,0.195937 0.29162,0.188941 0.4951,0.335895 0.21023,0.146952 0.3391,0.293906 0.12885,0.139956 0.18988,0.293906 0.061,0.153952 0.061,0.349889 0,0.496843 -0.31198,0.783752 -0.31197,0.279912 -0.82063,0.279912 -0.52899,0 -0.90879,-0.314901 z m 5.87325,0 h -3.25538 v -0.02799 l 2.34658,-3.386925 h -0.7528 q -0.29163,0 -0.48152,0.02799 -0.18313,0.021 -0.3052,0.09797 -0.11529,0.06998 -0.17634,0.202936 -0.061,0.12596 -0.0949,0.342891 h -0.21702 l 0.10851,-0.965694 h 2.91629 v 0.02799 l -2.31269,3.358935 h 0.79351 q 0.34588,0 0.56968,-0.02799 0.2306,-0.02799 0.37302,-0.111964 0.14921,-0.08397 0.23059,-0.230928 0.0882,-0.146953 0.14921,-0.391875 h 0.22381 z m 2.3059,1.098652 q -0.31197,0.720771 -0.96983,0.720771 -0.42728,0 -0.42728,-0.328895 0,-0.174946 0.11529,-0.258918 0.12209,-0.07698 0.44084,-0.132958 0.14243,-0.021 0.24416,-0.06299 0.10174,-0.03499 0.18311,-0.09796 0.0814,-0.05598 0.14243,-0.146955 0.0679,-0.09098 0.12886,-0.223928 l 0.23736,-0.489845 -1.30215,-2.918074 q -0.0882,-0.195938 -0.15598,-0.307902 -0.061,-0.118963 -0.13565,-0.181943 -0.0679,-0.06998 -0.15599,-0.09097 -0.0882,-0.02799 -0.2238,-0.04199 v -0.244921 h 1.79724 v 0.244922 q -0.45439,0 -0.45439,0.230927 0,0.09097 0.0543,0.286909 0.0543,0.195938 0.13563,0.398874 l 0.74604,1.861409 h 0.0339 l 0.61717,-1.5745 q 0.0882,-0.230927 0.14242,-0.377881 0.061,-0.146953 0.0882,-0.237923 0.0339,-0.09797 0.0407,-0.16095 0.0135,-0.06298 0.0135,-0.118962 0,-0.181943 -0.10174,-0.244922 -0.0949,-0.06297 -0.37302,-0.06297 v -0.244924 h 1.49205 v 0.244922 q -0.12885,0 -0.21702,0.03499 -0.0882,0.03499 -0.18312,0.160949 -0.0882,0.118962 -0.20346,0.349889 -0.10851,0.230926 -0.27128,0.622801 z m 3.89291,-2.197303 q 0,0.286909 0.0135,0.454855 0.0135,0.16095 0.0679,0.251921 0.061,0.08397 0.16956,0.111965 0.11529,0.02799 0.31196,0.04199 v 0.237924 h -1.77689 v -0.237924 q 0.1899,-0.014 0.29841,-0.04199 0.11529,-0.02799 0.17633,-0.111965 0.061,-0.08397 0.0747,-0.237924 0.0204,-0.153953 0.0204,-0.419868 v -0.930704 q 0,-0.832736 -0.0407,-1.014678 -0.0204,-0.09097 -0.0543,-0.146954 -0.0272,-0.06297 -0.0882,-0.09097 -0.0611,-0.03499 -0.15599,-0.04199 -0.0949,-0.01399 -0.24415,-0.01399 v -0.22393 l 1.08513,-0.265916 0.0814,0.69278 h 0.0272 q 0.25771,-0.328895 0.6036,-0.510837 0.34588,-0.181943 0.75281,-0.181943 0.31197,0 0.56969,0.104967 0.25772,0.104966 0.39337,0.286909 0.11529,0.160949 0.16276,0.419867 0.0475,0.25192 0.0475,0.699777 v 1.168631 q 0,0.286908 0.0135,0.454854 0.0203,0.16095 0.0747,0.251921 0.0543,0.08397 0.16277,0.111965 0.1153,0.02799 0.29841,0.04199 v 0.237924 H 127.8256 V 91.29524 q 0.1899,-0.007 0.29842,-0.035 0.11529,-0.03499 0.16955,-0.118962 0.061,-0.08397 0.0747,-0.237924 0.0204,-0.16095 0.0204,-0.419868 v -0.923708 q 0,-0.398872 -0.0407,-0.671785 -0.0407,-0.272914 -0.13565,-0.440861 -0.0882,-0.167946 -0.23737,-0.237924 -0.1492,-0.07697 -0.35945,-0.07697 -0.3052,0 -0.56291,0.167946 -0.25094,0.160949 -0.39336,0.447857 -0.0339,0.06998 -0.061,0.132958 -0.0204,0.06298 -0.034,0.146954 -0.0135,0.08397 -0.0203,0.195938 -0.007,0.104966 -0.007,0.272913 z m 0.31875,-3.456903 0.88166,-0.832736 q 0.24416,-0.230926 0.4544,-0.230926 0.11531,0 0.18311,0.06297 0.0747,0.06297 0.0747,0.181941 0,0.111965 -0.0949,0.202937 -0.0881,0.08397 -0.25093,0.160948 l -0.92915,0.454856 z m 3.47242,4.555554 h -0.14922 V 90.32954 h 0.16956 q 0.26449,0.986687 0.96305,0.986687 0.27129,0 0.42728,-0.132958 0.16277,-0.139956 0.16277,-0.419866 0,-0.104968 -0.034,-0.174945 -0.0272,-0.07698 -0.1153,-0.153951 -0.0814,-0.08397 -0.23737,-0.18894 -0.14921,-0.104968 -0.40015,-0.265916 -0.23059,-0.146953 -0.40014,-0.272914 -0.16955,-0.12596 -0.28485,-0.251919 -0.11529,-0.132958 -0.17632,-0.279912 -0.0543,-0.146953 -0.0543,-0.342891 0,-0.237924 0.0747,-0.433862 0.0813,-0.202936 0.21703,-0.342891 0.13563,-0.139956 0.31875,-0.216932 0.18312,-0.08397 0.40015,-0.08397 0.18311,0 0.37979,0.06299 0.19668,0.05598 0.34588,0.153951 l 0.13565,-0.146953 h 0.12885 v 1.007679 h -0.17634 q -0.1492,-0.426863 -0.32552,-0.608806 -0.17635,-0.181942 -0.43406,-0.181942 -0.2306,0 -0.37301,0.12596 -0.13564,0.12596 -0.13564,0.349889 0,0.118962 0.0339,0.209933 0.0407,0.08397 0.12207,0.167947 0.0814,0.08397 0.20346,0.174944 0.12887,0.08397 0.3052,0.195937 0.29162,0.188941 0.49509,0.335895 0.21024,0.146952 0.3391,0.293906 0.12886,0.139956 0.18989,0.293906 0.0611,0.153952 0.0611,0.349889 0,0.496843 -0.31198,0.783752 -0.31197,0.279912 -0.82063,0.279912 -0.52901,0 -0.90879,-0.314901 z m 4.85594,-0.244922 q 0.2238,0 0.30519,-0.021 0.0882,-0.021 0.0882,-0.05598 -0.007,-0.05598 -0.10851,-0.202936 -0.10174,-0.146953 -0.2645,-0.349889 l -0.7189,-0.895715 -0.25094,0.244922 v 0.412869 q 0,0.272913 0.0204,0.44086 0.0272,0.16095 0.0881,0.258918 0.0679,0.09098 0.1899,0.125959 0.12886,0.03499 0.33232,0.04199 v 0.244922 h -1.9261 V 91.28823 q 0.20346,-0.007 0.32553,-0.04199 0.12887,-0.03499 0.19668,-0.125959 0.0747,-0.09098 0.10174,-0.244922 0.0272,-0.153951 0.0272,-0.405872 v -2.932061 q 0,-0.531832 -0.0135,-0.804744 -0.007,-0.272914 -0.0679,-0.370883 -0.061,-0.09797 -0.20345,-0.111964 -0.14242,-0.02099 -0.3798,-0.02099 V 85.99092 l 1.30894,-0.265916 v 3.841782 l 0.63073,-0.636799 q 0.3052,-0.314899 0.4544,-0.461853 0.14921,-0.153951 0.14921,-0.230927 0,-0.07697 -0.14243,-0.118962 -0.14242,-0.04898 -0.40692,-0.04898 v -0.244922 h 1.76334 v 0.244922 q -0.12887,0 -0.22381,0.014 -0.095,0.014 -0.18312,0.05598 -0.0814,0.04199 -0.17633,0.118962 -0.0949,0.06998 -0.21703,0.181942 l -0.97662,0.895717 1.34286,1.567503 q 0.0949,0.118962 0.16955,0.195936 0.0813,0.06998 0.15598,0.111966 0.0814,0.04199 0.16955,0.06299 0.0949,0.01399 0.22381,0.01399 v 0.244923 h -1.78368 z m 4.18453,-1.82642 q -0.38659,0.15395 -0.65787,0.300904 -0.26449,0.146952 -0.42726,0.293907 -0.16278,0.146954 -0.23738,0.293906 -0.0679,0.146954 -0.0679,0.300905 0,0.230927 0.1492,0.37788 0.1492,0.146953 0.39335,0.146953 0.17635,0 0.32555,-0.09098 0.15598,-0.09098 0.27128,-0.244923 0.11529,-0.160948 0.18312,-0.370882 0.0679,-0.216931 0.0679,-0.454855 z m 0,-0.300905 v -0.286909 q 0,-0.853729 -0.70534,-0.853729 -0.11529,0 -0.19667,0.02099 -0.0814,0.02099 -0.13565,0.06998 -0.0543,0.04899 -0.10174,0.139956 -0.0407,0.09097 -0.0814,0.223928 -0.0747,0.202936 -0.14921,0.272914 -0.0679,0.06298 -0.20345,0.06298 -0.33911,0 -0.33911,-0.349889 0,-0.335893 0.34587,-0.517836 0.3459,-0.18894 0.98341,-0.18894 0.6782,0 0.96305,0.25192 0.28486,0.244922 0.28486,0.839733 v 1.567504 q 0,0.797746 0.30517,0.797746 0.0949,0 0.18312,-0.021 0.0882,-0.02799 0.14922,-0.132958 l 0.0949,0.167947 q -0.0814,0.160948 -0.29841,0.272912 -0.21702,0.104968 -0.45439,0.104968 -0.29843,0 -0.44763,-0.195938 -0.14242,-0.195938 -0.14242,-0.552825 h -0.034 q -0.17633,0.342891 -0.48829,0.545828 -0.31199,0.195936 -0.69177,0.195936 -0.42728,0 -0.67143,-0.223928 -0.24416,-0.223929 -0.24416,-0.60181 0,-0.167946 0.0543,-0.321897 0.061,-0.153951 0.1899,-0.293907 0.12885,-0.139955 0.3391,-0.272913 0.21024,-0.139955 0.51544,-0.279911 z m 1.91252,0.636798 v -0.580816 h 2.09567 v 0.580816 z m 7.29073,-3.652841 h 0.18991 l 0.061,1.609489 h -0.25093 q -0.1492,-0.615805 -0.57648,-0.965694 -0.42726,-0.349888 -1.03086,-0.349888 -0.41372,0 -0.73925,0.167947 -0.32554,0.167946 -0.54935,0.482846 -0.2238,0.3149 -0.34588,0.769756 -0.1153,0.454855 -0.1153,1.028674 0,1.126642 0.4544,1.735449 0.4544,0.601809 1.31571,0.601809 1.30895,0 1.68197,-1.434546 h 0.27806 v 1.742448 h -0.23738 l -0.15598,-0.552824 q -0.71211,0.622802 -1.72265,0.622802 -0.57647,0 -1.04443,-0.18894 -0.46119,-0.18894 -0.79351,-0.531831 -0.32554,-0.349889 -0.50865,-0.846731 -0.17634,-0.496843 -0.17634,-1.10565 0,-0.636797 0.18989,-1.161631 0.18991,-0.524834 0.52901,-0.902713 0.34589,-0.377881 0.82064,-0.580816 0.48152,-0.209934 1.05799,-0.209934 0.40693,0 0.76638,0.118962 0.35945,0.118962 0.77993,0.384878 z m 2.31268,4.275643 q 0,0.272913 0.0203,0.440861 0.0272,0.160949 0.0949,0.258918 0.0679,0.09098 0.18988,0.125959 0.12208,0.03499 0.32555,0.04199 v 0.244922 h -1.94645 v -0.24492 q 0.20346,-0.007 0.33232,-0.04199 0.12885,-0.04199 0.19667,-0.125959 0.0747,-0.09098 0.0949,-0.244923 0.0272,-0.160949 0.0272,-0.405871 v -0.895716 q 0,-0.405871 -0.0135,-0.664789 -0.007,-0.265915 -0.0339,-0.363885 -0.0339,-0.160948 -0.15599,-0.216931 -0.12207,-0.06297 -0.46118,-0.06297 v -0.244923 l 1.32928,-0.265916 z m -0.77994,-4.086703 q 0,-0.181942 0.12208,-0.307902 0.12207,-0.12596 0.29841,-0.12596 0.17632,0 0.29841,0.12596 0.12207,0.12596 0.12207,0.307902 0,0.181943 -0.12207,0.307903 -0.12209,0.125959 -0.29841,0.125959 -0.17634,0 -0.29841,-0.125959 -0.12208,-0.12596 -0.12208,-0.307903 z m 2.82811,3.736814 q 0,0.265916 0.0747,0.489844 0.0747,0.216931 0.20347,0.377881 0.13564,0.153951 0.31875,0.244922 0.18989,0.09098 0.40691,0.09098 0.23738,0 0.42729,-0.111963 0.19667,-0.111965 0.33231,-0.314901 0.14242,-0.209933 0.21702,-0.496842 0.0814,-0.293907 0.0814,-0.650794 0,-0.356886 -0.0814,-0.650793 -0.0814,-0.300904 -0.2238,-0.510838 -0.14242,-0.216932 -0.34588,-0.335894 -0.19669,-0.118962 -0.43405,-0.118962 -0.27806,0 -0.4951,0.139956 -0.21702,0.132958 -0.33232,0.37788 -0.1492,0.307902 -0.1492,0.846731 z m -0.0135,-1.749445 h 0.0272 q 0.21702,-0.293906 0.47475,-0.426864 0.2645,-0.139956 0.61038,-0.139956 0.36623,0 0.6782,0.146954 0.31877,0.146953 0.54936,0.40587 0.23736,0.258918 0.36623,0.615805 0.13563,0.34989 0.13563,0.755761 0,0.412869 -0.13563,0.769755 -0.13564,0.349889 -0.37302,0.608807 -0.23058,0.258918 -0.54934,0.405872 -0.31876,0.146953 -0.69178,0.146953 -0.38657,0 -0.72568,-0.146953 -0.33231,-0.146954 -0.54934,-0.398874 l -0.31876,0.468851 h -0.1492 v -4.226659 q 0,-0.706775 -0.0882,-0.902713 -0.0204,-0.04898 -0.0475,-0.07697 -0.0272,-0.03498 -0.0814,-0.05598 -0.0543,-0.02799 -0.14922,-0.04899 -0.0949,-0.02099 -0.25771,-0.04199 V 86.004912 L 152.91893,85.725 Z m 5.3714,-0.56682 q 0.38657,0 0.73246,0.146954 0.34588,0.139956 0.6036,0.391876 0.2645,0.251919 0.41371,0.601808 0.15599,0.342891 0.15599,0.75576 0,0.426865 -0.15599,0.783752 -0.14921,0.356887 -0.41371,0.615805 -0.25772,0.258917 -0.6036,0.405871 -0.34589,0.146953 -0.73246,0.146953 -0.3798,0 -0.72569,-0.139955 -0.33909,-0.146954 -0.59682,-0.405872 -0.25772,-0.258918 -0.40692,-0.615804 -0.14921,-0.363885 -0.14921,-0.79075 0,-0.412869 0.14921,-0.762757 0.1492,-0.349889 0.40692,-0.601809 0.25773,-0.25192 0.59682,-0.391876 0.34589,-0.139956 0.72569,-0.139956 z m 0,0.335893 q -0.25095,0 -0.46119,0.111965 -0.20346,0.111964 -0.35266,0.321898 -0.14243,0.202936 -0.22381,0.496842 -0.0747,0.286909 -0.0747,0.636798 0,0.363885 0.0747,0.657791 0.0814,0.293907 0.22381,0.503841 0.1492,0.202936 0.35266,0.3149 0.20347,0.111964 0.46119,0.111964 0.25771,0 0.46796,-0.111964 0.21024,-0.111964 0.35945,-0.321898 0.14921,-0.209933 0.23059,-0.503841 0.0813,-0.293906 0.0813,-0.650793 0,-0.349889 -0.0813,-0.636798 -0.0814,-0.286908 -0.23059,-0.489845 -0.14921,-0.209933 -0.35945,-0.321897 -0.21025,-0.118963 -0.46796,-0.118963 z m 3.73691,2.330261 q 0,0.286909 0.0135,0.454856 0.0135,0.167946 0.0679,0.258918 0.061,0.08397 0.16956,0.111964 0.1085,0.02799 0.30518,0.04199 v 0.244922 h -1.80406 v -0.24492 q 0.19667,-0.007 0.31197,-0.035 0.11529,-0.03499 0.17634,-0.118962 0.061,-0.08397 0.0747,-0.237925 0.0204,-0.160949 0.0204,-0.426865 v -0.81874 q 0,-0.475849 -0.0135,-0.741765 -0.007,-0.265914 -0.0679,-0.391874 -0.0543,-0.125961 -0.17634,-0.146954 -0.12207,-0.02799 -0.3391,-0.02799 v -0.244921 l 1.18686,-0.265916 0.0949,0.867725 h 0.0272 q 0.0882,-0.209933 0.21703,-0.384878 0.13564,-0.174944 0.29163,-0.293906 0.15598,-0.12596 0.32553,-0.195939 0.16955,-0.06998 0.34589,-0.06998 0.21702,0 0.33911,0.111965 0.12885,0.104966 0.12885,0.286909 0,0.167946 -0.10174,0.265915 -0.10174,0.09097 -0.29163,0.09097 -0.10851,0 -0.18311,-0.02799 -0.0747,-0.02799 -0.13565,-0.05598 -0.0542,-0.03499 -0.1085,-0.06298 -0.0475,-0.02799 -0.10853,-0.02799 -0.18311,0 -0.36622,0.244922 -0.18311,0.237924 -0.28485,0.608806 -0.0543,0.202936 -0.0882,0.461853 -0.0272,0.25192 -0.0272,0.531832 z m 3.85898,-2.666154 q 0.38658,0 0.73247,0.146954 0.34588,0.139956 0.6036,0.391876 0.2645,0.251919 0.4137,0.601808 0.15599,0.342891 0.15599,0.75576 0,0.426865 -0.15599,0.783752 -0.1492,0.356887 -0.4137,0.615805 -0.25772,0.258917 -0.6036,0.405871 -0.34589,0.146953 -0.73247,0.146953 -0.37979,0 -0.72568,-0.139955 -0.3391,-0.146954 -0.59682,-0.405872 -0.25772,-0.258918 -0.40692,-0.615804 -0.14921,-0.363885 -0.14921,-0.79075 0,-0.412869 0.14921,-0.762757 0.1492,-0.349889 0.40692,-0.601809 0.25772,-0.25192 0.59682,-0.391876 0.34589,-0.139956 0.72568,-0.139956 z m 0,0.335893 q -0.25094,0 -0.46118,0.111965 -0.20346,0.111964 -0.35268,0.321898 -0.14241,0.202936 -0.2238,0.496842 -0.0747,0.286909 -0.0747,0.636798 0,0.363885 0.0747,0.657791 0.0814,0.293907 0.2238,0.503841 0.14922,0.202936 0.35268,0.3149 0.20346,0.111964 0.46118,0.111964 0.25772,0 0.46796,-0.111964 0.21025,-0.111964 0.35945,-0.321898 0.14921,-0.209933 0.23059,-0.503841 0.0814,-0.293906 0.0814,-0.650793 0,-0.349889 -0.0814,-0.636798 -0.0814,-0.286908 -0.23059,-0.489845 -0.1492,-0.209933 -0.35945,-0.321897 -0.21024,-0.118963 -0.46796,-0.118963 z m 3.98105,3.512886 h -0.25093 l -0.88166,-2.911076 q -0.061,-0.195938 -0.1153,-0.3149 -0.0542,-0.118962 -0.12886,-0.188941 -0.0747,-0.06998 -0.17633,-0.09097 -0.10174,-0.02799 -0.25094,-0.02799 v -0.244922 h 1.79725 v 0.244922 q -0.2645,0 -0.37301,0.06298 -0.10853,0.06297 -0.10853,0.216931 0,0.06998 0.0204,0.167947 0.0204,0.09097 0.0543,0.230926 l 0.46119,1.67247 h 0.0272 l 0.99696,-2.596177 h 0.21025 l 0.90201,2.596177 h 0.0272 l 0.40692,-1.13364 q 0.0814,-0.230927 0.13565,-0.384878 0.0543,-0.16095 0.0814,-0.265916 0.034,-0.111965 0.0475,-0.181942 0.0135,-0.06998 0.0135,-0.132958 0,-0.153952 -0.0882,-0.202936 -0.0882,-0.04898 -0.36623,-0.04898 v -0.244921 h 1.3564 v 0.244922 q -0.10174,0 -0.17632,0.03499 -0.0679,0.02799 -0.14243,0.118962 -0.0679,0.09097 -0.14243,0.258918 -0.0747,0.167947 -0.18311,0.440861 l -1.05121,2.68015 h -0.25094 l -0.82742,-2.582182 h -0.0272 z m 4.41512,-0.06998 h -0.1492 V 90.32954 h 0.16955 q 0.2645,0.986687 0.96305,0.986687 0.27127,0 0.42727,-0.132958 0.16276,-0.139956 0.16276,-0.419866 0,-0.104968 -0.034,-0.174945 -0.0272,-0.07698 -0.11529,-0.153952 -0.0814,-0.08397 -0.23737,-0.188939 -0.14921,-0.104968 -0.40014,-0.265916 -0.23059,-0.146953 -0.40015,-0.272914 -0.16955,-0.12596 -0.28484,-0.251919 -0.11529,-0.132958 -0.17634,-0.279912 -0.0542,-0.146953 -0.0542,-0.342891 0,-0.237924 0.0747,-0.433862 0.0814,-0.202936 0.21702,-0.342892 0.13565,-0.139955 0.31876,-0.216931 0.18312,-0.08397 0.40015,-0.08397 0.18311,0 0.37979,0.06299 0.19668,0.05598 0.34589,0.153951 l 0.13563,-0.146953 h 0.12887 v 1.007679 h -0.17633 q -0.14922,-0.426863 -0.32554,-0.608806 -0.17634,-0.181942 -0.43406,-0.181942 -0.23059,0 -0.373,0.12596 -0.13565,0.12596 -0.13565,0.349889 0,0.118962 0.034,0.209933 0.0407,0.08397 0.12208,0.167947 0.0813,0.08397 0.20347,0.174944 0.12885,0.08397 0.30518,0.195937 0.29163,0.188941 0.49509,0.335895 0.21024,0.146952 0.33911,0.293906 0.12885,0.139956 0.1899,0.293906 0.061,0.153952 0.061,0.349889 0,0.496843 -0.31198,0.783752 -0.31197,0.279912 -0.82063,0.279912 -0.52899,0 -0.9088,-0.314901 z m 4.85596,-0.244922 q 0.22381,0 0.30518,-0.021 0.0882,-0.021 0.0882,-0.05598 -0.007,-0.05598 -0.10852,-0.202936 -0.10174,-0.146953 -0.2645,-0.349889 l -0.71889,-0.895715 -0.25094,0.244922 v 0.412869 q 0,0.272913 0.0204,0.44086 0.0272,0.16095 0.0882,0.258918 0.0679,0.09098 0.1899,0.125959 0.12886,0.03499 0.33233,0.04199 v 0.244922 h -1.92611 V 91.28823 q 0.20346,-0.007 0.32554,-0.04199 0.12886,-0.03499 0.19667,-0.125959 0.0747,-0.09098 0.10174,-0.244922 0.0272,-0.153951 0.0272,-0.405872 v -2.932061 q 0,-0.531832 -0.0135,-0.804744 -0.007,-0.272914 -0.0679,-0.370883 -0.061,-0.09797 -0.20347,-0.111964 -0.14241,-0.02099 -0.37978,-0.02099 V 85.99092 l 1.30893,-0.265916 v 3.841782 l 0.63073,-0.636799 q 0.3052,-0.314899 0.4544,-0.461853 0.1492,-0.153951 0.1492,-0.230927 0,-0.07697 -0.14242,-0.118962 -0.14242,-0.04898 -0.40692,-0.04898 v -0.244922 h 1.76334 v 0.244922 q -0.12886,0 -0.22381,0.014 -0.0949,0.014 -0.18312,0.05598 -0.0813,0.04199 -0.17633,0.118962 -0.0949,0.06998 -0.21703,0.181942 l -0.97662,0.895717 1.34285,1.567503 q 0.0949,0.118962 0.16955,0.195936 0.0814,0.06998 0.156,0.111966 0.0813,0.04199 0.16955,0.06299 0.0949,0.01399 0.22381,0.01399 v 0.244923 h -1.78369 z m 4.18452,-1.82642 q -0.38658,0.15395 -0.65786,0.300904 -0.26451,0.146952 -0.42727,0.293906 -0.16278,0.146955 -0.23738,0.293907 -0.0679,0.146954 -0.0679,0.300905 0,0.230927 0.1492,0.37788 0.14921,0.146953 0.39337,0.146953 0.17633,0 0.32554,-0.09098 0.15598,-0.09098 0.27127,-0.244923 0.1153,-0.160948 0.18313,-0.370882 0.0679,-0.216931 0.0679,-0.454855 z m 0,-0.300905 v -0.286905 q 0,-0.85373 -0.70533,-0.85373 -0.11531,0 -0.19669,0.02099 -0.0814,0.02099 -0.13565,0.06998 -0.0542,0.04899 -0.10174,0.139956 -0.0407,0.09097 -0.0814,0.223929 -0.0747,0.202935 -0.1492,0.272913 -0.0679,0.06298 -0.20346,0.06298 -0.33911,0 -0.33911,-0.349889 0,-0.335893 0.34589,-0.517836 0.34588,-0.18894 0.98339,-0.18894 0.67821,0 0.96306,0.25192 0.28485,0.244922 0.28485,0.839733 v 1.567504 q 0,0.797746 0.30518,0.797746 0.0949,0 0.18313,-0.021 0.0881,-0.02799 0.1492,-0.132958 l 0.095,0.167947 q -0.0814,0.160948 -0.29841,0.272913 -0.21704,0.104967 -0.4544,0.104967 -0.29842,0 -0.44762,-0.195938 -0.14242,-0.195938 -0.14242,-0.552825 h -0.034 q -0.17634,0.342891 -0.48831,0.545828 -0.31197,0.195936 -0.69176,0.195936 -0.42728,0 -0.67144,-0.223928 -0.24415,-0.223929 -0.24415,-0.60181 0,-0.167946 0.0543,-0.321897 0.061,-0.153951 0.1899,-0.293906 0.12886,-0.139956 0.33909,-0.272914 0.21025,-0.139955 0.51545,-0.279911 z" id="text1" aria-label="Jakub Ciborowski &amp; Anna Daszyńska-Ciborowska" />
    </g>
  </g>
</svg>
