<?xml version="1.0" encoding="UTF-8" standalone="no"?>
<svg width="174mm" height="15mm" viewBox="0 0 174 15" version="1.1" id="svg1" sodipodi:docname="name_3.svg" inkscape:version="1.3.1 (9b9bdc1480, 2023-11-25, custom)" xmlns:inkscape="http://www.inkscape.org/namespaces/inkscape" xmlns:sodipodi="http://sodipodi.sourceforge.net/DTD/sodipodi-0.dtd" xmlns="http://www.w3.org/2000/svg" xmlns:svg="http://www.w3.org/2000/svg">
  <sodipodi:namedview id="namedview1" pagecolor="#ffffff" bordercolor="#000000" borderopacity="0.25" inkscape:showpageshadow="2" inkscape:pageopacity="0.0" inkscape:pagecheckerboard="0" inkscape:deskcolor="#d1d1d1" inkscape:document-units="mm" inkscape:zoom="1.5074616" inkscape:cx="285.24773" inkscape:cy="249.42593" inkscape:window-width="2518" inkscape:window-height="1371" inkscape:window-x="0" inkscape:window-y="0" inkscape:window-maximized="1" inkscape:current-layer="svg1" />
  <defs id="defs1" />
  <path d="m 2.7535713,6.951569 q 0,0.3295558 0.03469,0.5376962 0.03469,0.2081405 0.1387604,0.3208833 0.1040702,0.1127427 0.2861931,0.1561053 0.1821229,0.03469 0.4856611,0.03469 V 8.3304996 H 0.88897953 V 8.0009439 q 0.30353817,0 0.48566107,-0.03469 0.1907955,-0.043363 0.2948657,-0.1474328 0.1040702,-0.1127428 0.1387603,-0.3035382 0.03469,-0.199468 0.03469,-0.5030061 V 2.9708825 q 0,-0.3295558 -0.043363,-0.5203512 Q 1.764904,2.2510634 1.6608338,2.1469931 1.5654361,2.0429229 1.4006582,2.0169053 1.2358803,1.9822152 0.97570473,1.9822152 V 1.6526595 H 3.6121507 v 0.3295557 q -0.2601756,0 -0.4249535,0.03469 -0.1647778,0.03469 -0.2688481,0.1474329 -0.095398,0.1127427 -0.1300878,0.3208832 -0.03469,0.1994679 -0.03469,0.5463687 V 5.1737025 L 4.9217012,2.5632741 q 0.1734504,-0.216813 0.1734504,-0.3382283 0,-0.2428306 -0.4943336,-0.2428306 V 1.6526595 h 2.0900772 v 0.3208832 q -0.1734504,0 -0.3035382,0.026018 Q 6.2572692,2.0169053 6.1271814,2.0862855 6.0057661,2.1556656 5.8670058,2.2857534 5.7282455,2.4158412 5.5461226,2.6239817 L 3.9156889,4.5059185 6.4480646,7.5499729 q 0.216813,0.251503 0.4076085,0.3555733 0.1907954,0.095398 0.5116786,0.095398 V 8.3304996 H 4.7048882 V 8.0009439 q 0.3382283,0 0.4856611,-0.052035 0.1474328,-0.060708 0.1474328,-0.1821229 0,-0.06938 -0.06938,-0.199468 Q 5.1992218,7.4372301 5.0431165,7.2464347 L 3.3519751,5.16503 2.7535713,5.8588315 Z M 11.486793,5.9108667 H 9.17123 Q 9.0237972,6.26644 8.919727,6.5439606 8.8156567,6.8128087 8.7462766,7.0122767 q -0.060708,0.1994679 -0.086725,0.3382282 -0.026018,0.1387603 -0.026018,0.2254855 0,0.2428306 0.1561054,0.3382283 0.1561053,0.086725 0.5203511,0.086725 V 8.3304996 H 7.2025681 V 8.0009439 Q 7.402036,7.9749263 7.5407963,7.9315637 7.6882292,7.8882011 7.7922994,7.8101485 7.9050422,7.7320958 7.9830948,7.6106805 8.06982,7.4805927 8.1478727,7.2984698 L 10.402728,1.6526595 h 0.372918 l 1.968662,4.8913011 q 0.199468,0.4856611 0.346901,0.7805268 0.147433,0.2861931 0.286193,0.4336259 0.13876,0.1474329 0.294866,0.1907955 0.164778,0.043363 0.390263,0.043363 V 8.3304996 H 11.23529 V 7.9922714 q 0.459643,0 0.633094,-0.086725 0.17345,-0.086725 0.17345,-0.2861932 0,-0.086725 -0.0087,-0.1561053 -0.0087,-0.078053 -0.03469,-0.1647779 -0.01735,-0.086725 -0.06071,-0.1907954 -0.03469,-0.1127428 -0.0954,-0.2601756 z M 9.3446804,5.4772407 H 11.322015 L 10.359365,2.9188474 Z M 19.968512,8.4172248 15.849065,2.9882275 h -0.03469 v 3.7031659 q 0,0.433626 0.02602,0.6851291 0.03469,0.2515031 0.121416,0.3902634 0.0954,0.1387603 0.260175,0.1821229 0.173451,0.043363 0.450971,0.052035 V 8.3304996 H 14.340047 V 8.0009439 q 0.303538,-0.00867 0.485661,-0.052035 0.190795,-0.052035 0.294865,-0.1821229 0.104071,-0.1300878 0.138761,-0.3642459 0.03469,-0.2428305 0.03469,-0.6504389 v -3.521043 q 0,-0.3642459 -0.03469,-0.5984039 Q 15.233316,2.3898237 15.137918,2.2510634 15.051193,2.112303 14.877743,2.0602679 14.704292,1.9995603 14.426772,1.9822152 V 1.6526595 h 1.717159 l 3.789891,5.056079 h 0.03469 V 3.2917657 q 0,-0.4249535 -0.03469,-0.6764565 Q 19.907804,2.3551336 19.812406,2.2163733 19.725681,2.077613 19.552231,2.0342504 19.387453,1.9908878 19.109932,1.9822152 V 1.6526595 h 2.332908 v 0.3295557 q -0.303538,0.00867 -0.494333,0.060708 -0.182123,0.043363 -0.286194,0.1734504 -0.10407,0.1300878 -0.13876,0.3729183 -0.03469,0.2428306 -0.03469,0.6417665 v 5.1861667 z m 7.675156,-6.7645653 h 0.242831 l 0.07805,1.9946795 h -0.320884 q -0.190795,-0.7631817 -0.737164,-1.1968077 -0.546369,-0.433626 -1.318223,-0.433626 -0.529023,0 -0.945304,0.2081405 -0.416281,0.2081405 -0.702475,0.5984038 -0.286193,0.3902634 -0.442298,0.9539772 -0.147433,0.5637138 -0.147433,1.2748604 0,1.3962757 0.581059,2.1507849 0.581059,0.7458367 1.682469,0.7458367 1.673796,0 2.150785,-1.7778666 h 0.355573 v 2.1594574 h -0.303538 l -0.199468,-0.685129 q -0.910615,0.7718542 -2.20282,0.7718542 -0.737164,0 -1.335568,-0.234158 -0.589732,-0.234158 -1.014685,-0.6591115 -0.416281,-0.433626 -0.650439,-1.0493749 -0.225485,-0.6157489 -0.225485,-1.3702581 0,-0.7891993 0.24283,-1.4396382 0.242831,-0.650439 0.676457,-1.1187551 0.442298,-0.468316 1.049374,-0.7198191 0.615749,-0.2601756 1.352914,-0.2601756 0.520351,0 0.979994,0.1474328 0.459644,0.1474329 0.99734,0.4769886 z m 3.234835,3.0093643 q 0.468316,0 0.780526,-0.052035 0.320884,-0.060708 0.503007,-0.1821229 0.190795,-0.1214153 0.268848,-0.3122107 0.08673,-0.1907955 0.08673,-0.450971 h 0.303538 v 2.3675978 h -0.303538 q 0,-0.2601756 -0.07805,-0.450971 -0.06938,-0.1907954 -0.260175,-0.3122107 -0.182123,-0.1300878 -0.503007,-0.1907954 -0.31221,-0.06938 -0.797871,-0.06938 v 1.9599895 q 0,0.2861931 0.06938,0.4769885 0.06938,0.182123 0.234158,0.3035382 0.17345,0.1127428 0.450971,0.1647779 0.27752,0.043363 0.685129,0.043363 0.459643,0 0.780527,-0.060708 0.320883,-0.06938 0.537696,-0.2254855 0.216813,-0.1561054 0.346901,-0.4076085 0.130087,-0.2601756 0.216813,-0.6417664 h 0.329555 L 34.399546,8.3304996 H 29.013911 V 8.0009439 q 0.303538,-0.00867 0.485661,-0.052035 0.190795,-0.043363 0.294866,-0.1474329 0.10407,-0.1040702 0.13876,-0.2948656 0.03469,-0.1907955 0.03469,-0.4943336 V 2.9708825 q 0,-0.3035382 -0.03469,-0.4856611 Q 29.90718,2.2944259 29.811783,2.1903557 29.725057,2.077613 29.551607,2.0429229 29.378157,1.9995603 29.100636,1.9822152 V 1.6526595 h 5.012716 l 0.07805,1.5263635 H 33.887867 Q 33.835832,2.8321222 33.714417,2.6153092 33.601674,2.3898237 33.393533,2.2597359 33.194065,2.1296481 32.881855,2.077613 32.569644,2.0255778 32.127345,2.0255778 h -1.10141 q -0.147432,0 -0.147432,0.1474329 z M 40.912608,8.3304996 H 35.31016 V 8.0009439 q 0.303538,-0.00867 0.485661,-0.052035 0.190796,-0.043363 0.294866,-0.1474329 0.10407,-0.1040702 0.13876,-0.2948656 0.03469,-0.1907955 0.03469,-0.4943336 V 2.9708825 q 0,-0.3035382 -0.03469,-0.4856611 Q 36.20343,2.2944259 36.108032,2.1903557 36.021307,2.077613 35.847856,2.0429229 35.674406,1.9995603 35.396885,1.9822152 V 1.6526595 h 2.636446 v 0.3295557 q -0.27752,0.00867 -0.450971,0.052035 -0.164777,0.043363 -0.260175,0.1561053 -0.08672,0.1127428 -0.121415,0.3122107 -0.02602,0.199468 -0.02602,0.5290237 v 3.737856 q 0,0.3642458 0.06938,0.5984039 0.07805,0.2254855 0.251503,0.3555733 0.182123,0.1214152 0.476989,0.1734504 0.294865,0.043363 0.745836,0.043363 0.494334,0 0.832562,-0.052035 0.338229,-0.060708 0.563714,-0.1994679 0.234158,-0.1474328 0.364246,-0.3989359 0.13876,-0.2601756 0.234158,-0.667784 h 0.329556 z M 45.457003,5.9108667 H 43.14144 q -0.147433,0.3555733 -0.251503,0.6330939 -0.10407,0.2688481 -0.17345,0.4683161 -0.06071,0.1994679 -0.08673,0.3382282 -0.02602,0.1387603 -0.02602,0.2254855 0,0.2428306 0.156105,0.3382283 0.156106,0.086725 0.520351,0.086725 V 8.3304996 H 41.172778 V 8.0009439 q 0.199468,-0.026018 0.338228,-0.06938 0.147433,-0.043363 0.251503,-0.1214152 0.112743,-0.078053 0.190796,-0.199468 0.08673,-0.1300878 0.164778,-0.3122107 l 2.254855,-5.6458103 h 0.372918 l 1.968662,4.8913011 q 0.199468,0.4856611 0.346901,0.7805268 0.147433,0.2861931 0.286193,0.4336259 0.13876,0.1474329 0.294866,0.1907955 0.164778,0.043363 0.390263,0.043363 V 8.3304996 H 45.2055 V 7.9922714 q 0.459643,0 0.633094,-0.086725 0.17345,-0.086725 0.17345,-0.2861932 0,-0.086725 -0.0087,-0.1561053 -0.0087,-0.078053 -0.03469,-0.1647779 -0.01735,-0.086725 -0.06071,-0.1907954 -0.03469,-0.1127428 -0.0954,-0.2601756 z M 43.31489,5.4772407 h 1.977335 L 44.329575,2.9188474 Z M 53.62651,3.3264558 q 0,0.6938016 -0.416281,1.1534451 -0.416281,0.4596436 -1.326895,0.6157489 L 53.799961,7.40254 q 0.234158,0.2861932 0.511678,0.416281 0.286193,0.1214153 0.676457,0.1821229 V 8.3304996 H 53.314299 L 51.189532,5.6073285 Q 51.076789,5.4598956 50.972719,5.3731704 50.877321,5.2864452 50.764579,5.2430826 50.660508,5.1910475 50.513076,5.182375 50.374315,5.16503 50.174847,5.16503 v 1.8038841 q 0,0.3208832 0.03469,0.5290237 0.04336,0.1994679 0.164778,0.3122107 0.130088,0.1127427 0.364246,0.1561053 0.242831,0.03469 0.633094,0.03469 V 8.3304996 H 48.310256 V 8.0009439 q 0.303538,-0.00867 0.485661,-0.052035 0.190795,-0.043363 0.294865,-0.1474329 0.104071,-0.1040702 0.138761,-0.2948656 0.03469,-0.1907955 0.03469,-0.4943336 V 2.9708825 q 0,-0.3035382 -0.03469,-0.4856611 Q 49.203525,2.2944259 49.108127,2.1903557 49.021402,2.077613 48.847952,2.0429229 48.674501,1.9995603 48.396981,1.9822152 V 1.6526595 h 2.723171 q 1.196808,0 1.847247,0.4422985 0.659111,0.4422985 0.659111,1.2314978 z M 50.174847,4.731404 h 0.615749 q 0.867252,0 1.283533,-0.3122107 0.424954,-0.3208833 0.424954,-1.0493749 0,-0.7024741 -0.338229,-1.0060123 Q 51.831299,2.0602679 51.120152,2.0602679 H 50.32228 q -0.147433,0 -0.147433,0.1474329 z m 6.833928,1.9599894 q 0,0.433626 0.03469,0.6851291 0.03469,0.2515031 0.130087,0.3902634 0.104071,0.1387603 0.286194,0.1821229 0.190795,0.043363 0.494333,0.052035 V 8.3304996 H 55.144183 V 8.0009439 q 0.303538,-0.00867 0.485661,-0.052035 0.190795,-0.052035 0.294866,-0.1821229 0.10407,-0.1300878 0.13876,-0.3642459 0.03469,-0.2428305 0.03469,-0.6504389 v -3.521043 q 0,-0.3642459 -0.03469,-0.5984039 Q 56.037452,2.3898237 55.942055,2.2510634 55.855329,2.112303 55.681879,2.0602679 55.508429,1.9995603 55.230908,1.9822152 V 1.6526595 h 2.636446 v 0.3295557 q -0.277521,0.00867 -0.450971,0.06938 -0.164778,0.060708 -0.260176,0.2081405 -0.08673,0.1387603 -0.121415,0.3902634 -0.02602,0.251503 -0.02602,0.6417664 z m 3.599086,-2.0293696 q 0.468316,0 0.780527,-0.052035 0.320883,-0.060708 0.503006,-0.1821229 0.190796,-0.1214153 0.268848,-0.3122107 0.08673,-0.1907955 0.08673,-0.450971 h 0.303539 v 2.3675978 h -0.303539 q 0,-0.2601756 -0.07805,-0.450971 -0.06938,-0.1907954 -0.260176,-0.3122107 -0.182123,-0.1300878 -0.503006,-0.1907954 -0.312211,-0.06938 -0.797872,-0.06938 v 1.9599895 q 0,0.2861931 0.06938,0.4769885 0.06938,0.182123 0.234158,0.3035382 0.173451,0.1127428 0.450971,0.1647779 0.277521,0.043363 0.68513,0.043363 0.459643,0 0.780526,-0.060708 0.320884,-0.06938 0.537697,-0.2254855 0.216813,-0.1561054 0.3469,-0.4076085 0.130088,-0.2601756 0.216813,-0.6417664 h 0.329556 L 64.128904,8.3304996 H 58.74327 V 8.0009439 q 0.303538,-0.00867 0.485661,-0.052035 0.190795,-0.043363 0.294865,-0.1474329 0.104071,-0.1040702 0.138761,-0.2948656 0.03469,-0.1907955 0.03469,-0.4943336 V 2.9708825 q 0,-0.3035382 -0.03469,-0.4856611 Q 59.636539,2.2944259 59.541141,2.1903557 59.454416,2.077613 59.280966,2.0429229 59.107515,1.9995603 58.829995,1.9822152 V 1.6526595 h 5.012716 l 0.07805,1.5263635 H 63.617226 Q 63.56519,2.8321222 63.443775,2.6153092 63.331032,2.3898237 63.122892,2.2597359 62.923424,2.1296481 62.611213,2.077613 62.299003,2.0255778 61.856704,2.0255778 h -1.10141 q -0.147433,0 -0.147433,0.1474329 z m 12.236915,-1.335568 q 0,0.6938016 -0.416281,1.1534451 -0.416281,0.4596436 -1.326896,0.6157489 L 73.018226,7.40254 q 0.234158,0.2861932 0.511679,0.416281 0.286193,0.1214153 0.676456,0.1821229 V 8.3304996 H 72.532565 L 70.407798,5.6073285 Q 70.295055,5.4598956 70.190985,5.3731704 70.095587,5.2864452 69.982844,5.2430826 69.878774,5.1910475 69.731341,5.182375 69.592581,5.16503 69.393113,5.16503 v 1.8038841 q 0,0.3208832 0.03469,0.5290237 0.04336,0.1994679 0.164778,0.3122107 0.130088,0.1127427 0.364246,0.1561053 0.24283,0.03469 0.633094,0.03469 v 0.3295557 h -3.0614 V 8.0009439 q 0.303538,-0.00867 0.485661,-0.052035 0.190796,-0.043363 0.294866,-0.1474329 0.10407,-0.1040702 0.13876,-0.2948656 0.03469,-0.1907955 0.03469,-0.4943336 V 2.9708825 q 0,-0.3035382 -0.03469,-0.4856611 Q 68.421791,2.2944259 68.326393,2.1903557 68.239668,2.077613 68.066217,2.0429229 67.892767,1.9995603 67.615246,1.9822152 V 1.6526595 h 2.723172 q 1.196807,0 1.847246,0.4422985 0.659112,0.4422985 0.659112,1.2314978 z M 69.393113,4.731404 h 0.615749 q 0.867252,0 1.283533,-0.3122107 0.424953,-0.3208833 0.424953,-1.0493749 0,-0.7024741 -0.338228,-1.0060123 -0.329556,-0.3035382 -1.040702,-0.3035382 h -0.797872 q -0.147433,0 -0.147433,0.1474329 z m 8.811265,1.1794627 h -2.315562 q -0.147433,0.3555733 -0.251503,0.6330939 -0.104071,0.2688481 -0.173451,0.4683161 -0.06071,0.1994679 -0.08673,0.3382282 -0.02602,0.1387603 -0.02602,0.2254855 0,0.2428306 0.156106,0.3382283 0.156105,0.086725 0.520351,0.086725 V 8.3304996 H 73.920154 V 8.0009439 q 0.199468,-0.026018 0.338228,-0.06938 0.147433,-0.043363 0.251503,-0.1214152 0.112743,-0.078053 0.190795,-0.199468 0.08673,-0.1300878 0.164778,-0.3122107 l 2.254855,-5.6458103 h 0.372919 l 1.968662,4.8913011 q 0.199468,0.4856611 0.3469,0.7805268 0.147433,0.2861931 0.286194,0.4336259 0.13876,0.1474329 0.294865,0.1907955 0.164778,0.043363 0.390264,0.043363 V 8.3304996 H 77.952875 V 7.9922714 q 0.459644,0 0.633094,-0.086725 0.173451,-0.086725 0.173451,-0.2861932 0,-0.086725 -0.0087,-0.1561053 -0.0087,-0.078053 -0.03469,-0.1647779 -0.01735,-0.086725 -0.06071,-0.1907954 -0.03469,-0.1127428 -0.0954,-0.2601756 z M 76.062266,5.4772407 H 78.0396 L 77.076951,2.9188474 Z M 80.99692,8.3304996 V 8.0009439 q 0.329555,-0.00867 0.529023,-0.043363 0.208141,-0.043363 0.320884,-0.1474328 0.112742,-0.1127428 0.147432,-0.2948657 0.04336,-0.1907954 0.04336,-0.5030061 V 2.9708825 q 0,-0.3035382 -0.03469,-0.4856611 Q 81.976914,2.2944259 81.881517,2.1903557 81.794791,2.077613 81.621341,2.0429229 81.447891,1.9995603 81.17037,1.9822152 V 1.6526595 h 3.044054 q 0.780527,0 1.439639,0.2601756 0.667784,0.2601756 1.144772,0.7198191 0.485661,0.4596436 0.75451,1.0927375 0.268848,0.6330939 0.268848,1.3789306 0,0.7111466 -0.251503,1.3095505 -0.251503,0.5897313 -0.711147,1.0146848 -0.450971,0.4249535 -1.084065,0.667784 -0.633094,0.234158 -1.387603,0.234158 z M 83.095669,2.077613 q -0.147432,0 -0.147432,0.1474328 v 4.6918331 q 0,0.9886673 1.292205,0.9886673 1.188135,0 1.821229,-0.7024741 0.633094,-0.7111466 0.633094,-2.0814047 0,-0.7198192 -0.17345,-1.2835329 Q 86.347864,3.2744207 86.018309,2.8841573 85.697425,2.4938939 85.237782,2.2857534 84.778138,2.077613 84.197079,2.077613 Z M 94.309234,1.6526595 h 0.24283 l 0.07805,1.9946795 H 94.309234 Q 94.118438,2.8841573 93.57207,2.4505313 q -0.546369,-0.433626 -1.318223,-0.433626 -0.529024,0 -0.945305,0.2081405 -0.416281,0.2081405 -0.702474,0.5984038 -0.286193,0.3902634 -0.442299,0.9539772 -0.147432,0.5637138 -0.147432,1.2748604 0,1.3962757 0.581058,2.1507849 0.581059,0.7458367 1.682469,0.7458367 1.673797,0 2.150785,-1.7778666 h 0.355573 v 2.1594574 h -0.303538 l -0.199468,-0.685129 q -0.910614,0.7718542 -2.20282,0.7718542 -0.737164,0 -1.335568,-0.234158 -0.589731,-0.234158 -1.014685,-0.6591115 -0.41628,-0.433626 -0.650438,-1.0493749 -0.225486,-0.6157489 -0.225486,-1.3702581 0,-0.7891993 0.242831,-1.4396382 0.24283,-0.650439 0.676456,-1.1187551 0.442299,-0.468316 1.049375,-0.7198191 0.615749,-0.2601756 1.352913,-0.2601756 0.520351,0 0.979995,0.1474328 0.459643,0.1474329 0.99734,0.4769886 z m 5.082081,-0.086725 q 0.763185,0 1.422295,0.2688481 0.65911,0.2688481 1.14477,0.7371642 0.48566,0.468316 0.76318,1.10141 0.27752,0.6330939 0.27752,1.3702581 0,0.7024741 -0.28619,1.318223 -0.27752,0.6157489 -0.76318,1.0753924 -0.48566,0.450971 -1.14477,0.7198192 -0.65912,0.2601755 -1.413625,0.2601755 -0.754509,0 -1.413621,-0.2601755 Q 97.318583,7.8882011 96.832921,7.4372301 96.34726,6.9775866 96.061067,6.3618377 q -0.27752,-0.6157489 -0.27752,-1.318223 0,-0.7371642 0.27752,-1.3702581 0.277521,-0.633094 0.763182,-1.10141 0.485661,-0.4683161 1.144773,-0.7371642 0.659111,-0.2688481 1.422293,-0.2688481 z m 0,6.374302 q 0.572386,0 1.023355,-0.199468 0.45965,-0.1994679 0.78053,-0.5723863 0.32955,-0.3729183 0.50301,-0.901942 0.17345,-0.5376963 0.17345,-1.1968078 0,-0.6938015 -0.17345,-1.2488428 -0.17346,-0.5637138 -0.49434,-0.9539772 -0.32088,-0.3989359 -0.78053,-0.6070763 -0.459639,-0.216813 -1.032025,-0.216813 -0.572387,0 -1.03203,0.216813 -0.459644,0.2081404 -0.780527,0.6070763 -0.320883,0.3902634 -0.494333,0.9539772 -0.173451,0.5550413 -0.173451,1.2488428 0,0.6591115 0.173451,1.1968078 0.17345,0.5290237 0.494333,0.901942 0.320883,0.3729184 0.780527,0.5723863 0.459643,0.199468 1.03203,0.199468 z M 98.532735,0.95885792 99.660163,0.2910739 q 0.24283,-0.14743283 0.407607,-0.21681299 0.17345,-0.06938016 0.3469,-0.06938016 0.14743,0 0.23416,0.07805268 0.0954,0.07805268 0.0954,0.22548551 0,0.13876032 -0.18213,0.24283055 -0.17345,0.0953977 -0.46831,0.16477788 l -1.040703,0.24283055 z m 11.942045,6.06209128 1.35291,-3.7638736 q 0.12142,-0.3382282 0.17345,-0.5376962 0.052,-0.1994679 0.052,-0.3469008 0,-0.2254855 -0.14744,-0.3035382 -0.13876,-0.086725 -0.503,-0.086725 V 1.6526595 h 2.10742 v 0.3295557 q -0.39894,0 -0.60708,0.1647779 -0.19947,0.1647779 -0.33823,0.5376962 l -2.1768,5.7325355 h -0.30354 l -1.66512,-4.9346637 -1.84725,4.9346637 h -0.30354 l -1.80388,-4.9780263 q -0.1561,-0.4162809 -0.28619,-0.6938015 -0.12142,-0.2861932 -0.26885,-0.4509711 -0.13876,-0.1647778 -0.32088,-0.234158 -0.18213,-0.06938 -0.4423,-0.06938 V 1.6526595 h 2.82724 v 0.3382283 q -0.4423,0 -0.62442,0.078053 -0.17345,0.078053 -0.17345,0.3035382 0,0.1127428 0.0347,0.2601756 0.0347,0.1474329 0.10407,0.3469008 l 1.31822,4.0153766 1.06672,-3.0006918 q 0.12142,-0.3382283 0.23416,-0.6244214 0.12141,-0.2948657 0.19079,-0.5290237 -0.12141,-0.2515031 -0.22548,-0.416281 -0.0954,-0.1647778 -0.19947,-0.2601755 -0.0954,-0.095398 -0.20814,-0.1300878 -0.10407,-0.043363 -0.22549,-0.043363 V 1.6526595 h 2.6538 v 0.3382283 q -0.25151,0 -0.40761,0.017345 -0.15611,0.017345 -0.24283,0.060708 -0.0781,0.03469 -0.11275,0.1040703 -0.026,0.06938 -0.026,0.1647778 0,0.1300878 0.0434,0.3208833 0.052,0.1821229 0.13876,0.468316 z m 10.8146,-3.6944934 q 0,0.4596435 -0.14743,0.8238894 -0.14744,0.3642458 -0.46832,0.6157489 -0.31221,0.251503 -0.82389,0.3902633 -0.50301,0.1387604 -1.2315,0.1387604 h -0.78052 v 1.6737963 q 0,0.3208832 0.0347,0.5290237 0.0434,0.1994679 0.16477,0.3122107 0.13009,0.1127427 0.36425,0.1561053 0.24283,0.03469 0.63309,0.03469 v 0.3295557 h -3.0614 V 8.0009439 q 0.30354,-0.00867 0.48567,-0.052035 0.19079,-0.043363 0.29486,-0.1474329 0.10407,-0.1040702 0.13876,-0.2948656 0.0347,-0.1907955 0.0347,-0.4943336 V 2.9708825 q 0,-0.3035382 -0.0347,-0.4856611 -0.026,-0.1907955 -0.12141,-0.2948657 -0.0867,-0.1127427 -0.26018,-0.1474328 -0.17345,-0.043363 -0.45097,-0.060708 V 1.6526595 h 2.72317 q 1.19681,0 1.84725,0.4422985 0.65911,0.4422985 0.65911,1.2314978 z m -3.45166,1.535036 h 0.61574 q 0.86726,0 1.28354,-0.3295558 0.42495,-0.3382282 0.42495,-1.10141 0,-0.7371641 -0.33823,-1.0493749 -0.32955,-0.3208832 -1.0407,-0.3208832 h -0.79787 q -0.14743,0 -0.14743,0.1474329 z m 9.40966,-1.535036 q 0,0.6938016 -0.41628,1.1534451 -0.41628,0.4596436 -1.3269,0.6157489 l 1.91663,2.3068902 q 0.23416,0.2861932 0.51168,0.416281 0.28619,0.1214153 0.67645,0.1821229 v 0.3295557 h -1.67379 L 124.8104,5.6073285 q -0.11274,-0.1474329 -0.21681,-0.2341581 -0.0954,-0.086725 -0.20814,-0.1300878 -0.10407,-0.052035 -0.25151,-0.060708 -0.13876,-0.017345 -0.33822,-0.017345 v 1.8038841 q 0,0.3208832 0.0347,0.5290237 0.0434,0.1994679 0.16477,0.3122107 0.13009,0.1127427 0.36425,0.1561053 0.24283,0.03469 0.63309,0.03469 v 0.3295557 h -3.0614 V 8.0009439 q 0.30354,-0.00867 0.48567,-0.052035 0.19079,-0.043363 0.29486,-0.1474329 0.10407,-0.1040702 0.13876,-0.2948656 0.0347,-0.1907955 0.0347,-0.4943336 V 2.9708825 q 0,-0.3035382 -0.0347,-0.4856611 -0.026,-0.1907955 -0.12141,-0.2948657 -0.0867,-0.1127427 -0.26018,-0.1474328 -0.17345,-0.043363 -0.45097,-0.060708 V 1.6526595 h 2.72317 q 1.19681,0 1.84725,0.4422985 0.65911,0.4422985 0.65911,1.2314978 z m -3.45166,1.4049482 h 0.61574 q 0.86726,0 1.28354,-0.3122107 0.42495,-0.3208833 0.42495,-1.0493749 0,-0.7024741 -0.33823,-1.0060123 -0.32955,-0.3035382 -1.0407,-0.3035382 h -0.79787 q -0.14743,0 -0.14743,0.1474329 z m 8.81126,1.1794627 h -2.31556 q -0.14743,0.3555733 -0.2515,0.6330939 -0.10407,0.2688481 -0.17345,0.4683161 -0.0607,0.1994679 -0.0867,0.3382282 -0.026,0.1387603 -0.026,0.2254855 0,0.2428306 0.15611,0.3382283 0.1561,0.086725 0.52035,0.086725 v 0.3295557 h -2.10742 V 8.0009439 q 0.19946,-0.026018 0.33823,-0.06938 0.14743,-0.043363 0.2515,-0.1214152 0.11274,-0.078053 0.19079,-0.199468 0.0867,-0.1300878 0.16478,-0.3122107 l 2.25486,-5.6458103 h 0.37291 l 1.96867,4.8913011 q 0.19946,0.4856611 0.3469,0.7805268 0.14743,0.2861931 0.28619,0.4336259 0.13876,0.1474329 0.29487,0.1907955 0.16477,0.043363 0.39026,0.043363 v 0.3382282 h -2.82724 V 7.9922714 q 0.45964,0 0.63309,-0.086725 0.17345,-0.086725 0.17345,-0.2861932 0,-0.086725 -0.009,-0.1561053 -0.009,-0.078053 -0.0347,-0.1647779 -0.0173,-0.086725 -0.0607,-0.1907954 -0.0347,-0.1127428 -0.0954,-0.2601756 z m -2.14211,-0.433626 h 1.97733 l -0.96265,-2.5583933 z m 11.22223,1.5437085 1.35292,-3.7638736 q 0.12141,-0.3382282 0.17345,-0.5376962 0.052,-0.1994679 0.052,-0.3469008 0,-0.2254855 -0.14743,-0.3035382 -0.13876,-0.086725 -0.50301,-0.086725 V 1.6526595 h 2.10742 v 0.3295557 q -0.39893,0 -0.60707,0.1647779 -0.19947,0.1647779 -0.33823,0.5376962 l -2.1768,5.7325355 h -0.30354 l -1.66512,-4.9346637 -1.84725,4.9346637 h -0.30354 l -1.80388,-4.9780263 q -0.15611,-0.4162809 -0.2862,-0.6938015 -0.12141,-0.2861932 -0.26884,-0.4509711 -0.13876,-0.1647778 -0.32089,-0.234158 -0.18212,-0.06938 -0.4423,-0.06938 V 1.6526595 h 2.82725 v 0.3382283 q -0.4423,0 -0.62443,0.078053 -0.17345,0.078053 -0.17345,0.3035382 0,0.1127428 0.0347,0.2601756 0.0347,0.1474329 0.10407,0.3469008 l 1.31823,4.0153766 1.06672,-3.0006918 q 0.12141,-0.3382283 0.23415,-0.6244214 0.12142,-0.2948657 0.1908,-0.5290237 -0.12142,-0.2515031 -0.22549,-0.416281 -0.0954,-0.1647778 -0.19946,-0.2601755 -0.0954,-0.095398 -0.20814,-0.1300878 -0.10407,-0.043363 -0.22549,-0.043363 V 1.6526595 h 2.65379 v 0.3382283 q -0.2515,0 -0.40761,0.017345 -0.1561,0.017345 -0.24283,0.060708 -0.078,0.03469 -0.11274,0.1040703 -0.026,0.06938 -0.026,0.1647778 0,0.1300878 0.0434,0.3208833 0.052,0.1821229 0.13877,0.468316 z m 8.98472,1.3962756 -4.11945,-5.4289973 h -0.0347 v 3.7031659 q 0,0.433626 0.026,0.6851291 0.0347,0.2515031 0.12141,0.3902634 0.0954,0.1387603 0.26018,0.1821229 0.17345,0.043363 0.45097,0.052035 v 0.3295557 h -2.33291 V 8.0009439 q 0.30354,-0.00867 0.48566,-0.052035 0.1908,-0.052035 0.29487,-0.1821229 0.10407,-0.1300878 0.13876,-0.3642459 0.0347,-0.2428305 0.0347,-0.6504389 v -3.521043 q 0,-0.3642459 -0.0347,-0.5984039 -0.026,-0.2428305 -0.12142,-0.3815908 -0.0867,-0.1387604 -0.26017,-0.1907955 -0.17345,-0.060708 -0.45097,-0.078053 V 1.6526595 h 1.71716 l 3.78989,5.056079 h 0.0347 V 3.2917657 q 0,-0.4249535 -0.0347,-0.6764565 -0.026,-0.2601756 -0.12142,-0.3989359 -0.0867,-0.1387603 -0.26017,-0.1821229 -0.16478,-0.043363 -0.4423,-0.052035 V 1.6526595 h 2.33291 v 0.3295557 q -0.30354,0.00867 -0.49434,0.060708 -0.18212,0.043363 -0.28619,0.1734504 -0.10407,0.1300878 -0.13876,0.3729183 -0.0347,0.2428306 -0.0347,0.6417665 v 5.1861667 z m 2.79254,-5.6891729 q -0.13009,-0.2254855 -0.24283,-0.3642458 -0.11275,-0.1474328 -0.23416,-0.234158 -0.11274,-0.086725 -0.24283,-0.1127428 -0.13009,-0.03469 -0.31221,-0.03469 V 1.6526595 h 2.73184 v 0.3295557 q -0.43362,0 -0.61575,0.06938 -0.17345,0.060708 -0.17345,0.2254855 0,0.1821229 0.19947,0.5203512 l 1.34424,2.2982177 h 0.0347 l 0.98,-1.6477787 q 0.27752,-0.4683161 0.39026,-0.7371642 0.12141,-0.2688481 0.12141,-0.433626 0,-0.1647779 -0.13008,-0.2254855 -0.12142,-0.06938 -0.43363,-0.06938 V 1.6526595 h 1.98601 v 0.3295557 q -0.18213,0 -0.32956,0.052035 -0.13876,0.052035 -0.29486,0.2081404 -0.15611,0.1561054 -0.3469,0.433626 -0.18213,0.2775206 -0.45098,0.7284917 l -1.33556,2.2548551 v 1.0320298 q 0,0.4249535 0.026,0.6851291 0.0347,0.2515031 0.13009,0.3902634 0.10407,0.1387603 0.28619,0.1907954 0.1908,0.043363 0.50301,0.043363 v 0.3295557 h -2.8099 V 8.0009439 q 0.31222,0 0.49434,-0.043363 0.19079,-0.052035 0.28619,-0.1821229 0.10407,-0.1387603 0.13876,-0.3815909 0.0347,-0.2428305 0.0347,-0.6417664 V 5.6940537 Z m 11.04878,-1.0753924 h 0.24284 l 0.0781,1.9946795 h -0.32089 q -0.19079,-0.7631817 -0.73716,-1.1968077 -0.54637,-0.433626 -1.31822,-0.433626 -0.52903,0 -0.94531,0.2081405 -0.41628,0.2081405 -0.70247,0.5984038 -0.28619,0.3902634 -0.4423,0.9539772 -0.14743,0.5637138 -0.14743,1.2748604 0,1.3962757 0.58106,2.1507849 0.58106,0.7458367 1.68247,0.7458367 1.67379,0 2.15078,-1.7778666 h 0.35557 v 2.1594574 h -0.30353 l -0.19947,-0.685129 q -0.91062,0.7718542 -2.20282,0.7718542 -0.73717,0 -1.33557,-0.234158 -0.58973,-0.234158 -1.01469,-0.6591115 -0.41628,-0.433626 -0.65043,-1.0493749 -0.22549,-0.6157489 -0.22549,-1.3702581 0,-0.7891993 0.24283,-1.4396382 0.24283,-0.650439 0.67646,-1.1187551 0.4423,-0.468316 1.04937,-0.7198191 0.61575,-0.2601756 1.35291,-0.2601756 0.52036,0 0.98,0.1474328 0.45964,0.1474329 0.99734,0.4769886 z m 7.65782,5.2989095 q 0,0.3295558 0.0347,0.5376962 0.0347,0.199468 0.13008,0.3122107 0.10407,0.1040703 0.2862,0.1474329 0.19079,0.043363 0.49433,0.052035 v 0.3295557 h -2.8099 V 8.0009439 q 0.30354,-0.00867 0.48567,-0.052035 0.19079,-0.043363 0.29486,-0.1474329 0.10407,-0.1040702 0.13876,-0.2948656 0.0347,-0.1907955 0.0347,-0.4943336 V 5.1303399 h -3.51237 V 6.951569 q 0,0.3295558 0.0347,0.5376962 0.0347,0.199468 0.13009,0.3122107 0.10407,0.1040703 0.28619,0.1474329 0.1908,0.043363 0.49434,0.052035 v 0.3295557 h -2.8099 V 8.0009439 q 0.30354,-0.00867 0.48566,-0.052035 0.1908,-0.043363 0.29487,-0.1474329 0.10407,-0.1040702 0.13876,-0.2948656 0.0347,-0.1907955 0.0347,-0.4943336 V 2.9708825 q 0,-0.3035382 -0.0347,-0.4856611 -0.026,-0.1907955 -0.12142,-0.2948657 -0.0867,-0.1127427 -0.26017,-0.1474328 -0.17345,-0.043363 -0.45098,-0.060708 V 1.6526595 h 2.63645 v 0.3295557 q -0.27752,0.00867 -0.45097,0.052035 -0.16478,0.043363 -0.26018,0.1561053 -0.0867,0.1127428 -0.12141,0.3122107 -0.026,0.199468 -0.026,0.5290237 v 1.6651238 h 3.51237 V 2.9708825 q 0,-0.3035382 -0.0347,-0.4856611 -0.026,-0.1907955 -0.12141,-0.2948657 -0.0867,-0.1127427 -0.26018,-0.1474328 -0.17345,-0.043363 -0.45097,-0.060708 V 1.6526595 h 2.63645 v 0.3295557 q -0.27752,0.00867 -0.45098,0.052035 -0.16477,0.043363 -0.26017,0.1561053 -0.0867,0.1127428 -0.12142,0.3122107 -0.026,0.199468 -0.026,0.5290237 z" id="text1" style="font-size:8.67252px;font-family:'Libre Baskerville';-inkscape-font-specification:'Libre Baskerville';stroke-width:0.722709" aria-label="KANCELARIE RADCÓW PRAWNYCH" />
</svg>
